<mxfile host="app.diagrams.net" agent="Mozilla/5.0 (Macintosh; Intel Mac OS X 10_15_7) AppleWebKit/537.36 (KHTML, like Gecko) Chrome/134.0.0.0 Safari/537.36" version="26.2.9">
  <diagram name="Side-1" id="GWhRzBt6XzKDAtnr6SW6">
    <mxGraphModel dx="3203" dy="2757" grid="1" gridSize="10" guides="1" tooltips="1" connect="1" arrows="1" fold="1" page="1" pageScale="1" pageWidth="827" pageHeight="1169" math="0" shadow="0">
      <root>
        <mxCell id="0" />
        <mxCell id="1" parent="0" />
        <mxCell id="BLBORunRG129IxlCEGwJ-1" value="" style="shape=image;verticalLabelPosition=bottom;labelBackgroundColor=default;verticalAlign=top;aspect=fixed;imageAspect=0;editableCssRules=.*;image=data:image/svg+xml,PHN2ZyB4bWxucz0iaHR0cDovL3d3dy53My5vcmcvMjAwMC9zdmciIGlkPSJleHBvcnQtc3ZnIiB3aWR0aD0iMTY1My44NjMyODEyNSIgY2xhc3M9ImNsYXNzRGlhZ3JhbSIgc3R5bGU9Im1heC13aWR0aDogMTY2Ny44NjMyODEyNXB4OyIgdmlld0JveD0iNyA3IDE2NTMuODYzMjgxMjUgMTUxNSIgcm9sZT0iZ3JhcGhpY3MtZG9jdW1lbnQgZG9jdW1lbnQiIGFyaWEtcm9sZWRlc2NyaXB0aW9uPSJjbGFzcyIgaGVpZ2h0PSIxNTE1Ij48c3R5bGU+QGltcG9ydCB1cmwoImh0dHBzOi8vY2RuanMuY2xvdWRmbGFyZS5jb20vYWpheC9saWJzL2ZvbnQtYXdlc29tZS82LjIuMC9jc3MvYWxsLm1pbi5jc3MiKTsgcCB7bWFyZ2luOiAwO308L3N0eWxlPjxzdHlsZT4jZXhwb3J0LXN2Z3tmb250LWZhbWlseTphcmlhbCxzYW5zLXNlcmlmO2ZvbnQtc2l6ZToxNHB4O2ZpbGw6IzMzMzt9QGtleWZyYW1lcyBlZGdlLWFuaW1hdGlvbi1mcmFtZXtmcm9te3N0cm9rZS1kYXNob2Zmc2V0OjA7fX1Aa2V5ZnJhbWVzIGRhc2h7dG97c3Ryb2tlLWRhc2hvZmZzZXQ6MDt9fSNleHBvcnQtc3ZnIC5lZGdlLWFuaW1hdGlvbi1zbG93e3N0cm9rZS1kYXNoYXJyYXk6OSw1IWltcG9ydGFudDtzdHJva2UtZGFzaG9mZnNldDo5MDA7YW5pbWF0aW9uOmRhc2ggNTBzIGxpbmVhciBpbmZpbml0ZTtzdHJva2UtbGluZWNhcDpyb3VuZDt9I2V4cG9ydC1zdmcgLmVkZ2UtYW5pbWF0aW9uLWZhc3R7c3Ryb2tlLWRhc2hhcnJheTo5LDUhaW1wb3J0YW50O3N0cm9rZS1kYXNob2Zmc2V0OjkwMDthbmltYXRpb246ZGFzaCAyMHMgbGluZWFyIGluZmluaXRlO3N0cm9rZS1saW5lY2FwOnJvdW5kO30jZXhwb3J0LXN2ZyAuZXJyb3ItaWNvbntmaWxsOiNmZmZmZmY7fSNleHBvcnQtc3ZnIC5lcnJvci10ZXh0e2ZpbGw6IzAwMDAwMDtzdHJva2U6IzAwMDAwMDt9I2V4cG9ydC1zdmcgLmVkZ2UtdGhpY2tuZXNzLW5vcm1hbHtzdHJva2Utd2lkdGg6MnB4O30jZXhwb3J0LXN2ZyAuZWRnZS10aGlja25lc3MtdGhpY2t7c3Ryb2tlLXdpZHRoOjMuNXB4O30jZXhwb3J0LXN2ZyAuZWRnZS1wYXR0ZXJuLXNvbGlke3N0cm9rZS1kYXNoYXJyYXk6MDt9I2V4cG9ydC1zdmcgLmVkZ2UtdGhpY2tuZXNzLWludmlzaWJsZXtzdHJva2Utd2lkdGg6MDtmaWxsOm5vbmU7fSNleHBvcnQtc3ZnIC5lZGdlLXBhdHRlcm4tZGFzaGVke3N0cm9rZS1kYXNoYXJyYXk6Mzt9I2V4cG9ydC1zdmcgLmVkZ2UtcGF0dGVybi1kb3R0ZWR7c3Ryb2tlLWRhc2hhcnJheToyO30jZXhwb3J0LXN2ZyAubWFya2Vye2ZpbGw6IzAwMDAwMDtzdHJva2U6IzAwMDAwMDt9I2V4cG9ydC1zdmcgLm1hcmtlci5jcm9zc3tzdHJva2U6IzAwMDAwMDt9I2V4cG9ydC1zdmcgc3Zne2ZvbnQtZmFtaWx5OmFyaWFsLHNhbnMtc2VyaWY7Zm9udC1zaXplOjE0cHg7fSNleHBvcnQtc3ZnIHB7bWFyZ2luOjA7fSNleHBvcnQtc3ZnIGcuY2xhc3NHcm91cCB0ZXh0e2ZpbGw6IzAwMDAwMDtzdHJva2U6bm9uZTtmb250LWZhbWlseTphcmlhbCxzYW5zLXNlcmlmO2ZvbnQtc2l6ZToxMHB4O30jZXhwb3J0LXN2ZyBnLmNsYXNzR3JvdXAgdGV4dCAudGl0bGV7Zm9udC13ZWlnaHQ6Ym9sZGVyO30jZXhwb3J0LXN2ZyAubm9kZUxhYmVsLCNleHBvcnQtc3ZnIC5lZGdlTGFiZWx7Y29sb3I6IzMzMzt9I2V4cG9ydC1zdmcgLm5vdGVMYWJlbCAubm9kZUxhYmVsLCNleHBvcnQtc3ZnIC5ub3RlTGFiZWwgLmVkZ2VMYWJlbHtjb2xvcjojMzMzO30jZXhwb3J0LXN2ZyAuZWRnZUxhYmVsIC5sYWJlbCByZWN0e2ZpbGw6I2ZmZmZmZjt9I2V4cG9ydC1zdmcgLmxhYmVsIHRleHR7ZmlsbDojMzMzO30jZXhwb3J0LXN2ZyAubGFiZWxCa2d7YmFja2dyb3VuZDojZmZmZmZmO30jZXhwb3J0LXN2ZyAuZWRnZUxhYmVsIC5sYWJlbCBzcGFue2JhY2tncm91bmQ6I2ZmZmZmZjt9I2V4cG9ydC1zdmcgLmNsYXNzVGl0bGV7Zm9udC13ZWlnaHQ6Ym9sZGVyO30jZXhwb3J0LXN2ZyAubm9kZSByZWN0LCNleHBvcnQtc3ZnIC5ub2RlIGNpcmNsZSwjZXhwb3J0LXN2ZyAubm9kZSBlbGxpcHNlLCNleHBvcnQtc3ZnIC5ub2RlIHBvbHlnb24sI2V4cG9ydC1zdmcgLm5vZGUgcGF0aHtmaWxsOiNmZmZmZmY7c3Ryb2tlOiMwMDAwMDA7c3Ryb2tlLXdpZHRoOjI7fSNleHBvcnQtc3ZnIC5kaXZpZGVye3N0cm9rZTojMDAwMDAwO3N0cm9rZS13aWR0aDoxO30jZXhwb3J0LXN2ZyBnLmNsaWNrYWJsZXtjdXJzb3I6cG9pbnRlcjt9I2V4cG9ydC1zdmcgZy5jbGFzc0dyb3VwIHJlY3R7ZmlsbDojZmZmZmZmO3N0cm9rZTojMDAwMDAwO30jZXhwb3J0LXN2ZyBnLmNsYXNzR3JvdXAgbGluZXtzdHJva2U6IzAwMDAwMDtzdHJva2Utd2lkdGg6MTt9I2V4cG9ydC1zdmcgLmNsYXNzTGFiZWwgLmJveHtzdHJva2U6bm9uZTtzdHJva2Utd2lkdGg6MDtmaWxsOiNmZmZmZmY7b3BhY2l0eTowLjU7fSNleHBvcnQtc3ZnIC5jbGFzc0xhYmVsIC5sYWJlbHtmaWxsOiMwMDAwMDA7Zm9udC1zaXplOjEwcHg7fSNleHBvcnQtc3ZnIC5yZWxhdGlvbntzdHJva2U6IzAwMDAwMDtzdHJva2Utd2lkdGg6MjtmaWxsOm5vbmU7fSNleHBvcnQtc3ZnIC5kYXNoZWQtbGluZXtzdHJva2UtZGFzaGFycmF5OjM7fSNleHBvcnQtc3ZnIC5kb3R0ZWQtbGluZXtzdHJva2UtZGFzaGFycmF5OjEgMjt9I2V4cG9ydC1zdmcgI2NvbXBvc2l0aW9uU3RhcnQsI2V4cG9ydC1zdmcgLmNvbXBvc2l0aW9ue2ZpbGw6IzAwMDAwMCFpbXBvcnRhbnQ7c3Ryb2tlOiMwMDAwMDAhaW1wb3J0YW50O3N0cm9rZS13aWR0aDoxO30jZXhwb3J0LXN2ZyAjY29tcG9zaXRpb25FbmQsI2V4cG9ydC1zdmcgLmNvbXBvc2l0aW9ue2ZpbGw6IzAwMDAwMCFpbXBvcnRhbnQ7c3Ryb2tlOiMwMDAwMDAhaW1wb3J0YW50O3N0cm9rZS13aWR0aDoxO30jZXhwb3J0LXN2ZyAjZGVwZW5kZW5jeVN0YXJ0LCNleHBvcnQtc3ZnIC5kZXBlbmRlbmN5e2ZpbGw6IzAwMDAwMCFpbXBvcnRhbnQ7c3Ryb2tlOiMwMDAwMDAhaW1wb3J0YW50O3N0cm9rZS13aWR0aDoxO30jZXhwb3J0LXN2ZyAjZGVwZW5kZW5jeVN0YXJ0LCNleHBvcnQtc3ZnIC5kZXBlbmRlbmN5e2ZpbGw6IzAwMDAwMCFpbXBvcnRhbnQ7c3Ryb2tlOiMwMDAwMDAhaW1wb3J0YW50O3N0cm9rZS13aWR0aDoxO30jZXhwb3J0LXN2ZyAjZXh0ZW5zaW9uU3RhcnQsI2V4cG9ydC1zdmcgLmV4dGVuc2lvbntmaWxsOnRyYW5zcGFyZW50IWltcG9ydGFudDtzdHJva2U6IzAwMDAwMCFpbXBvcnRhbnQ7c3Ryb2tlLXdpZHRoOjE7fSNleHBvcnQtc3ZnICNleHRlbnNpb25FbmQsI2V4cG9ydC1zdmcgLmV4dGVuc2lvbntmaWxsOnRyYW5zcGFyZW50IWltcG9ydGFudDtzdHJva2U6IzAwMDAwMCFpbXBvcnRhbnQ7c3Ryb2tlLXdpZHRoOjE7fSNleHBvcnQtc3ZnICNhZ2dyZWdhdGlvblN0YXJ0LCNleHBvcnQtc3ZnIC5hZ2dyZWdhdGlvbntmaWxsOnRyYW5zcGFyZW50IWltcG9ydGFudDtzdHJva2U6IzAwMDAwMCFpbXBvcnRhbnQ7c3Ryb2tlLXdpZHRoOjE7fSNleHBvcnQtc3ZnICNhZ2dyZWdhdGlvbkVuZCwjZXhwb3J0LXN2ZyAuYWdncmVnYXRpb257ZmlsbDp0cmFuc3BhcmVudCFpbXBvcnRhbnQ7c3Ryb2tlOiMwMDAwMDAhaW1wb3J0YW50O3N0cm9rZS13aWR0aDoxO30jZXhwb3J0LXN2ZyAjbG9sbGlwb3BTdGFydCwjZXhwb3J0LXN2ZyAubG9sbGlwb3B7ZmlsbDojZmZmZmZmIWltcG9ydGFudDtzdHJva2U6IzAwMDAwMCFpbXBvcnRhbnQ7c3Ryb2tlLXdpZHRoOjE7fSNleHBvcnQtc3ZnICNsb2xsaXBvcEVuZCwjZXhwb3J0LXN2ZyAubG9sbGlwb3B7ZmlsbDojZmZmZmZmIWltcG9ydGFudDtzdHJva2U6IzAwMDAwMCFpbXBvcnRhbnQ7c3Ryb2tlLXdpZHRoOjE7fSNleHBvcnQtc3ZnIC5lZGdlVGVybWluYWxze2ZvbnQtc2l6ZToxMXB4O2xpbmUtaGVpZ2h0OmluaXRpYWw7fSNleHBvcnQtc3ZnIC5jbGFzc1RpdGxlVGV4dHt0ZXh0LWFuY2hvcjptaWRkbGU7Zm9udC1zaXplOjE4cHg7ZmlsbDojMzMzO30jZXhwb3J0LXN2ZyAuZWRnZUxhYmVse2JhY2tncm91bmQtY29sb3I6aHNsKC0xMjAsIDAlLCA4MCUpO3RleHQtYWxpZ246Y2VudGVyO30jZXhwb3J0LXN2ZyAuZWRnZUxhYmVsIHB7YmFja2dyb3VuZC1jb2xvcjpoc2woLTEyMCwgMCUsIDgwJSk7fSNleHBvcnQtc3ZnIC5lZGdlTGFiZWwgcmVjdHtvcGFjaXR5OjAuNTtiYWNrZ3JvdW5kLWNvbG9yOmhzbCgtMTIwLCAwJSwgODAlKTtmaWxsOmhzbCgtMTIwLCAwJSwgODAlKTt9I2V4cG9ydC1zdmcgLm5vZGUgLm5lby1ub2Rle3N0cm9rZTojMDAwMDAwO30jZXhwb3J0LXN2ZyBbZGF0YS1sb29rPSJuZW8iXS5ub2RlIHJlY3QsI2V4cG9ydC1zdmcgW2RhdGEtbG9vaz0ibmVvIl0uY2x1c3RlciByZWN0LCNleHBvcnQtc3ZnIFtkYXRhLWxvb2s9Im5lbyJdLm5vZGUgcG9seWdvbntzdHJva2U6dXJsKCNleHBvcnQtc3ZnLWdyYWRpZW50KTtmaWx0ZXI6ZHJvcC1zaGFkb3coIDBweCAxcHggMnB4IHJnYmEoMCwgMCwgMCwgMC4yNSkpO30jZXhwb3J0LXN2ZyBbZGF0YS1sb29rPSJuZW8iXS5ub2RlIHBhdGh7c3Ryb2tlOnVybCgjZXhwb3J0LXN2Zy1ncmFkaWVudCk7fSNleHBvcnQtc3ZnIFtkYXRhLWxvb2s9Im5lbyJdLm5vZGUgLm91dGVyLXBhdGh7ZmlsdGVyOmRyb3Atc2hhZG93KCAwcHggMXB4IDJweCByZ2JhKDAsIDAsIDAsIDAuMjUpKTt9I2V4cG9ydC1zdmcgW2RhdGEtbG9vaz0ibmVvIl0ubm9kZSAubmVvLWxpbmUgcGF0aHtzdHJva2U6IzAwMDAwMDtmaWx0ZXI6bm9uZTt9I2V4cG9ydC1zdmcgW2RhdGEtbG9vaz0ibmVvIl0ubm9kZSBjaXJjbGV7c3Ryb2tlOnVybCgjZXhwb3J0LXN2Zy1ncmFkaWVudCk7ZmlsdGVyOmRyb3Atc2hhZG93KCAwcHggMXB4IDJweCByZ2JhKDAsIDAsIDAsIDAuMjUpKTt9I2V4cG9ydC1zdmcgW2RhdGEtbG9vaz0ibmVvIl0ubm9kZSBjaXJjbGUgLnN0YXRlLXN0YXJ0e2ZpbGw6IzAwMDAwMDt9I2V4cG9ydC1zdmcgW2RhdGEtbG9vaz0ibmVvIl0uc3RhdGVkaWFncmFtLWNsdXN0ZXIgcmVjdHtmaWxsOiNmZmZmZmY7c3Ryb2tlOnVybCgjZXhwb3J0LXN2Zy1ncmFkaWVudCk7c3Ryb2tlLXdpZHRoOjFweDt9I2V4cG9ydC1zdmcgW2RhdGEtbG9vaz0ibmVvIl0uaWNvbi1zaGFwZSAuaWNvbntmaWxsOnVybCgjZXhwb3J0LXN2Zy1ncmFkaWVudCk7ZmlsdGVyOmRyb3Atc2hhZG93KCAwcHggMXB4IDJweCByZ2JhKDAsIDAsIDAsIDAuMjUpKTt9I2V4cG9ydC1zdmcgW2RhdGEtbG9vaz0ibmVvIl0uaWNvbi1zaGFwZSAuaWNvbi1uZW8gcGF0aHtzdHJva2U6dXJsKCNleHBvcnQtc3ZnLWdyYWRpZW50KTtmaWx0ZXI6ZHJvcC1zaGFkb3coIDBweCAxcHggMnB4IHJnYmEoMCwgMCwgMCwgMC4yNSkpO30jZXhwb3J0LXN2ZyA6cm9vdHstLW1lcm1haWQtZm9udC1mYW1pbHk6InRyZWJ1Y2hldCBtcyIsdmVyZGFuYSxhcmlhbCxzYW5zLXNlcmlmO308L3N0eWxlPjxnPjxkZWZzPjxtYXJrZXIgaWQ9ImV4cG9ydC1zdmdfY2xhc3MtYWdncmVnYXRpb25TdGFydCIgY2xhc3M9Im1hcmtlciBhZ2dyZWdhdGlvbiBjbGFzcyIgcmVmWD0iMTgiIHJlZlk9IjciIG1hcmtlcldpZHRoPSIxOTAiIG1hcmtlckhlaWdodD0iMjQwIiBvcmllbnQ9ImF1dG8iPjxwYXRoIGQ9Ik0gMTgsNyBMOSwxMyBMMSw3IEw5LDEgWiIvPjwvbWFya2VyPjwvZGVmcz48ZGVmcz48bWFya2VyIGlkPSJleHBvcnQtc3ZnX2NsYXNzLWFnZ3JlZ2F0aW9uRW5kIiBjbGFzcz0ibWFya2VyIGFnZ3JlZ2F0aW9uIGNsYXNzIiByZWZYPSIxIiByZWZZPSI3IiBtYXJrZXJXaWR0aD0iMjAiIG1hcmtlckhlaWdodD0iMjgiIG9yaWVudD0iYXV0byI+PHBhdGggZD0iTSAxOCw3IEw5LDEzIEwxLDcgTDksMSBaIi8+PC9tYXJrZXI+PC9kZWZzPjxkZWZzPjxtYXJrZXIgaWQ9ImV4cG9ydC1zdmdfY2xhc3MtYWdncmVnYXRpb25TdGFydC1tYXJnaW4iIGNsYXNzPSJtYXJrZXIgYWdncmVnYXRpb24gY2xhc3MiIHJlZlg9IjE1IiByZWZZPSI3IiBtYXJrZXJXaWR0aD0iMTkwIiBtYXJrZXJIZWlnaHQ9IjI0MCIgb3JpZW50PSJhdXRvIiBtYXJrZXJVbml0cz0idXNlclNwYWNlT25Vc2UiPjxwYXRoIGQ9Ik0gMTgsNyBMOSwxMyBMMSw3IEw5LDEgWiIgc3R5bGU9InN0cm9rZS13aWR0aDogMjsiLz48L21hcmtlcj48L2RlZnM+PGRlZnM+PG1hcmtlciBpZD0iZXhwb3J0LXN2Z19jbGFzcy1hZ2dyZWdhdGlvbkVuZC1tYXJnaW4iIGNsYXNzPSJtYXJrZXIgYWdncmVnYXRpb24gY2xhc3MiIHJlZlg9IjEiIHJlZlk9IjciIG1hcmtlcldpZHRoPSIyMCIgbWFya2VySGVpZ2h0PSIyOCIgb3JpZW50PSJhdXRvIiBtYXJrZXJVbml0cz0idXNlclNwYWNlT25Vc2UiPjxwYXRoIGQ9Ik0gMTgsNyBMOSwxMyBMMSw3IEw5LDEgWiIgc3R5bGU9InN0cm9rZS13aWR0aDogMjsiLz48L21hcmtlcj48L2RlZnM+PGRlZnM+PG1hcmtlciBpZD0iZXhwb3J0LXN2Z19jbGFzcy1leHRlbnNpb25TdGFydCIgY2xhc3M9Im1hcmtlciBleHRlbnNpb24gY2xhc3MiIHJlZlg9IjE3LjUiIHJlZlk9IjciIG1hcmtlcldpZHRoPSIxOTAiIG1hcmtlckhlaWdodD0iMjQwIiBvcmllbnQ9ImF1dG8iIG1hcmtlclVuaXRzPSJ1c2VyU3BhY2VPblVzZSI+PHBhdGggZD0iTSAxLDcgTDE4LDEzIFYgMSBaIi8+PC9tYXJrZXI+PC9kZWZzPjxkZWZzPjxtYXJrZXIgaWQ9ImV4cG9ydC1zdmdfY2xhc3MtZXh0ZW5zaW9uRW5kIiBjbGFzcz0ibWFya2VyIGV4dGVuc2lvbiBjbGFzcyIgcmVmWD0iMSIgcmVmWT0iNyIgbWFya2VyV2lkdGg9IjIwIiBtYXJrZXJIZWlnaHQ9IjI4IiBvcmllbnQ9ImF1dG8iPjxwYXRoIGQ9Ik0gMSwxIFYgMTMgTDE4LDcgWiIvPjwvbWFya2VyPjwvZGVmcz48bWFya2VyIGlkPSJleHBvcnQtc3ZnX2NsYXNzLWV4dGVuc2lvblN0YXJ0LW1hcmdpbiIgY2xhc3M9Im1hcmtlciBleHRlbnNpb24gY2xhc3MiIHJlZlg9IjE4IiByZWZZPSI3IiBtYXJrZXJXaWR0aD0iMjAiIG1hcmtlckhlaWdodD0iMjgiIG9yaWVudD0iYXV0byIgbWFya2VyVW5pdHM9InVzZXJTcGFjZU9uVXNlIiB2aWV3Qm94PSIwIDAgMjAgMTQiPjxwb2x5Z29uIHBvaW50cz0iMTAsNyAxOCwxMyAxOCwxIiBzdHlsZT0ic3Ryb2tlLXdpZHRoOiAyOyBzdHJva2UtZGFzaGFycmF5OiAwOyIvPjwvbWFya2VyPjxkZWZzPjxtYXJrZXIgaWQ9ImV4cG9ydC1zdmdfY2xhc3MtZXh0ZW5zaW9uRW5kLW1hcmdpbiIgY2xhc3M9Im1hcmtlciBleHRlbnNpb24gY2xhc3MiIHJlZlg9IjkiIHJlZlk9IjciIG1hcmtlcldpZHRoPSIyMCIgbWFya2VySGVpZ2h0PSIyOCIgb3JpZW50PSJhdXRvIiBtYXJrZXJVbml0cz0idXNlclNwYWNlT25Vc2UiIHZpZXdCb3g9IjAgMCAyMCAxNCI+PHBvbHlnb24gcG9pbnRzPSIxMCwxIDEwLDEzIDE4LDciIHN0eWxlPSJzdHJva2Utd2lkdGg6IDI7IHN0cm9rZS1kYXNoYXJyYXk6IDA7Ii8+PC9tYXJrZXI+PC9kZWZzPjxkZWZzPjxtYXJrZXIgaWQ9ImV4cG9ydC1zdmdfY2xhc3MtY29tcG9zaXRpb25TdGFydCIgY2xhc3M9Im1hcmtlciBjb21wb3NpdGlvbiBjbGFzcyIgcmVmWD0iMTgiIHJlZlk9IjciIG1hcmtlcldpZHRoPSIxOTAiIG1hcmtlckhlaWdodD0iMjQwIiBvcmllbnQ9ImF1dG8iPjxwYXRoIGQ9Ik0gMTgsNyBMOSwxMyBMMSw3IEw5LDEgWiIvPjwvbWFya2VyPjwvZGVmcz48ZGVmcz48bWFya2VyIGlkPSJleHBvcnQtc3ZnX2NsYXNzLWNvbXBvc2l0aW9uRW5kIiBjbGFzcz0ibWFya2VyIGNvbXBvc2l0aW9uIGNsYXNzIiByZWZYPSIxIiByZWZZPSI3IiBtYXJrZXJXaWR0aD0iMjAiIG1hcmtlckhlaWdodD0iMjgiIG9yaWVudD0iYXV0byI+PHBhdGggZD0iTSAxOCw3IEw5LDEzIEwxLDcgTDksMSBaIi8+PC9tYXJrZXI+PC9kZWZzPjxkZWZzPjxtYXJrZXIgaWQ9ImV4cG9ydC1zdmdfY2xhc3MtY29tcG9zaXRpb25TdGFydC1tYXJnaW4iIGNsYXNzPSJtYXJrZXIgY29tcG9zaXRpb24gY2xhc3MiIHJlZlg9IjE1IiByZWZZPSI3IiBtYXJrZXJXaWR0aD0iMTkwIiBtYXJrZXJIZWlnaHQ9IjI0MCIgb3JpZW50PSJhdXRvIiBtYXJrZXJVbml0cz0idXNlclNwYWNlT25Vc2UiPjxwYXRoIHZpZXdCb3g9IjAgMCAxNSAxNSIgZD0iTSAxOCw3IEw5LDEzIEwxLDcgTDksMSBaIiBzdHlsZT0ic3Ryb2tlLXdpZHRoOiAwOyIvPjwvbWFya2VyPjwvZGVmcz48ZGVmcz48bWFya2VyIGlkPSJleHBvcnQtc3ZnX2NsYXNzLWNvbXBvc2l0aW9uRW5kLW1hcmdpbiIgY2xhc3M9Im1hcmtlciBjb21wb3NpdGlvbiBjbGFzcyIgcmVmWD0iMy41IiByZWZZPSI3IiBtYXJrZXJXaWR0aD0iMjAiIG1hcmtlckhlaWdodD0iMjgiIG9yaWVudD0iYXV0byIgbWFya2VyVW5pdHM9InVzZXJTcGFjZU9uVXNlIj48cGF0aCBkPSJNIDE4LDcgTDksMTMgTDEsNyBMOSwxIFoiIHN0eWxlPSJzdHJva2Utd2lkdGg6IDA7Ii8+PC9tYXJrZXI+PC9kZWZzPjxkZWZzPjxtYXJrZXIgaWQ9ImV4cG9ydC1zdmdfY2xhc3MtZGVwZW5kZW5jeVN0YXJ0IiBjbGFzcz0ibWFya2VyIGRlcGVuZGVuY3kgY2xhc3MiIHJlZlg9IjYiIHJlZlk9IjciIG1hcmtlcldpZHRoPSIxOTAiIG1hcmtlckhlaWdodD0iMjQwIiBvcmllbnQ9ImF1dG8iPjxwYXRoIGQ9Ik0gNSw3IEw5LDEzIEwxLDcgTDksMSBaIi8+PC9tYXJrZXI+PC9kZWZzPjxkZWZzPjxtYXJrZXIgaWQ9ImV4cG9ydC1zdmdfY2xhc3MtZGVwZW5kZW5jeUVuZCIgY2xhc3M9Im1hcmtlciBkZXBlbmRlbmN5IGNsYXNzIiByZWZYPSIxMyIgcmVmWT0iNyIgbWFya2VyV2lkdGg9IjIwIiBtYXJrZXJIZWlnaHQ9IjI4IiBvcmllbnQ9ImF1dG8iPjxwYXRoIGQ9Ik0gMTgsNyBMOSwxMyBMMTQsNyBMOSwxIFoiLz48L21hcmtlcj48L2RlZnM+PGRlZnM+PG1hcmtlciBpZD0iZXhwb3J0LXN2Z19jbGFzcy1kZXBlbmRlbmN5U3RhcnQtbWFyZ2luIiBjbGFzcz0ibWFya2VyIGRlcGVuZGVuY3kgY2xhc3MiIHJlZlg9IjQiIHJlZlk9IjciIG1hcmtlcldpZHRoPSIxOTAiIG1hcmtlckhlaWdodD0iMjQwIiBvcmllbnQ9ImF1dG8iIG1hcmtlclVuaXRzPSJ1c2VyU3BhY2VPblVzZSI+PHBhdGggZD0iTSA1LDcgTDksMTMgTDEsNyBMOSwxIFoiIHN0eWxlPSJzdHJva2Utd2lkdGg6IDA7Ii8+PC9tYXJrZXI+PC9kZWZzPjxkZWZzPjxtYXJrZXIgaWQ9ImV4cG9ydC1zdmdfY2xhc3MtZGVwZW5kZW5jeUVuZC1tYXJnaW4iIGNsYXNzPSJtYXJrZXIgZGVwZW5kZW5jeSBjbGFzcyIgcmVmWD0iMTYiIHJlZlk9IjciIG1hcmtlcldpZHRoPSIyMCIgbWFya2VySGVpZ2h0PSIyOCIgb3JpZW50PSJhdXRvIiBtYXJrZXJVbml0cz0idXNlclNwYWNlT25Vc2UiPjxwYXRoIGQ9Ik0gMTgsNyBMOSwxMyBMMTQsNyBMOSwxIFoiIHN0eWxlPSJzdHJva2Utd2lkdGg6IDA7Ii8+PC9tYXJrZXI+PC9kZWZzPjxkZWZzPjxtYXJrZXIgaWQ9ImV4cG9ydC1zdmdfY2xhc3MtbG9sbGlwb3BTdGFydCIgY2xhc3M9Im1hcmtlciBsb2xsaXBvcCBjbGFzcyIgcmVmWD0iMTMiIHJlZlk9IjciIG1hcmtlcldpZHRoPSIxOTAiIG1hcmtlckhlaWdodD0iMjQwIiBvcmllbnQ9ImF1dG8iPjxjaXJjbGUgZmlsbD0idHJhbnNwYXJlbnQiIGN4PSI3IiBjeT0iNyIgcj0iNiIvPjwvbWFya2VyPjwvZGVmcz48ZGVmcz48bWFya2VyIGlkPSJleHBvcnQtc3ZnX2NsYXNzLWxvbGxpcG9wRW5kIiBjbGFzcz0ibWFya2VyIGxvbGxpcG9wIGNsYXNzIiByZWZYPSIxIiByZWZZPSI3IiBtYXJrZXJXaWR0aD0iMTkwIiBtYXJrZXJIZWlnaHQ9IjI0MCIgb3JpZW50PSJhdXRvIj48Y2lyY2xlIGZpbGw9InRyYW5zcGFyZW50IiBjeD0iNyIgY3k9IjciIHI9IjYiLz48L21hcmtlcj48L2RlZnM+PGRlZnM+PG1hcmtlciBpZD0iZXhwb3J0LXN2Z19jbGFzcy1sb2xsaXBvcFN0YXJ0LW1hcmdpbiIgY2xhc3M9Im1hcmtlciBsb2xsaXBvcCBjbGFzcyIgcmVmWD0iMTMiIHJlZlk9IjciIG1hcmtlcldpZHRoPSIxOTAiIG1hcmtlckhlaWdodD0iMjQwIiBvcmllbnQ9ImF1dG8iIG1hcmtlclVuaXRzPSJ1c2VyU3BhY2VPblVzZSI+PGNpcmNsZSBmaWxsPSJ0cmFuc3BhcmVudCIgY3g9IjciIGN5PSI3IiByPSI2IiBzdHJva2Utd2lkdGg9IjIiLz48L21hcmtlcj48L2RlZnM+PGRlZnM+PG1hcmtlciBpZD0iZXhwb3J0LXN2Z19jbGFzcy1sb2xsaXBvcEVuZC1tYXJnaW4iIGNsYXNzPSJtYXJrZXIgbG9sbGlwb3AgY2xhc3MiIHJlZlg9IjEiIHJlZlk9IjciIG1hcmtlcldpZHRoPSIxOTAiIG1hcmtlckhlaWdodD0iMjQwIiBvcmllbnQ9ImF1dG8iIG1hcmtlclVuaXRzPSJ1c2VyU3BhY2VPblVzZSI+PGNpcmNsZSBmaWxsPSJ0cmFuc3BhcmVudCIgY3g9IjciIGN5PSI3IiByPSI2IiBzdHJva2Utd2lkdGg9IjIiLz48L21hcmtlcj48L2RlZnM+PGcgY2xhc3M9InJvb3QiPjxnIGNsYXNzPSJjbHVzdGVycyIvPjxnIGNsYXNzPSJlZGdlUGF0aHMiPjxwYXRoIGQ9Ik0xMTUzLjg4MjgxMjUsMjMzTDEwNzIuNjAyNTM5MTk0NCwyMzNRMTA2My45NDE0MDYyNSwyMzMgMTA2MS4wNTMxOTAxMTkyNTE3LDI0MS4xNjUzODAwNTYyMjg2OEw5NjQuOTU2NjMwMTM0ODkzOSw1MTIuODQzNDMyODIyMDI0OSIgaWQ9ImlkX1VzZXJFbnRpdHlfV2lzaExpc3RSZXBvc2l0b3J5XzEiIGNsYXNzPSJlZGdlLXRoaWNrbmVzcy1ub3JtYWwgZWRnZS1wYXR0ZXJuLXNvbGlkIHJlbGF0aW9uIiBzdHlsZT0ic3Ryb2tlLWRhc2hhcnJheTogMCAwIDM4NC43MDAxMDM3NTk3NjU2IDA7IHN0cm9rZS1kYXNob2Zmc2V0OiAwOzs7OyIgZGF0YS1lZGdlPSJ0cnVlIiBkYXRhLWV0PSJlZGdlIiBkYXRhLWlkPSJpZF9Vc2VyRW50aXR5X1dpc2hMaXN0UmVwb3NpdG9yeV8xIiBkYXRhLXBvaW50cz0iVzNzaWVDSTZNVEUxTXk0NE9ESTRNVEkxTENKNUlqb3lNek45TEhzaWVDSTZNVEEyTXk0NU5ERTBNRFl5TlN3aWVTSTZNak16ZlN4N0luZ2lPamsyTWk0NU5UVTRNVGd6TlRrek56VXNJbmtpT2pVeE9DNDFmVjA9IiBtYXJrZXItZW5kPSJ1cmwoI2V4cG9ydC1zdmdfY2xhc3MtZGVwZW5kZW5jeUVuZC1tYXJnaW4pIi8+PHBhdGggZD0iTTExMjYuMDgzOTg0Mzc1LDczM0wxMDYzLjk0MTQwNjI1LDczM0wxMDQ0Ljk0MTQwNjI1LDczMyIgaWQ9ImlkX1dpc2hMaXN0X1dpc2hMaXN0UmVwb3NpdG9yeV8yIiBjbGFzcz0iZWRnZS10aGlja25lc3Mtbm9ybWFsIGVkZ2UtcGF0dGVybi1zb2xpZCByZWxhdGlvbiIgc3R5bGU9InN0cm9rZS1kYXNoYXJyYXk6IDAgMCA4MS4xNDI1NzgxMjUgMDsgc3Ryb2tlLWRhc2hvZmZzZXQ6IDA7Ozs7IiBkYXRhLWVkZ2U9InRydWUiIGRhdGEtZXQ9ImVkZ2UiIGRhdGEtaWQ9ImlkX1dpc2hMaXN0X1dpc2hMaXN0UmVwb3NpdG9yeV8yIiBkYXRhLXBvaW50cz0iVzNzaWVDSTZNVEV5Tmk0d09ETTVPRFF6TnpVc0lua2lPamN6TTMwc2V5SjRJam94TURZekxqazBNVFF3TmpJMUxDSjVJam8zTXpOOUxIc2llQ0k2TVRBek9DNDVOREUwTURZeU5Td2llU0k2TnpNemZWMD0iIG1hcmtlci1lbmQ9InVybCgjZXhwb3J0LXN2Z19jbGFzcy1kZXBlbmRlbmN5RW5kLW1hcmdpbikiLz48cGF0aCBkPSJNMTA4OC45NDE0MDYyNSwxMjY0LjVMMTA3Mi40ODk1NDQyNDEwMzc1LDEyNjQuNVExMDYzLjk0MTQwNjI1LDEyNjQuNSAxMDYxLjI0MjQ5NTMxMzEzNzksMTI1Ni4zODkxMDk2MTMwNzU2TDk2MC4zNTM1NjYxMTc5MDM5LDk1My4xOTMwOTI3MzgxNTc5IiBpZD0iaWRfV2lzaExpc3RJdGVtX1dpc2hMaXN0UmVwb3NpdG9yeV8zIiBjbGFzcz0iZWRnZS10aGlja25lc3Mtbm9ybWFsIGVkZ2UtcGF0dGVybi1zb2xpZCByZWxhdGlvbiIgc3R5bGU9InN0cm9rZS1kYXNoYXJyYXk6IDAgMCAzNTAuOTgxNjI4NDE3OTY4NzUgMDsgc3Ryb2tlLWRhc2hvZmZzZXQ6IDA7Ozs7IiBkYXRhLWVkZ2U9InRydWUiIGRhdGEtZXQ9ImVkZ2UiIGRhdGEtaWQ9ImlkX1dpc2hMaXN0SXRlbV9XaXNoTGlzdFJlcG9zaXRvcnlfMyIgZGF0YS1wb2ludHM9Ilczc2llQ0k2TVRBNE9DNDVOREUwTURZeU5Td2llU0k2TVRJMk5DNDFmU3g3SW5naU9qRXdOak11T1RReE5EQTJNalVzSW5raU9qRXlOalF1Tlgwc2V5SjRJam81TlRndU5EVTVNVGd3T1Rjek5qVTVOU3dpZVNJNk9UUTNMalY5WFE9PSIgbWFya2VyLWVuZD0idXJsKCNleHBvcnQtc3ZnX2NsYXNzLWRlcGVuZGVuY3lFbmQtbWFyZ2luKSIvPjxwYXRoIGQ9Ik03MzUuMjI2NTYyNSw3MzNMNzEwLjIyNjU2MjUsNzMzTDY5MS4yMjY1NjI1LDczMyIgaWQ9ImlkX1dpc2hMaXN0UmVwb3NpdG9yeV9XaXNoTGlzdFNlcnZpY2VfNCIgY2xhc3M9ImVkZ2UtdGhpY2tuZXNzLW5vcm1hbCBlZGdlLXBhdHRlcm4tc29saWQgcmVsYXRpb24iIHN0eWxlPSJzdHJva2UtZGFzaGFycmF5OiAwIDAgNDQgMDsgc3Ryb2tlLWRhc2hvZmZzZXQ6IDA7Ozs7IiBkYXRhLWVkZ2U9InRydWUiIGRhdGEtZXQ9ImVkZ2UiIGRhdGEtaWQ9ImlkX1dpc2hMaXN0UmVwb3NpdG9yeV9XaXNoTGlzdFNlcnZpY2VfNCIgZGF0YS1wb2ludHM9Ilczc2llQ0k2TnpNMUxqSXlOalUyTWpVc0lua2lPamN6TTMwc2V5SjRJam8zTVRBdU1qSTJOVFl5TlN3aWVTSTZOek16ZlN4N0luZ2lPalk0TlM0eU1qWTFOakkxTENKNUlqbzNNek45WFE9PSIgbWFya2VyLWVuZD0idXJsKCNleHBvcnQtc3ZnX2NsYXNzLWRlcGVuZGVuY3lFbmQtbWFyZ2luKSIvPjxwYXRoIGQ9Ik0zNjYuMzU1NDY4NzUsNzMzTDM0MS4zNTU0Njg3NSw3MzNMMzIyLjM1NTQ2ODc1LDczMyIgaWQ9ImlkX1dpc2hMaXN0U2VydmljZV9XaXNoTGlzdENvbnRyb2xsZXJfNSIgY2xhc3M9ImVkZ2UtdGhpY2tuZXNzLW5vcm1hbCBlZGdlLXBhdHRlcm4tc29saWQgcmVsYXRpb24iIHN0eWxlPSJzdHJva2UtZGFzaGFycmF5OiAwIDAgNDQgMDsgc3Ryb2tlLWRhc2hvZmZzZXQ6IDA7Ozs7IiBkYXRhLWVkZ2U9InRydWUiIGRhdGEtZXQ9ImVkZ2UiIGRhdGEtaWQ9ImlkX1dpc2hMaXN0U2VydmljZV9XaXNoTGlzdENvbnRyb2xsZXJfNSIgZGF0YS1wb2ludHM9Ilczc2llQ0k2TXpZMkxqTTFOVFEyT0RjMUxDSjVJam8zTXpOOUxIc2llQ0k2TXpReExqTTFOVFEyT0RjMUxDSjVJam8zTXpOOUxIc2llQ0k2TXpFMkxqTTFOVFEyT0RjMUxDSjVJam8zTXpOOVhRPT0iIG1hcmtlci1lbmQ9InVybCgjZXhwb3J0LXN2Z19jbGFzcy1kZXBlbmRlbmN5RW5kLW1hcmdpbikiLz48L2c+PGcgY2xhc3M9ImVkZ2VMYWJlbHMiPjxnIGNsYXNzPSJlZGdlTGFiZWwiPjxnIGNsYXNzPSJsYWJlbCIgZGF0YS1pZD0iaWRfVXNlckVudGl0eV9XaXNoTGlzdFJlcG9zaXRvcnlfMSIgdHJhbnNmb3JtPSJ0cmFuc2xhdGUoMCwgLTEwLjUpIj48Zm9yZWlnbk9iamVjdCB3aWR0aD0iMCIgaGVpZ2h0PSIyMSI+PGRpdiB4bWxucz0iaHR0cDovL3d3dy53My5vcmcvMTk5OS94aHRtbCIgc3R5bGU9ImRpc3BsYXk6IHRhYmxlLWNlbGw7IHdoaXRlLXNwYWNlOiBub3JtYWw7IGxpbmUtaGVpZ2h0OiAxLjU7IG1heC13aWR0aDogMjAwcHg7IHRleHQtYWxpZ246IGNlbnRlcjsiIGNsYXNzPSJsYWJlbEJrZyI+PHNwYW4gc3R5bGU9IjtkaXNwbGF5OiBpbmxpbmUtYmxvY2siIGNsYXNzPSJlZGdlTGFiZWwiPjwvc3Bhbj48L2Rpdj48L2ZvcmVpZ25PYmplY3Q+PC9nPjwvZz48ZyBjbGFzcz0iZWRnZUxhYmVsIj48ZyBjbGFzcz0ibGFiZWwiIGRhdGEtaWQ9ImlkX1dpc2hMaXN0X1dpc2hMaXN0UmVwb3NpdG9yeV8yIiB0cmFuc2Zvcm09InRyYW5zbGF0ZSgwLCAtMTAuNSkiPjxmb3JlaWduT2JqZWN0IHdpZHRoPSIwIiBoZWlnaHQ9IjIxIj48ZGl2IHhtbG5zPSJodHRwOi8vd3d3LnczLm9yZy8xOTk5L3hodG1sIiBzdHlsZT0iZGlzcGxheTogdGFibGUtY2VsbDsgd2hpdGUtc3BhY2U6IG5vcm1hbDsgbGluZS1oZWlnaHQ6IDEuNTsgbWF4LXdpZHRoOiAyMDBweDsgdGV4dC1hbGlnbjogY2VudGVyOyIgY2xhc3M9ImxhYmVsQmtnIj48c3BhbiBzdHlsZT0iO2Rpc3BsYXk6IGlubGluZS1ibG9jayIgY2xhc3M9ImVkZ2VMYWJlbCI+PC9zcGFuPjwvZGl2PjwvZm9yZWlnbk9iamVjdD48L2c+PC9nPjxnIGNsYXNzPSJlZGdlTGFiZWwiPjxnIGNsYXNzPSJsYWJlbCIgZGF0YS1pZD0iaWRfV2lzaExpc3RJdGVtX1dpc2hMaXN0UmVwb3NpdG9yeV8zIiB0cmFuc2Zvcm09InRyYW5zbGF0ZSgwLCAtMTAuNSkiPjxmb3JlaWduT2JqZWN0IHdpZHRoPSIwIiBoZWlnaHQ9IjIxIj48ZGl2IHhtbG5zPSJodHRwOi8vd3d3LnczLm9yZy8xOTk5L3hodG1sIiBzdHlsZT0iZGlzcGxheTogdGFibGUtY2VsbDsgd2hpdGUtc3BhY2U6IG5vcm1hbDsgbGluZS1oZWlnaHQ6IDEuNTsgbWF4LXdpZHRoOiAyMDBweDsgdGV4dC1hbGlnbjogY2VudGVyOyIgY2xhc3M9ImxhYmVsQmtnIj48c3BhbiBzdHlsZT0iO2Rpc3BsYXk6IGlubGluZS1ibG9jayIgY2xhc3M9ImVkZ2VMYWJlbCI+PC9zcGFuPjwvZGl2PjwvZm9yZWlnbk9iamVjdD48L2c+PC9nPjxnIGNsYXNzPSJlZGdlTGFiZWwiPjxnIGNsYXNzPSJsYWJlbCIgZGF0YS1pZD0iaWRfV2lzaExpc3RSZXBvc2l0b3J5X1dpc2hMaXN0U2VydmljZV80IiB0cmFuc2Zvcm09InRyYW5zbGF0ZSgwLCAtMTAuNSkiPjxmb3JlaWduT2JqZWN0IHdpZHRoPSIwIiBoZWlnaHQ9IjIxIj48ZGl2IHhtbG5zPSJodHRwOi8vd3d3LnczLm9yZy8xOTk5L3hodG1sIiBzdHlsZT0iZGlzcGxheTogdGFibGUtY2VsbDsgd2hpdGUtc3BhY2U6IG5vcm1hbDsgbGluZS1oZWlnaHQ6IDEuNTsgbWF4LXdpZHRoOiAyMDBweDsgdGV4dC1hbGlnbjogY2VudGVyOyIgY2xhc3M9ImxhYmVsQmtnIj48c3BhbiBzdHlsZT0iO2Rpc3BsYXk6IGlubGluZS1ibG9jayIgY2xhc3M9ImVkZ2VMYWJlbCI+PC9zcGFuPjwvZGl2PjwvZm9yZWlnbk9iamVjdD48L2c+PC9nPjxnIGNsYXNzPSJlZGdlTGFiZWwiPjxnIGNsYXNzPSJsYWJlbCIgZGF0YS1pZD0iaWRfV2lzaExpc3RTZXJ2aWNlX1dpc2hMaXN0Q29udHJvbGxlcl81IiB0cmFuc2Zvcm09InRyYW5zbGF0ZSgwLCAtMTAuNSkiPjxmb3JlaWduT2JqZWN0IHdpZHRoPSIwIiBoZWlnaHQ9IjIxIj48ZGl2IHhtbG5zPSJodHRwOi8vd3d3LnczLm9yZy8xOTk5L3hodG1sIiBzdHlsZT0iZGlzcGxheTogdGFibGUtY2VsbDsgd2hpdGUtc3BhY2U6IG5vcm1hbDsgbGluZS1oZWlnaHQ6IDEuNTsgbWF4LXdpZHRoOiAyMDBweDsgdGV4dC1hbGlnbjogY2VudGVyOyIgY2xhc3M9ImxhYmVsQmtnIj48c3BhbiBzdHlsZT0iO2Rpc3BsYXk6IGlubGluZS1ibG9jayIgY2xhc3M9ImVkZ2VMYWJlbCI+PC9zcGFuPjwvZGl2PjwvZm9yZWlnbk9iamVjdD48L2c+PC9nPjwvZz48ZyBjbGFzcz0ibm9kZXMiPjxnIGNsYXNzPSJub2RlIGRlZmF1bHQiIGlkPSJjbGFzc0lkLVVzZXJFbnRpdHktMTgiIGRhdGEtaWQ9IlVzZXJFbnRpdHkiIGRhdGEtbm9kZT0idHJ1ZSIgZGF0YS1ldD0ibm9kZSIgZGF0YS1sb29rPSJuZW8iIHRyYW5zZm9ybT0idHJhbnNsYXRlKDEzNzQuNDAyMzQzNzUsIDIzMykiPjxnIGNsYXNzPSJiYXNpYyBsYWJlbC1jb250YWluZXIgb3V0ZXItcGF0aCI+PHBhdGggZD0iTS0yMjAuNTE5NTMxMjUgLTIyNSBMMjIwLjUxOTUzMTI1IC0yMjUgTDIyMC41MTk1MzEyNSAyMjUgTC0yMjAuNTE5NTMxMjUgMjI1IiBzdHJva2U9Im5vbmUiIHN0cm9rZS13aWR0aD0iMCIgZmlsbD0iI2ZmZmZmZiIgc3R5bGU9IiIvPjxwYXRoIGQ9Ik0tMjIwLjUxOTUzMTI1IC0yMjUgQy05MC40Njk1MTAzOTU2MDk2MyAtMjI1LCAzOS41ODA1MTA0NTg3ODA3MzYgLTIyNSwgMjIwLjUxOTUzMTI1IC0yMjUgTS0yMjAuNTE5NTMxMjUgLTIyNSBDLTEyMC4wNDQ5MzQxODY4OTAxNyAtMjI1LCAtMTkuNTcwMzM3MTIzNzgwMzQ4IC0yMjUsIDIyMC41MTk1MzEyNSAtMjI1IE0yMjAuNTE5NTMxMjUgLTIyNSBDMjIwLjUxOTUzMTI1IC04NC40MTIxNDI5NDM4NTgwNCwgMjIwLjUxOTUzMTI1IDU2LjE3NTcxNDExMjI4MzkxLCAyMjAuNTE5NTMxMjUgMjI1IE0yMjAuNTE5NTMxMjUgLTIyNSBDMjIwLjUxOTUzMTI1IC0xMDAuODQwNjk5ODI3NDM5OTgsIDIyMC41MTk1MzEyNSAyMy4zMTg2MDAzNDUxMjAwNDYsIDIyMC41MTk1MzEyNSAyMjUgTTIyMC41MTk1MzEyNSAyMjUgQzEwNC4zMDM5ODkwMzIzMzc4NCAyMjUsIC0xMS45MTE1NTMxODUzMjQzMjMgMjI1LCAtMjIwLjUxOTUzMTI1IDIyNSBNMjIwLjUxOTUzMTI1IDIyNSBDMTIyLjM5OTk5NDkyMDY1OTI0IDIyNSwgMjQuMjgwNDU4NTkxMzE4NDc4IDIyNSwgLTIyMC41MTk1MzEyNSAyMjUgTS0yMjAuNTE5NTMxMjUgMjI1IEMtMjIwLjUxOTUzMTI1IDEwMS41MDE3MDc0ODYwNTU1LCAtMjIwLjUxOTUzMTI1IC0yMS45OTY1ODUwMjc4ODkwMSwgLTIyMC41MTk1MzEyNSAtMjI1IE0tMjIwLjUxOTUzMTI1IDIyNSBDLTIyMC41MTk1MzEyNSA0OS44NjY2OTU5NDUzMzg2MiwgLTIyMC41MTk1MzEyNSAtMTI1LjI2NjYwODEwOTMyMjc2LCAtMjIwLjUxOTUzMTI1IC0yMjUiIHN0cm9rZT0iIzAwMDAwMCIgc3Ryb2tlLXdpZHRoPSIxLjMiIGZpbGw9Im5vbmUiIHN0eWxlPSIiLz48L2c+PGcgY2xhc3M9ImFubm90YXRpb24tZ3JvdXAgdGV4dCIgdHJhbnNmb3JtPSJ0cmFuc2xhdGUoMCwgLTIwMSkiLz48ZyBjbGFzcz0ibGFiZWwtZ3JvdXAgdGV4dCIgdHJhbnNmb3JtPSJ0cmFuc2xhdGUoLTMyLjI4OTA2MjUsIC0yMDEpIj48ZyBjbGFzcz0ibGFiZWwiIHN0eWxlPSJmb250LXdlaWdodDogYm9sZGVyIiB0cmFuc2Zvcm09InRyYW5zbGF0ZSgwLC0xMC41KSI+PGZvcmVpZ25PYmplY3Qgd2lkdGg9IjY0LjU3ODEyNSIgaGVpZ2h0PSIyMSI+PGRpdiB4bWxucz0iaHR0cDovL3d3dy53My5vcmcvMTk5OS94aHRtbCIgc3R5bGU9ImRpc3BsYXk6IHRhYmxlLWNlbGw7IHdoaXRlLXNwYWNlOiBub3JtYWw7IGxpbmUtaGVpZ2h0OiAxLjU7IG1heC13aWR0aDogMTM1cHg7IHRleHQtYWxpZ246IGNlbnRlcjsiPjxzcGFuIGNsYXNzPSJub2RlTGFiZWwgbWFya2Rvd24tbm9kZS1sYWJlbCIgc3R5bGU9IiI+PHA+VXNlckVudGl0eTwvcD48L3NwYW4+PC9kaXY+PC9mb3JlaWduT2JqZWN0PjwvZz48L2c+PGcgY2xhc3M9Im1lbWJlcnMtZ3JvdXAgdGV4dCIgdHJhbnNmb3JtPSJ0cmFuc2xhdGUoLTIwOC41MTk1MzEyNSwgLTE1NikiPjxnIGNsYXNzPSJsYWJlbCIgc3R5bGU9IiIgdHJhbnNmb3JtPSJ0cmFuc2xhdGUoMCwtMTAuNSkiPjxmb3JlaWduT2JqZWN0IHdpZHRoPSIxMDcuMzgyODEyNSIgaGVpZ2h0PSIyMSI+PGRpdiB4bWxucz0iaHR0cDovL3d3dy53My5vcmcvMTk5OS94aHRtbCIgc3R5bGU9ImRpc3BsYXk6IHRhYmxlLWNlbGw7IHdoaXRlLXNwYWNlOiBub3JtYWw7IGxpbmUtaGVpZ2h0OiAxLjU7IG1heC13aWR0aDogMTk5cHg7IHRleHQtYWxpZ246IGNlbnRlcjsiPjxzcGFuIGNsYXNzPSJub2RlTGFiZWwgbWFya2Rvd24tbm9kZS1sYWJlbCIgc3R5bGU9IiI+PHA+LVN0cmluZyB1c2VybmFtZTwvcD48L3NwYW4+PC9kaXY+PC9mb3JlaWduT2JqZWN0PjwvZz48ZyBjbGFzcz0ibGFiZWwiIHN0eWxlPSIiIHRyYW5zZm9ybT0idHJhbnNsYXRlKDAsMTAuNSkiPjxmb3JlaWduT2JqZWN0IHdpZHRoPSIxMDUuMDQ2ODc1IiBoZWlnaHQ9IjIxIj48ZGl2IHhtbG5zPSJodHRwOi8vd3d3LnczLm9yZy8xOTk5L3hodG1sIiBzdHlsZT0iZGlzcGxheTogdGFibGUtY2VsbDsgd2hpdGUtc3BhY2U6IG5vcm1hbDsgbGluZS1oZWlnaHQ6IDEuNTsgbWF4LXdpZHRoOiAxOTdweDsgdGV4dC1hbGlnbjogY2VudGVyOyI+PHNwYW4gY2xhc3M9Im5vZGVMYWJlbCBtYXJrZG93bi1ub2RlLWxhYmVsIiBzdHlsZT0iIj48cD4tU3RyaW5nIHBhc3N3b3JkPC9wPjwvc3Bhbj48L2Rpdj48L2ZvcmVpZ25PYmplY3Q+PC9nPjxnIGNsYXNzPSJsYWJlbCIgc3R5bGU9IiIgdHJhbnNmb3JtPSJ0cmFuc2xhdGUoMCwzMS41KSI+PGZvcmVpZ25PYmplY3Qgd2lkdGg9Ijc4LjU4NTkzNzUiIGhlaWdodD0iMjEiPjxkaXYgeG1sbnM9Imh0dHA6Ly93d3cudzMub3JnLzE5OTkveGh0bWwiIHN0eWxlPSJkaXNwbGF5OiB0YWJsZS1jZWxsOyB3aGl0ZS1zcGFjZTogbm9ybWFsOyBsaW5lLWhlaWdodDogMS41OyBtYXgtd2lkdGg6IDE2NXB4OyB0ZXh0LWFsaWduOiBjZW50ZXI7Ij48c3BhbiBjbGFzcz0ibm9kZUxhYmVsIG1hcmtkb3duLW5vZGUtbGFiZWwiIHN0eWxlPSIiPjxwPi1TdHJpbmcgZW1haWw8L3A+PC9zcGFuPjwvZGl2PjwvZm9yZWlnbk9iamVjdD48L2c+PGcgY2xhc3M9ImxhYmVsIiBzdHlsZT0iIiB0cmFuc2Zvcm09InRyYW5zbGF0ZSgwLDUyLjUpIj48Zm9yZWlnbk9iamVjdCB3aWR0aD0iNjIuMjUiIGhlaWdodD0iMjEiPjxkaXYgeG1sbnM9Imh0dHA6Ly93d3cudzMub3JnLzE5OTkveGh0bWwiIHN0eWxlPSJkaXNwbGF5OiB0YWJsZS1jZWxsOyB3aGl0ZS1zcGFjZTogbm9ybWFsOyBsaW5lLWhlaWdodDogMS41OyBtYXgtd2lkdGg6IDE0N3B4OyB0ZXh0LWFsaWduOiBjZW50ZXI7Ij48c3BhbiBjbGFzcz0ibm9kZUxhYmVsIG1hcmtkb3duLW5vZGUtbGFiZWwiIHN0eWxlPSIiPjxwPi1pbnQgdXNlcklkPC9wPjwvc3Bhbj48L2Rpdj48L2ZvcmVpZ25PYmplY3Q+PC9nPjxnIGNsYXNzPSJsYWJlbCIgc3R5bGU9IiIgdHJhbnNmb3JtPSJ0cmFuc2xhdGUoMCw3My41KSI+PGZvcmVpZ25PYmplY3Qgd2lkdGg9IjEwNy4zNTkzNzUiIGhlaWdodD0iMjEiPjxkaXYgeG1sbnM9Imh0dHA6Ly93d3cudzMub3JnLzE5OTkveGh0bWwiIHN0eWxlPSJkaXNwbGF5OiB0YWJsZS1jZWxsOyB3aGl0ZS1zcGFjZTogbm9ybWFsOyBsaW5lLWhlaWdodDogMS41OyBtYXgtd2lkdGg6IDIwOXB4OyB0ZXh0LWFsaWduOiBjZW50ZXI7Ij48c3BhbiBjbGFzcz0ibm9kZUxhYmVsIG1hcmtkb3duLW5vZGUtbGFiZWwiIHN0eWxlPSIiPjxwPi1MaXN0IHdpc2hMaXN0SXRlbTwvcD48L3NwYW4+PC9kaXY+PC9mb3JlaWduT2JqZWN0PjwvZz48L2c+PGcgY2xhc3M9Im1ldGhvZHMtZ3JvdXAgdGV4dCIgdHJhbnNmb3JtPSJ0cmFuc2xhdGUoLTIwOC41MTk1MzEyNSwgLTI3KSI+PGcgY2xhc3M9ImxhYmVsIiBzdHlsZT0iIiB0cmFuc2Zvcm09InRyYW5zbGF0ZSgwLC0xMC41KSI+PGZvcmVpZ25PYmplY3Qgd2lkdGg9IjgyLjA3ODEyNSIgaGVpZ2h0PSIyMSI+PGRpdiB4bWxucz0iaHR0cDovL3d3dy53My5vcmcvMTk5OS94aHRtbCIgc3R5bGU9ImRpc3BsYXk6IHRhYmxlLWNlbGw7IHdoaXRlLXNwYWNlOiBub3JtYWw7IGxpbmUtaGVpZ2h0OiAxLjU7IG1heC13aWR0aDogMTY3cHg7IHRleHQtYWxpZ246IGNlbnRlcjsiPjxzcGFuIGNsYXNzPSJub2RlTGFiZWwgbWFya2Rvd24tbm9kZS1sYWJlbCIgc3R5bGU9IiI+PHA+K1VzZXJFbnRpdHkoKTwvcD48L3NwYW4+PC9kaXY+PC9mb3JlaWduT2JqZWN0PjwvZz48ZyBjbGFzcz0ibGFiZWwiIHN0eWxlPSIiIHRyYW5zZm9ybT0idHJhbnNsYXRlKDAsMTAuNSkiPjxmb3JlaWduT2JqZWN0IHdpZHRoPSIzODQuNzUiIGhlaWdodD0iMjEiPjxkaXYgeG1sbnM9Imh0dHA6Ly93d3cudzMub3JnLzE5OTkveGh0bWwiIHN0eWxlPSJkaXNwbGF5OiB0YWJsZS1jZWxsOyB3aGl0ZS1zcGFjZTogbm9ybWFsOyBsaW5lLWhlaWdodDogMS41OyBtYXgtd2lkdGg6IDU2MHB4OyB0ZXh0LWFsaWduOiBjZW50ZXI7Ij48c3BhbiBjbGFzcz0ibm9kZUxhYmVsIG1hcmtkb3duLW5vZGUtbGFiZWwiIHN0eWxlPSIiPjxwPitVc2VyRW50aXR5KHVzZXJuYW1lLCBwYXNzd29yZCwgZW1haWwsIHVzZXJJZCwgd2lzaExpc3RJdGVtKTwvcD48L3NwYW4+PC9kaXY+PC9mb3JlaWduT2JqZWN0PjwvZz48ZyBjbGFzcz0ibGFiZWwiIHN0eWxlPSIiIHRyYW5zZm9ybT0idHJhbnNsYXRlKDAsMzEuNSkiPjxmb3JlaWduT2JqZWN0IHdpZHRoPSIxMDEuNTQ2ODc1IiBoZWlnaHQ9IjIxIj48ZGl2IHhtbG5zPSJodHRwOi8vd3d3LnczLm9yZy8xOTk5L3hodG1sIiBzdHlsZT0iZGlzcGxheTogdGFibGUtY2VsbDsgd2hpdGUtc3BhY2U6IG5vcm1hbDsgbGluZS1oZWlnaHQ6IDEuNTsgbWF4LXdpZHRoOiAxODdweDsgdGV4dC1hbGlnbjogY2VudGVyOyI+PHNwYW4gY2xhc3M9Im5vZGVMYWJlbCBtYXJrZG93bi1ub2RlLWxhYmVsIiBzdHlsZT0iIj48cD4rZ2V0VXNlcm5hbWUoKTwvcD48L3NwYW4+PC9kaXY+PC9mb3JlaWduT2JqZWN0PjwvZz48ZyBjbGFzcz0ibGFiZWwiIHN0eWxlPSIiIHRyYW5zZm9ybT0idHJhbnNsYXRlKDAsNTIuNSkiPjxmb3JlaWduT2JqZWN0IHdpZHRoPSI5OC40Mzc1IiBoZWlnaHQ9IjIxIj48ZGl2IHhtbG5zPSJodHRwOi8vd3d3LnczLm9yZy8xOTk5L3hodG1sIiBzdHlsZT0iZGlzcGxheTogdGFibGUtY2VsbDsgd2hpdGUtc3BhY2U6IG5vcm1hbDsgbGluZS1oZWlnaHQ6IDEuNTsgbWF4LXdpZHRoOiAxODRweDsgdGV4dC1hbGlnbjogY2VudGVyOyI+PHNwYW4gY2xhc3M9Im5vZGVMYWJlbCBtYXJrZG93bi1ub2RlLWxhYmVsIiBzdHlsZT0iIj48cD4rZ2V0UGFzc3dvcmQoKTwvcD48L3NwYW4+PC9kaXY+PC9mb3JlaWduT2JqZWN0PjwvZz48ZyBjbGFzcz0ibGFiZWwiIHN0eWxlPSIiIHRyYW5zZm9ybT0idHJhbnNsYXRlKDAsNzMuNSkiPjxmb3JlaWduT2JqZWN0IHdpZHRoPSI3MS45Njg3NSIgaGVpZ2h0PSIyMSI+PGRpdiB4bWxucz0iaHR0cDovL3d3dy53My5vcmcvMTk5OS94aHRtbCIgc3R5bGU9ImRpc3BsYXk6IHRhYmxlLWNlbGw7IHdoaXRlLXNwYWNlOiBub3JtYWw7IGxpbmUtaGVpZ2h0OiAxLjU7IG1heC13aWR0aDogMTUycHg7IHRleHQtYWxpZ246IGNlbnRlcjsiPjxzcGFuIGNsYXNzPSJub2RlTGFiZWwgbWFya2Rvd24tbm9kZS1sYWJlbCIgc3R5bGU9IiI+PHA+K2dldEVtYWlsKCk8L3A+PC9zcGFuPjwvZGl2PjwvZm9yZWlnbk9iamVjdD48L2c+PGcgY2xhc3M9ImxhYmVsIiBzdHlsZT0iIiB0cmFuc2Zvcm09InRyYW5zbGF0ZSgwLDk0LjUpIj48Zm9yZWlnbk9iamVjdCB3aWR0aD0iNzguMjAzMTI1IiBoZWlnaHQ9IjIxIj48ZGl2IHhtbG5zPSJodHRwOi8vd3d3LnczLm9yZy8xOTk5L3hodG1sIiBzdHlsZT0iZGlzcGxheTogdGFibGUtY2VsbDsgd2hpdGUtc3BhY2U6IG5vcm1hbDsgbGluZS1oZWlnaHQ6IDEuNTsgbWF4LXdpZHRoOiAxNjJweDsgdGV4dC1hbGlnbjogY2VudGVyOyI+PHNwYW4gY2xhc3M9Im5vZGVMYWJlbCBtYXJrZG93bi1ub2RlLWxhYmVsIiBzdHlsZT0iIj48cD4rZ2V0VXNlcklkKCk8L3A+PC9zcGFuPjwvZGl2PjwvZm9yZWlnbk9iamVjdD48L2c+PGcgY2xhc3M9ImxhYmVsIiBzdHlsZT0iIiB0cmFuc2Zvcm09InRyYW5zbGF0ZSgwLDExNS41KSI+PGZvcmVpZ25PYmplY3Qgd2lkdGg9IjExNy4wODU5Mzc1IiBoZWlnaHQ9IjIxIj48ZGl2IHhtbG5zPSJodHRwOi8vd3d3LnczLm9yZy8xOTk5L3hodG1sIiBzdHlsZT0iZGlzcGxheTogdGFibGUtY2VsbDsgd2hpdGUtc3BhY2U6IG5vcm1hbDsgbGluZS1oZWlnaHQ6IDEuNTsgbWF4LXdpZHRoOiAyMThweDsgdGV4dC1hbGlnbjogY2VudGVyOyI+PHNwYW4gY2xhc3M9Im5vZGVMYWJlbCBtYXJrZG93bi1ub2RlLWxhYmVsIiBzdHlsZT0iIj48cD4rZ2V0V2lzaExpc3RJdGVtKCk8L3A+PC9zcGFuPjwvZGl2PjwvZm9yZWlnbk9iamVjdD48L2c+PGcgY2xhc3M9ImxhYmVsIiBzdHlsZT0iIiB0cmFuc2Zvcm09InRyYW5zbGF0ZSgwLDEzNi41KSI+PGZvcmVpZ25PYmplY3Qgd2lkdGg9IjEwMC43NTc4MTI1IiBoZWlnaHQ9IjIxIj48ZGl2IHhtbG5zPSJodHRwOi8vd3d3LnczLm9yZy8xOTk5L3hodG1sIiBzdHlsZT0iZGlzcGxheTogdGFibGUtY2VsbDsgd2hpdGUtc3BhY2U6IG5vcm1hbDsgbGluZS1oZWlnaHQ6IDEuNTsgbWF4LXdpZHRoOiAxODdweDsgdGV4dC1hbGlnbjogY2VudGVyOyI+PHNwYW4gY2xhc3M9Im5vZGVMYWJlbCBtYXJrZG93bi1ub2RlLWxhYmVsIiBzdHlsZT0iIj48cD4rc2V0VXNlcm5hbWUoKTwvcD48L3NwYW4+PC9kaXY+PC9mb3JlaWduT2JqZWN0PjwvZz48ZyBjbGFzcz0ibGFiZWwiIHN0eWxlPSIiIHRyYW5zZm9ybT0idHJhbnNsYXRlKDAsMTU3LjUpIj48Zm9yZWlnbk9iamVjdCB3aWR0aD0iOTcuNjQ4NDM3NSIgaGVpZ2h0PSIyMSI+PGRpdiB4bWxucz0iaHR0cDovL3d3dy53My5vcmcvMTk5OS94aHRtbCIgc3R5bGU9ImRpc3BsYXk6IHRhYmxlLWNlbGw7IHdoaXRlLXNwYWNlOiBub3JtYWw7IGxpbmUtaGVpZ2h0OiAxLjU7IG1heC13aWR0aDogMTgzcHg7IHRleHQtYWxpZ246IGNlbnRlcjsiPjxzcGFuIGNsYXNzPSJub2RlTGFiZWwgbWFya2Rvd24tbm9kZS1sYWJlbCIgc3R5bGU9IiI+PHA+K3NldFBhc3N3b3JkKCk8L3A+PC9zcGFuPjwvZGl2PjwvZm9yZWlnbk9iamVjdD48L2c+PGcgY2xhc3M9ImxhYmVsIiBzdHlsZT0iIiB0cmFuc2Zvcm09InRyYW5zbGF0ZSgwLDE3OC41KSI+PGZvcmVpZ25PYmplY3Qgd2lkdGg9IjcxLjE4NzUiIGhlaWdodD0iMjEiPjxkaXYgeG1sbnM9Imh0dHA6Ly93d3cudzMub3JnLzE5OTkveGh0bWwiIHN0eWxlPSJkaXNwbGF5OiB0YWJsZS1jZWxsOyB3aGl0ZS1zcGFjZTogbm9ybWFsOyBsaW5lLWhlaWdodDogMS41OyBtYXgtd2lkdGg6IDE1MXB4OyB0ZXh0LWFsaWduOiBjZW50ZXI7Ij48c3BhbiBjbGFzcz0ibm9kZUxhYmVsIG1hcmtkb3duLW5vZGUtbGFiZWwiIHN0eWxlPSIiPjxwPitzZXRFbWFpbCgpPC9wPjwvc3Bhbj48L2Rpdj48L2ZvcmVpZ25PYmplY3Q+PC9nPjxnIGNsYXNzPSJsYWJlbCIgc3R5bGU9IiIgdHJhbnNmb3JtPSJ0cmFuc2xhdGUoMCwxOTkuNSkiPjxmb3JlaWduT2JqZWN0IHdpZHRoPSI3Ny40MTQwNjI1IiBoZWlnaHQ9IjIxIj48ZGl2IHhtbG5zPSJodHRwOi8vd3d3LnczLm9yZy8xOTk5L3hodG1sIiBzdHlsZT0iZGlzcGxheTogdGFibGUtY2VsbDsgd2hpdGUtc3BhY2U6IG5vcm1hbDsgbGluZS1oZWlnaHQ6IDEuNTsgbWF4LXdpZHRoOiAxNjFweDsgdGV4dC1hbGlnbjogY2VudGVyOyI+PHNwYW4gY2xhc3M9Im5vZGVMYWJlbCBtYXJrZG93bi1ub2RlLWxhYmVsIiBzdHlsZT0iIj48cD4rc2V0VXNlcklkKCk8L3A+PC9zcGFuPjwvZGl2PjwvZm9yZWlnbk9iamVjdD48L2c+PGcgY2xhc3M9ImxhYmVsIiBzdHlsZT0iIiB0cmFuc2Zvcm09InRyYW5zbGF0ZSgwLDIyMC41KSI+PGZvcmVpZ25PYmplY3Qgd2lkdGg9IjExNi4zMDQ2ODc1IiBoZWlnaHQ9IjIxIj48ZGl2IHhtbG5zPSJodHRwOi8vd3d3LnczLm9yZy8xOTk5L3hodG1sIiBzdHlsZT0iZGlzcGxheTogdGFibGUtY2VsbDsgd2hpdGUtc3BhY2U6IG5vcm1hbDsgbGluZS1oZWlnaHQ6IDEuNTsgbWF4LXdpZHRoOiAyMTdweDsgdGV4dC1hbGlnbjogY2VudGVyOyI+PHNwYW4gY2xhc3M9Im5vZGVMYWJlbCBtYXJrZG93bi1ub2RlLWxhYmVsIiBzdHlsZT0iIj48cD4rc2V0V2lzaExpc3RJdGVtKCk8L3A+PC9zcGFuPjwvZGl2PjwvZm9yZWlnbk9iamVjdD48L2c+PC9nPjxnIGNsYXNzPSJkaXZpZGVyIiBzdHlsZT0iIj48cGF0aCBkPSJNLTIyMC41MTk1MzEyNSAtMTgwIEMtMTAwLjM5MzE3NzcyNDE1ODg5IC0xNzkuOTk5NzI3NjI4NzY2MzgsIDE5LjczMzE3NTgwMTY4MjIyMiAtMTc5Ljk5OTQ1NTI1NzUzMjc2LCAyMjAuNTE5NTMxMjUgLTE3OS45OTkgTS0yMjAuNTE5NTMxMjUgLTE4MCBDLTgyLjI4Mzc2MTgxMDAwMjYzIC0xNzkuOTk5Njg2NTY3OTY4MjQsIDU1Ljk1MjAwNzYyOTk5NDc0IC0xNzkuOTk5MzczMTM1OTM2NSwgMjIwLjUxOTUzMTI1IC0xNzkuOTk5IiBzdHJva2U9IiMwMDAwMDAiIHN0cm9rZS13aWR0aD0iMS4zIiBmaWxsPSJub25lIiBzdHlsZT0iIi8+PC9nPjxnIGNsYXNzPSJkaXZpZGVyIiBzdHlsZT0iIj48cGF0aCBkPSJNLTIyMC41MTk1MzEyNSAtNTEgQy0xMDIuMDkwMDE3OTE3ODY4NzQgLTUwLjk5OTczMTQ3NjEzNTc4NiwgMTYuMzM5NDk1NDE0MjYyNTMgLTUwLjk5OTQ2Mjk1MjI3MTU3LCAyMjAuNTE5NTMxMjUgLTUwLjk5OSBNLTIyMC41MTk1MzEyNSAtNTEgQy0xMzAuNDMyODYxNDIzMzA4OCAtNTAuOTk5Nzk1NzM5OTI5ODk0LCAtNDAuMzQ2MTkxNTk2NjE3NTYgLTUwLjk5OTU5MTQ3OTg1OTc5LCAyMjAuNTE5NTMxMjUgLTUwLjk5OSIgc3Ryb2tlPSIjMDAwMDAwIiBzdHJva2Utd2lkdGg9IjEuMyIgZmlsbD0ibm9uZSIgc3R5bGU9IiIvPjwvZz48L2c+PGcgY2xhc3M9Im5vZGUgZGVmYXVsdCIgaWQ9ImNsYXNzSWQtV2lzaExpc3QtMTkiIGRhdGEtaWQ9Ildpc2hMaXN0IiBkYXRhLW5vZGU9InRydWUiIGRhdGEtZXQ9Im5vZGUiIGRhdGEtbG9vaz0ibmVvIiB0cmFuc2Zvcm09InRyYW5zbGF0ZSgxMzc0LjQwMjM0Mzc1LCA3MzMpIj48ZyBjbGFzcz0iYmFzaWMgbGFiZWwtY29udGFpbmVyIG91dGVyLXBhdGgiPjxwYXRoIGQ9Ik0tMjQ4LjMxODM1OTM3NSAtMjI1IEwyNDguMzE4MzU5Mzc1IC0yMjUgTDI0OC4zMTgzNTkzNzUgMjI1IEwtMjQ4LjMxODM1OTM3NSAyMjUiIHN0cm9rZT0ibm9uZSIgc3Ryb2tlLXdpZHRoPSIwIiBmaWxsPSIjZmZmZmZmIiBzdHlsZT0iIi8+PHBhdGggZD0iTS0yNDguMzE4MzU5Mzc1IC0yMjUgQy0xMjUuNjA3NjMwNDUwMTk1NzYgLTIyNSwgLTIuODk2OTAxNTI1MzkxNTEzIC0yMjUsIDI0OC4zMTgzNTkzNzUgLTIyNSBNLTI0OC4zMTgzNTkzNzUgLTIyNSBDLTY4LjM2NjgwMzAxNzE5ODIxIC0yMjUsIDExMS41ODQ3NTMzNDA2MDM1OCAtMjI1LCAyNDguMzE4MzU5Mzc1IC0yMjUgTTI0OC4zMTgzNTkzNzUgLTIyNSBDMjQ4LjMxODM1OTM3NSAtODEuODkxMzIzNzUwOTk3MjMsIDI0OC4zMTgzNTkzNzUgNjEuMjE3MzUyNDk4MDA1NTQsIDI0OC4zMTgzNTkzNzUgMjI1IE0yNDguMzE4MzU5Mzc1IC0yMjUgQzI0OC4zMTgzNTkzNzUgLTczLjY3OTI3MTkyNjU5NjY3LCAyNDguMzE4MzU5Mzc1IDc3LjY0MTQ1NjE0NjgwNjY2LCAyNDguMzE4MzU5Mzc1IDIyNSBNMjQ4LjMxODM1OTM3NSAyMjUgQzYzLjUxODYyMzYxMzIyODA3IDIyNSwgLTEyMS4yODExMTIxNDg1NDM4NSAyMjUsIC0yNDguMzE4MzU5Mzc1IDIyNSBNMjQ4LjMxODM1OTM3NSAyMjUgQzYxLjA2MTY0OTI4MjYyMDgwNiAyMjUsIC0xMjYuMTk1MDYwODA5NzU4MzkgMjI1LCAtMjQ4LjMxODM1OTM3NSAyMjUgTS0yNDguMzE4MzU5Mzc1IDIyNSBDLTI0OC4zMTgzNTkzNzUgNzguNTgyMjE2NDExNDI2MiwgLTI0OC4zMTgzNTkzNzUgLTY3LjgzNTU2NzE3NzE0NzYsIC0yNDguMzE4MzU5Mzc1IC0yMjUgTS0yNDguMzE4MzU5Mzc1IDIyNSBDLTI0OC4zMTgzNTkzNzUgMTE1LjE4MDkxNTkwNDg3MDkxLCAtMjQ4LjMxODM1OTM3NSA1LjM2MTgzMTgwOTc0MTgzLCAtMjQ4LjMxODM1OTM3NSAtMjI1IiBzdHJva2U9IiMwMDAwMDAiIHN0cm9rZS13aWR0aD0iMS4zIiBmaWxsPSJub25lIiBzdHlsZT0iIi8+PC9nPjxnIGNsYXNzPSJhbm5vdGF0aW9uLWdyb3VwIHRleHQiIHRyYW5zZm9ybT0idHJhbnNsYXRlKDAsIC0yMDEpIi8+PGcgY2xhc3M9ImxhYmVsLWdyb3VwIHRleHQiIHRyYW5zZm9ybT0idHJhbnNsYXRlKC0yNi40NDkyMTg3NSwgLTIwMSkiPjxnIGNsYXNzPSJsYWJlbCIgc3R5bGU9ImZvbnQtd2VpZ2h0OiBib2xkZXIiIHRyYW5zZm9ybT0idHJhbnNsYXRlKDAsLTEwLjUpIj48Zm9yZWlnbk9iamVjdCB3aWR0aD0iNTIuODk4NDM3NSIgaGVpZ2h0PSIyMSI+PGRpdiB4bWxucz0iaHR0cDovL3d3dy53My5vcmcvMTk5OS94aHRtbCIgc3R5bGU9ImRpc3BsYXk6IHRhYmxlLWNlbGw7IHdoaXRlLXNwYWNlOiBub3JtYWw7IGxpbmUtaGVpZ2h0OiAxLjU7IG1heC13aWR0aDogMTIwcHg7IHRleHQtYWxpZ246IGNlbnRlcjsiPjxzcGFuIGNsYXNzPSJub2RlTGFiZWwgbWFya2Rvd24tbm9kZS1sYWJlbCIgc3R5bGU9IiI+PHA+V2lzaExpc3Q8L3A+PC9zcGFuPjwvZGl2PjwvZm9yZWlnbk9iamVjdD48L2c+PC9nPjxnIGNsYXNzPSJtZW1iZXJzLWdyb3VwIHRleHQiIHRyYW5zZm9ybT0idHJhbnNsYXRlKC0yMzYuMzE4MzU5Mzc1LCAtMTU2KSI+PGcgY2xhc3M9ImxhYmVsIiBzdHlsZT0iIiB0cmFuc2Zvcm09InRyYW5zbGF0ZSgwLC0xMC41KSI+PGZvcmVpZ25PYmplY3Qgd2lkdGg9Ijg0LjgxMjUiIGhlaWdodD0iMjEiPjxkaXYgeG1sbnM9Imh0dHA6Ly93d3cudzMub3JnLzE5OTkveGh0bWwiIHN0eWxlPSJkaXNwbGF5OiB0YWJsZS1jZWxsOyB3aGl0ZS1zcGFjZTogbm9ybWFsOyBsaW5lLWhlaWdodDogMS41OyBtYXgtd2lkdGg6IDE3OXB4OyB0ZXh0LWFsaWduOiBjZW50ZXI7Ij48c3BhbiBjbGFzcz0ibm9kZUxhYmVsIG1hcmtkb3duLW5vZGUtbGFiZWwiIHN0eWxlPSIiPjxwPi1pbnQgd2lzaExpc3RJZDwvcD48L3NwYW4+PC9kaXY+PC9mb3JlaWduT2JqZWN0PjwvZz48ZyBjbGFzcz0ibGFiZWwiIHN0eWxlPSIiIHRyYW5zZm9ybT0idHJhbnNsYXRlKDAsMTAuNSkiPjxmb3JlaWduT2JqZWN0IHdpZHRoPSIxMzIuMjY1NjI1IiBoZWlnaHQ9IjIxIj48ZGl2IHhtbG5zPSJodHRwOi8vd3d3LnczLm9yZy8xOTk5L3hodG1sIiBzdHlsZT0iZGlzcGxheTogdGFibGUtY2VsbDsgd2hpdGUtc3BhY2U6IG5vcm1hbDsgbGluZS1oZWlnaHQ6IDEuNTsgbWF4LXdpZHRoOiAyMzJweDsgdGV4dC1hbGlnbjogY2VudGVyOyI+PHNwYW4gY2xhc3M9Im5vZGVMYWJlbCBtYXJrZG93bi1ub2RlLWxhYmVsIiBzdHlsZT0iIj48cD4tU3RyaW5nIHdpc2hMaXN0TmFtZTwvcD48L3NwYW4+PC9kaXY+PC9mb3JlaWduT2JqZWN0PjwvZz48ZyBjbGFzcz0ibGFiZWwiIHN0eWxlPSIiIHRyYW5zZm9ybT0idHJhbnNsYXRlKDAsMzEuNSkiPjxmb3JlaWduT2JqZWN0IHdpZHRoPSIxNjQuOTQ1MzEyNSIgaGVpZ2h0PSIyMSI+PGRpdiB4bWxucz0iaHR0cDovL3d3dy53My5vcmcvMTk5OS94aHRtbCIgc3R5bGU9ImRpc3BsYXk6IHRhYmxlLWNlbGw7IHdoaXRlLXNwYWNlOiBub3JtYWw7IGxpbmUtaGVpZ2h0OiAxLjU7IG1heC13aWR0aDogMjgwcHg7IHRleHQtYWxpZ246IGNlbnRlcjsiPjxzcGFuIGNsYXNzPSJub2RlTGFiZWwgbWFya2Rvd24tbm9kZS1sYWJlbCIgc3R5bGU9IiI+PHA+LVN0cmluZyB3aXNoTGlzdERlc2NyaXB0aW9uPC9wPjwvc3Bhbj48L2Rpdj48L2ZvcmVpZ25PYmplY3Q+PC9nPjxnIGNsYXNzPSJsYWJlbCIgc3R5bGU9IiIgdHJhbnNmb3JtPSJ0cmFuc2xhdGUoMCw1Mi41KSI+PGZvcmVpZ25PYmplY3Qgd2lkdGg9IjYyLjI1IiBoZWlnaHQ9IjIxIj48ZGl2IHhtbG5zPSJodHRwOi8vd3d3LnczLm9yZy8xOTk5L3hodG1sIiBzdHlsZT0iZGlzcGxheTogdGFibGUtY2VsbDsgd2hpdGUtc3BhY2U6IG5vcm1hbDsgbGluZS1oZWlnaHQ6IDEuNTsgbWF4LXdpZHRoOiAxNDdweDsgdGV4dC1hbGlnbjogY2VudGVyOyI+PHNwYW4gY2xhc3M9Im5vZGVMYWJlbCBtYXJrZG93bi1ub2RlLWxhYmVsIiBzdHlsZT0iIj48cD4taW50IHVzZXJJZDwvcD48L3NwYW4+PC9kaXY+PC9mb3JlaWduT2JqZWN0PjwvZz48ZyBjbGFzcz0ibGFiZWwiIHN0eWxlPSIiIHRyYW5zZm9ybT0idHJhbnNsYXRlKDAsNzMuNSkiPjxmb3JlaWduT2JqZWN0IHdpZHRoPSIxMTQuMzU5Mzc1IiBoZWlnaHQ9IjIxIj48ZGl2IHhtbG5zPSJodHRwOi8vd3d3LnczLm9yZy8xOTk5L3hodG1sIiBzdHlsZT0iZGlzcGxheTogdGFibGUtY2VsbDsgd2hpdGUtc3BhY2U6IG5vcm1hbDsgbGluZS1oZWlnaHQ6IDEuNTsgbWF4LXdpZHRoOiAyMThweDsgdGV4dC1hbGlnbjogY2VudGVyOyI+PHNwYW4gY2xhc3M9Im5vZGVMYWJlbCBtYXJrZG93bi1ub2RlLWxhYmVsIiBzdHlsZT0iIj48cD4tTGlzdCB3aXNoTGlzdEl0ZW1zPC9wPjwvc3Bhbj48L2Rpdj48L2ZvcmVpZ25PYmplY3Q+PC9nPjwvZz48ZyBjbGFzcz0ibWV0aG9kcy1ncm91cCB0ZXh0IiB0cmFuc2Zvcm09InRyYW5zbGF0ZSgtMjM2LjMxODM1OTM3NSwgLTI3KSI+PGcgY2xhc3M9ImxhYmVsIiBzdHlsZT0iIiB0cmFuc2Zvcm09InRyYW5zbGF0ZSgwLC0xMC41KSI+PGZvcmVpZ25PYmplY3Qgd2lkdGg9IjcwLjM5ODQzNzUiIGhlaWdodD0iMjEiPjxkaXYgeG1sbnM9Imh0dHA6Ly93d3cudzMub3JnLzE5OTkveGh0bWwiIHN0eWxlPSJkaXNwbGF5OiB0YWJsZS1jZWxsOyB3aGl0ZS1zcGFjZTogbm9ybWFsOyBsaW5lLWhlaWdodDogMS41OyBtYXgtd2lkdGg6IDE1MnB4OyB0ZXh0LWFsaWduOiBjZW50ZXI7Ij48c3BhbiBjbGFzcz0ibm9kZUxhYmVsIG1hcmtkb3duLW5vZGUtbGFiZWwiIHN0eWxlPSIiPjxwPitXaXNoTGlzdCgpPC9wPjwvc3Bhbj48L2Rpdj48L2ZvcmVpZ25PYmplY3Q+PC9nPjxnIGNsYXNzPSJsYWJlbCIgc3R5bGU9IiIgdHJhbnNmb3JtPSJ0cmFuc2xhdGUoMCwxMC41KSI+PGZvcmVpZ25PYmplY3Qgd2lkdGg9IjQ0Ni4xODc1IiBoZWlnaHQ9IjIxIj48ZGl2IHhtbG5zPSJodHRwOi8vd3d3LnczLm9yZy8xOTk5L3hodG1sIiBzdHlsZT0iZGlzcGxheTogdGFibGUtY2VsbDsgd2hpdGUtc3BhY2U6IG5vcm1hbDsgbGluZS1oZWlnaHQ6IDEuNTsgbWF4LXdpZHRoOiA2NDlweDsgdGV4dC1hbGlnbjogY2VudGVyOyI+PHNwYW4gY2xhc3M9Im5vZGVMYWJlbCBtYXJrZG93bi1ub2RlLWxhYmVsIiBzdHlsZT0iIj48cD4rV2lzaExpc3Qod2lzaExpc3RJZCwgd2lzaExpc3ROYW1lLCB3aXNoTGlzdERlc2NyaXB0aW9uLCB3aXNoTGlzdEl0ZW1zKTwvcD48L3NwYW4+PC9kaXY+PC9mb3JlaWduT2JqZWN0PjwvZz48ZyBjbGFzcz0ibGFiZWwiIHN0eWxlPSIiIHRyYW5zZm9ybT0idHJhbnNsYXRlKDAsMzEuNSkiPjxmb3JlaWduT2JqZWN0IHdpZHRoPSIxMDEuNTM5MDYyNSIgaGVpZ2h0PSIyMSI+PGRpdiB4bWxucz0iaHR0cDovL3d3dy53My5vcmcvMTk5OS94aHRtbCIgc3R5bGU9ImRpc3BsYXk6IHRhYmxlLWNlbGw7IHdoaXRlLXNwYWNlOiBub3JtYWw7IGxpbmUtaGVpZ2h0OiAxLjU7IG1heC13aWR0aDogMTk2cHg7IHRleHQtYWxpZ246IGNlbnRlcjsiPjxzcGFuIGNsYXNzPSJub2RlTGFiZWwgbWFya2Rvd24tbm9kZS1sYWJlbCIgc3R5bGU9IiI+PHA+K2dldFdpc2hMaXN0SWQoKTwvcD48L3NwYW4+PC9kaXY+PC9mb3JlaWduT2JqZWN0PjwvZz48ZyBjbGFzcz0ibGFiZWwiIHN0eWxlPSIiIHRyYW5zZm9ybT0idHJhbnNsYXRlKDAsNTIuNSkiPjxmb3JlaWduT2JqZWN0IHdpZHRoPSIxMjcuMjAzMTI1IiBoZWlnaHQ9IjIxIj48ZGl2IHhtbG5zPSJodHRwOi8vd3d3LnczLm9yZy8xOTk5L3hodG1sIiBzdHlsZT0iZGlzcGxheTogdGFibGUtY2VsbDsgd2hpdGUtc3BhY2U6IG5vcm1hbDsgbGluZS1oZWlnaHQ6IDEuNTsgbWF4LXdpZHRoOiAyMjJweDsgdGV4dC1hbGlnbjogY2VudGVyOyI+PHNwYW4gY2xhc3M9Im5vZGVMYWJlbCBtYXJrZG93bi1ub2RlLWxhYmVsIiBzdHlsZT0iIj48cD4rZ2V0V2lzaExpc3ROYW1lKCk8L3A+PC9zcGFuPjwvZGl2PjwvZm9yZWlnbk9iamVjdD48L2c+PGcgY2xhc3M9ImxhYmVsIiBzdHlsZT0iIiB0cmFuc2Zvcm09InRyYW5zbGF0ZSgwLDczLjUpIj48Zm9yZWlnbk9iamVjdCB3aWR0aD0iMTU5Ljg5MDYyNSIgaGVpZ2h0PSIyMSI+PGRpdiB4bWxucz0iaHR0cDovL3d3dy53My5vcmcvMTk5OS94aHRtbCIgc3R5bGU9ImRpc3BsYXk6IHRhYmxlLWNlbGw7IHdoaXRlLXNwYWNlOiBub3JtYWw7IGxpbmUtaGVpZ2h0OiAxLjU7IG1heC13aWR0aDogMjcwcHg7IHRleHQtYWxpZ246IGNlbnRlcjsiPjxzcGFuIGNsYXNzPSJub2RlTGFiZWwgbWFya2Rvd24tbm9kZS1sYWJlbCIgc3R5bGU9IiI+PHA+K2dldFdpc2hMaXN0RGVzY3JpcHRpb24oKTwvcD48L3NwYW4+PC9kaXY+PC9mb3JlaWduT2JqZWN0PjwvZz48ZyBjbGFzcz0ibGFiZWwiIHN0eWxlPSIiIHRyYW5zZm9ybT0idHJhbnNsYXRlKDAsOTQuNSkiPjxmb3JlaWduT2JqZWN0IHdpZHRoPSI3OC4yMDMxMjUiIGhlaWdodD0iMjEiPjxkaXYgeG1sbnM9Imh0dHA6Ly93d3cudzMub3JnLzE5OTkveGh0bWwiIHN0eWxlPSJkaXNwbGF5OiB0YWJsZS1jZWxsOyB3aGl0ZS1zcGFjZTogbm9ybWFsOyBsaW5lLWhlaWdodDogMS41OyBtYXgtd2lkdGg6IDE2MnB4OyB0ZXh0LWFsaWduOiBjZW50ZXI7Ij48c3BhbiBjbGFzcz0ibm9kZUxhYmVsIG1hcmtkb3duLW5vZGUtbGFiZWwiIHN0eWxlPSIiPjxwPitnZXRVc2VySWQoKTwvcD48L3NwYW4+PC9kaXY+PC9mb3JlaWduT2JqZWN0PjwvZz48ZyBjbGFzcz0ibGFiZWwiIHN0eWxlPSIiIHRyYW5zZm9ybT0idHJhbnNsYXRlKDAsMTE1LjUpIj48Zm9yZWlnbk9iamVjdCB3aWR0aD0iMTI0LjA4NTkzNzUiIGhlaWdodD0iMjEiPjxkaXYgeG1sbnM9Imh0dHA6Ly93d3cudzMub3JnLzE5OTkveGh0bWwiIHN0eWxlPSJkaXNwbGF5OiB0YWJsZS1jZWxsOyB3aGl0ZS1zcGFjZTogbm9ybWFsOyBsaW5lLWhlaWdodDogMS41OyBtYXgtd2lkdGg6IDIyNnB4OyB0ZXh0LWFsaWduOiBjZW50ZXI7Ij48c3BhbiBjbGFzcz0ibm9kZUxhYmVsIG1hcmtkb3duLW5vZGUtbGFiZWwiIHN0eWxlPSIiPjxwPitnZXRXaXNoTGlzdEl0ZW1zKCk8L3A+PC9zcGFuPjwvZGl2PjwvZm9yZWlnbk9iamVjdD48L2c+PGcgY2xhc3M9ImxhYmVsIiBzdHlsZT0iIiB0cmFuc2Zvcm09InRyYW5zbGF0ZSgwLDEzNi41KSI+PGZvcmVpZ25PYmplY3Qgd2lkdGg9IjEwMC43NSIgaGVpZ2h0PSIyMSI+PGRpdiB4bWxucz0iaHR0cDovL3d3dy53My5vcmcvMTk5OS94aHRtbCIgc3R5bGU9ImRpc3BsYXk6IHRhYmxlLWNlbGw7IHdoaXRlLXNwYWNlOiBub3JtYWw7IGxpbmUtaGVpZ2h0OiAxLjU7IG1heC13aWR0aDogMTk1cHg7IHRleHQtYWxpZ246IGNlbnRlcjsiPjxzcGFuIGNsYXNzPSJub2RlTGFiZWwgbWFya2Rvd24tbm9kZS1sYWJlbCIgc3R5bGU9IiI+PHA+K3NldFdpc2hMaXN0SWQoKTwvcD48L3NwYW4+PC9kaXY+PC9mb3JlaWduT2JqZWN0PjwvZz48ZyBjbGFzcz0ibGFiZWwiIHN0eWxlPSIiIHRyYW5zZm9ybT0idHJhbnNsYXRlKDAsMTU3LjUpIj48Zm9yZWlnbk9iamVjdCB3aWR0aD0iMTI2LjQyMTg3NSIgaGVpZ2h0PSIyMSI+PGRpdiB4bWxucz0iaHR0cDovL3d3dy53My5vcmcvMTk5OS94aHRtbCIgc3R5bGU9ImRpc3BsYXk6IHRhYmxlLWNlbGw7IHdoaXRlLXNwYWNlOiBub3JtYWw7IGxpbmUtaGVpZ2h0OiAxLjU7IG1heC13aWR0aDogMjIxcHg7IHRleHQtYWxpZ246IGNlbnRlcjsiPjxzcGFuIGNsYXNzPSJub2RlTGFiZWwgbWFya2Rvd24tbm9kZS1sYWJlbCIgc3R5bGU9IiI+PHA+K3NldFdpc2hMaXN0TmFtZSgpPC9wPjwvc3Bhbj48L2Rpdj48L2ZvcmVpZ25PYmplY3Q+PC9nPjxnIGNsYXNzPSJsYWJlbCIgc3R5bGU9IiIgdHJhbnNmb3JtPSJ0cmFuc2xhdGUoMCwxNzguNSkiPjxmb3JlaWduT2JqZWN0IHdpZHRoPSIxNTkuMTAxNTYyNSIgaGVpZ2h0PSIyMSI+PGRpdiB4bWxucz0iaHR0cDovL3d3dy53My5vcmcvMTk5OS94aHRtbCIgc3R5bGU9ImRpc3BsYXk6IHRhYmxlLWNlbGw7IHdoaXRlLXNwYWNlOiBub3JtYWw7IGxpbmUtaGVpZ2h0OiAxLjU7IG1heC13aWR0aDogMjcwcHg7IHRleHQtYWxpZ246IGNlbnRlcjsiPjxzcGFuIGNsYXNzPSJub2RlTGFiZWwgbWFya2Rvd24tbm9kZS1sYWJlbCIgc3R5bGU9IiI+PHA+K3NldFdpc2hMaXN0RGVzY3JpcHRpb24oKTwvcD48L3NwYW4+PC9kaXY+PC9mb3JlaWduT2JqZWN0PjwvZz48ZyBjbGFzcz0ibGFiZWwiIHN0eWxlPSIiIHRyYW5zZm9ybT0idHJhbnNsYXRlKDAsMTk5LjUpIj48Zm9yZWlnbk9iamVjdCB3aWR0aD0iNzcuNDE0MDYyNSIgaGVpZ2h0PSIyMSI+PGRpdiB4bWxucz0iaHR0cDovL3d3dy53My5vcmcvMTk5OS94aHRtbCIgc3R5bGU9ImRpc3BsYXk6IHRhYmxlLWNlbGw7IHdoaXRlLXNwYWNlOiBub3JtYWw7IGxpbmUtaGVpZ2h0OiAxLjU7IG1heC13aWR0aDogMTYxcHg7IHRleHQtYWxpZ246IGNlbnRlcjsiPjxzcGFuIGNsYXNzPSJub2RlTGFiZWwgbWFya2Rvd24tbm9kZS1sYWJlbCIgc3R5bGU9IiI+PHA+K3NldFVzZXJJZCgpPC9wPjwvc3Bhbj48L2Rpdj48L2ZvcmVpZ25PYmplY3Q+PC9nPjxnIGNsYXNzPSJsYWJlbCIgc3R5bGU9IiIgdHJhbnNmb3JtPSJ0cmFuc2xhdGUoMCwyMjAuNSkiPjxmb3JlaWduT2JqZWN0IHdpZHRoPSIxMjMuMzA0Njg3NSIgaGVpZ2h0PSIyMSI+PGRpdiB4bWxucz0iaHR0cDovL3d3dy53My5vcmcvMTk5OS94aHRtbCIgc3R5bGU9ImRpc3BsYXk6IHRhYmxlLWNlbGw7IHdoaXRlLXNwYWNlOiBub3JtYWw7IGxpbmUtaGVpZ2h0OiAxLjU7IG1heC13aWR0aDogMjI2cHg7IHRleHQtYWxpZ246IGNlbnRlcjsiPjxzcGFuIGNsYXNzPSJub2RlTGFiZWwgbWFya2Rvd24tbm9kZS1sYWJlbCIgc3R5bGU9IiI+PHA+K3NldFdpc2hMaXN0SXRlbXMoKTwvcD48L3NwYW4+PC9kaXY+PC9mb3JlaWduT2JqZWN0PjwvZz48L2c+PGcgY2xhc3M9ImRpdmlkZXIiIHN0eWxlPSIiPjxwYXRoIGQ9Ik0tMjQ4LjMxODM1OTM3NSAtMTgwIEMtMTI5LjE3Mjk4MTgzNTM4MTczIC0xNzkuOTk5NzYwMDk1NTEyMzksIC0xMC4wMjc2MDQyOTU3NjM0NjcgLTE3OS45OTk1MjAxOTEwMjQ3NywgMjQ4LjMxODM1OTM3NSAtMTc5Ljk5OSBNLTI0OC4zMTgzNTkzNzUgLTE4MCBDLTc3Ljc5NDczODk2MDkzNjQ2IC0xNzkuOTk5NjU2NjQzMTQ3ODYsIDkyLjcyODg4MTQ1MzEyNzA5IC0xNzkuOTk5MzEzMjg2Mjk1NywgMjQ4LjMxODM1OTM3NSAtMTc5Ljk5OSIgc3Ryb2tlPSIjMDAwMDAwIiBzdHJva2Utd2lkdGg9IjEuMyIgZmlsbD0ibm9uZSIgc3R5bGU9IiIvPjwvZz48ZyBjbGFzcz0iZGl2aWRlciIgc3R5bGU9IiI+PHBhdGggZD0iTS0yNDguMzE4MzU5Mzc1IC01MSBDLTU4LjU4MzE1MjE5NTE3NjU4IC01MC45OTk2MTc5NTk3NjgxNDUsIDEzMS4xNTIwNTQ5ODQ2NDY4NCAtNTAuOTk5MjM1OTE5NTM2MjksIDI0OC4zMTgzNTkzNzUgLTUwLjk5OSBNLTI0OC4zMTgzNTkzNzUgLTUxIEMtNTMuNDk4MjAzNTExODI1NzIgLTUwLjk5OTYwNzcyMDk5OTA2LCAxNDEuMzIxOTUyMzUxMzQ4NTYgLTUwLjk5OTIxNTQ0MTk5ODEyLCAyNDguMzE4MzU5Mzc1IC01MC45OTkiIHN0cm9rZT0iIzAwMDAwMCIgc3Ryb2tlLXdpZHRoPSIxLjMiIGZpbGw9Im5vbmUiIHN0eWxlPSIiLz48L2c+PC9nPjxnIGNsYXNzPSJub2RlIGRlZmF1bHQiIGlkPSJjbGFzc0lkLVdpc2hMaXN0SXRlbS0yMCIgZGF0YS1pZD0iV2lzaExpc3RJdGVtIiBkYXRhLW5vZGU9InRydWUiIGRhdGEtZXQ9Im5vZGUiIGRhdGEtbG9vaz0ibmVvIiB0cmFuc2Zvcm09InRyYW5zbGF0ZSgxMzc0LjQwMjM0Mzc1LCAxMjY0LjUpIj48ZyBjbGFzcz0iYmFzaWMgbGFiZWwtY29udGFpbmVyIG91dGVyLXBhdGgiPjxwYXRoIGQ9Ik0tMjg1LjQ2MDkzNzUgLTI1Ni41IEwyODUuNDYwOTM3NSAtMjU2LjUgTDI4NS40NjA5Mzc1IDI1Ni41IEwtMjg1LjQ2MDkzNzUgMjU2LjUiIHN0cm9rZT0ibm9uZSIgc3Ryb2tlLXdpZHRoPSIwIiBmaWxsPSIjZmZmZmZmIiBzdHlsZT0iIi8+PHBhdGggZD0iTS0yODUuNDYwOTM3NSAtMjU2LjUgQy05Mi4xNzM4NDMxMTkwMjUzOCAtMjU2LjUsIDEwMS4xMTMyNTEyNjE5NDkyNCAtMjU2LjUsIDI4NS40NjA5Mzc1IC0yNTYuNSBNLTI4NS40NjA5Mzc1IC0yNTYuNSBDLTEyMC42OTIwMjc0MjMxMjA2OSAtMjU2LjUsIDQ0LjA3Njg4MjY1Mzc1ODYyIC0yNTYuNSwgMjg1LjQ2MDkzNzUgLTI1Ni41IE0yODUuNDYwOTM3NSAtMjU2LjUgQzI4NS40NjA5Mzc1IC0xMDAuMDA5MTg3NTQ3ODkwMDQsIDI4NS40NjA5Mzc1IDU2LjQ4MTYyNDkwNDIxOTkzLCAyODUuNDYwOTM3NSAyNTYuNSBNMjg1LjQ2MDkzNzUgLTI1Ni41IEMyODUuNDYwOTM3NSAtMTM1LjMzNzI2MDg5MTI0MjQ3LCAyODUuNDYwOTM3NSAtMTQuMTc0NTIxNzgyNDg0OTU5LCAyODUuNDYwOTM3NSAyNTYuNSBNMjg1LjQ2MDkzNzUgMjU2LjUgQzE2Ni40NDkyMDUzMTM1MTAwOCAyNTYuNSwgNDcuNDM3NDczMTI3MDIwMTU1IDI1Ni41LCAtMjg1LjQ2MDkzNzUgMjU2LjUgTTI4NS40NjA5Mzc1IDI1Ni41IEMxNTMuODM3MTE0MzI0MzIwODIgMjU2LjUsIDIyLjIxMzI5MTE0ODY0MTY0NSAyNTYuNSwgLTI4NS40NjA5Mzc1IDI1Ni41IE0tMjg1LjQ2MDkzNzUgMjU2LjUgQy0yODUuNDYwOTM3NSAxMTUuNzczMzM2MzE4ODYxNiwgLTI4NS40NjA5Mzc1IC0yNC45NTMzMjczNjIyNzY4MSwgLTI4NS40NjA5Mzc1IC0yNTYuNSBNLTI4NS40NjA5Mzc1IDI1Ni41IEMtMjg1LjQ2MDkzNzUgMTI2LjcxMDE3MDY3MTA1MDYsIC0yODUuNDYwOTM3NSAtMy4wNzk2NTg2NTc4OTg3OSwgLTI4NS40NjA5Mzc1IC0yNTYuNSIgc3Ryb2tlPSIjMDAwMDAwIiBzdHJva2Utd2lkdGg9IjEuMyIgZmlsbD0ibm9uZSIgc3R5bGU9IiIvPjwvZz48ZyBjbGFzcz0iYW5ub3RhdGlvbi1ncm91cCB0ZXh0IiB0cmFuc2Zvcm09InRyYW5zbGF0ZSgwLCAtMjMyLjUpIi8+PGcgY2xhc3M9ImxhYmVsLWdyb3VwIHRleHQiIHRyYW5zZm9ybT0idHJhbnNsYXRlKC00MC4wNjI1LCAtMjMyLjUpIj48ZyBjbGFzcz0ibGFiZWwiIHN0eWxlPSJmb250LXdlaWdodDogYm9sZGVyIiB0cmFuc2Zvcm09InRyYW5zbGF0ZSgwLC0xMC41KSI+PGZvcmVpZ25PYmplY3Qgd2lkdGg9IjgwLjEyNSIgaGVpZ2h0PSIyMSI+PGRpdiB4bWxucz0iaHR0cDovL3d3dy53My5vcmcvMTk5OS94aHRtbCIgc3R5bGU9ImRpc3BsYXk6IHRhYmxlLWNlbGw7IHdoaXRlLXNwYWNlOiBub3JtYWw7IGxpbmUtaGVpZ2h0OiAxLjU7IG1heC13aWR0aDogMTU5cHg7IHRleHQtYWxpZ246IGNlbnRlcjsiPjxzcGFuIGNsYXNzPSJub2RlTGFiZWwgbWFya2Rvd24tbm9kZS1sYWJlbCIgc3R5bGU9IiI+PHA+V2lzaExpc3RJdGVtPC9wPjwvc3Bhbj48L2Rpdj48L2ZvcmVpZ25PYmplY3Q+PC9nPjwvZz48ZyBjbGFzcz0ibWVtYmVycy1ncm91cCB0ZXh0IiB0cmFuc2Zvcm09InRyYW5zbGF0ZSgtMjczLjQ2MDkzNzUsIC0xODcuNSkiPjxnIGNsYXNzPSJsYWJlbCIgc3R5bGU9IiIgdHJhbnNmb3JtPSJ0cmFuc2xhdGUoMCwtMTAuNSkiPjxmb3JlaWduT2JqZWN0IHdpZHRoPSI2MS40Njg3NSIgaGVpZ2h0PSIyMSI+PGRpdiB4bWxucz0iaHR0cDovL3d3dy53My5vcmcvMTk5OS94aHRtbCIgc3R5bGU9ImRpc3BsYXk6IHRhYmxlLWNlbGw7IHdoaXRlLXNwYWNlOiBub3JtYWw7IGxpbmUtaGVpZ2h0OiAxLjU7IG1heC13aWR0aDogMTQ5cHg7IHRleHQtYWxpZ246IGNlbnRlcjsiPjxzcGFuIGNsYXNzPSJub2RlTGFiZWwgbWFya2Rvd24tbm9kZS1sYWJlbCIgc3R5bGU9IiI+PHA+LWludCBpdGVtSWQ8L3A+PC9zcGFuPjwvZGl2PjwvZm9yZWlnbk9iamVjdD48L2c+PGcgY2xhc3M9ImxhYmVsIiBzdHlsZT0iIiB0cmFuc2Zvcm09InRyYW5zbGF0ZSgwLDEwLjUpIj48Zm9yZWlnbk9iamVjdCB3aWR0aD0iMTA4LjkyMTg3NSIgaGVpZ2h0PSIyMSI+PGRpdiB4bWxucz0iaHR0cDovL3d3dy53My5vcmcvMTk5OS94aHRtbCIgc3R5bGU9ImRpc3BsYXk6IHRhYmxlLWNlbGw7IHdoaXRlLXNwYWNlOiBub3JtYWw7IGxpbmUtaGVpZ2h0OiAxLjU7IG1heC13aWR0aDogMjAxcHg7IHRleHQtYWxpZ246IGNlbnRlcjsiPjxzcGFuIGNsYXNzPSJub2RlTGFiZWwgbWFya2Rvd24tbm9kZS1sYWJlbCIgc3R5bGU9IiI+PHA+LVN0cmluZyBpdGVtTmFtZTwvcD48L3NwYW4+PC9kaXY+PC9mb3JlaWduT2JqZWN0PjwvZz48ZyBjbGFzcz0ibGFiZWwiIHN0eWxlPSIiIHRyYW5zZm9ybT0idHJhbnNsYXRlKDAsMzEuNSkiPjxmb3JlaWduT2JqZWN0IHdpZHRoPSIxNDEuNjAxNTYyNSIgaGVpZ2h0PSIyMSI+PGRpdiB4bWxucz0iaHR0cDovL3d3dy53My5vcmcvMTk5OS94aHRtbCIgc3R5bGU9ImRpc3BsYXk6IHRhYmxlLWNlbGw7IHdoaXRlLXNwYWNlOiBub3JtYWw7IGxpbmUtaGVpZ2h0OiAxLjU7IG1heC13aWR0aDogMjQ5cHg7IHRleHQtYWxpZ246IGNlbnRlcjsiPjxzcGFuIGNsYXNzPSJub2RlTGFiZWwgbWFya2Rvd24tbm9kZS1sYWJlbCIgc3R5bGU9IiI+PHA+LVN0cmluZyBpdGVtRGVzY3JpcHRpb248L3A+PC9zcGFuPjwvZGl2PjwvZm9yZWlnbk9iamVjdD48L2c+PGcgY2xhc3M9ImxhYmVsIiBzdHlsZT0iIiB0cmFuc2Zvcm09InRyYW5zbGF0ZSgwLDUyLjUpIj48Zm9yZWlnbk9iamVjdCB3aWR0aD0iMTA4LjkzNzUiIGhlaWdodD0iMjEiPjxkaXYgeG1sbnM9Imh0dHA6Ly93d3cudzMub3JnLzE5OTkveGh0bWwiIHN0eWxlPSJkaXNwbGF5OiB0YWJsZS1jZWxsOyB3aGl0ZS1zcGFjZTogbm9ybWFsOyBsaW5lLWhlaWdodDogMS41OyBtYXgtd2lkdGg6IDIwMnB4OyB0ZXh0LWFsaWduOiBjZW50ZXI7Ij48c3BhbiBjbGFzcz0ibm9kZUxhYmVsIG1hcmtkb3duLW5vZGUtbGFiZWwiIHN0eWxlPSIiPjxwPi1kb3VibGUgaXRlbVByaWNlPC9wPjwvc3Bhbj48L2Rpdj48L2ZvcmVpZ25PYmplY3Q+PC9nPjxnIGNsYXNzPSJsYWJlbCIgc3R5bGU9IiIgdHJhbnNmb3JtPSJ0cmFuc2xhdGUoMCw3My41KSI+PGZvcmVpZ25PYmplY3Qgd2lkdGg9Ijk3LjI1NzgxMjUiIGhlaWdodD0iMjEiPjxkaXYgeG1sbnM9Imh0dHA6Ly93d3cudzMub3JnLzE5OTkveGh0bWwiIHN0eWxlPSJkaXNwbGF5OiB0YWJsZS1jZWxsOyB3aGl0ZS1zcGFjZTogbm9ybWFsOyBsaW5lLWhlaWdodDogMS41OyBtYXgtd2lkdGg6IDE5MXB4OyB0ZXh0LWFsaWduOiBjZW50ZXI7Ij48c3BhbiBjbGFzcz0ibm9kZUxhYmVsIG1hcmtkb3duLW5vZGUtbGFiZWwiIHN0eWxlPSIiPjxwPi1TdHJpbmcgaXRlbUxpbms8L3A+PC9zcGFuPjwvZGl2PjwvZm9yZWlnbk9iamVjdD48L2c+PGcgY2xhc3M9ImxhYmVsIiBzdHlsZT0iIiB0cmFuc2Zvcm09InRyYW5zbGF0ZSgwLDk0LjUpIj48Zm9yZWlnbk9iamVjdCB3aWR0aD0iODQuODEyNSIgaGVpZ2h0PSIyMSI+PGRpdiB4bWxucz0iaHR0cDovL3d3dy53My5vcmcvMTk5OS94aHRtbCIgc3R5bGU9ImRpc3BsYXk6IHRhYmxlLWNlbGw7IHdoaXRlLXNwYWNlOiBub3JtYWw7IGxpbmUtaGVpZ2h0OiAxLjU7IG1heC13aWR0aDogMTc5cHg7IHRleHQtYWxpZ246IGNlbnRlcjsiPjxzcGFuIGNsYXNzPSJub2RlTGFiZWwgbWFya2Rvd24tbm9kZS1sYWJlbCIgc3R5bGU9IiI+PHA+LWludCB3aXNoTGlzdElkPC9wPjwvc3Bhbj48L2Rpdj48L2ZvcmVpZ25PYmplY3Q+PC9nPjwvZz48ZyBjbGFzcz0ibWV0aG9kcy1ncm91cCB0ZXh0IiB0cmFuc2Zvcm09InRyYW5zbGF0ZSgtMjczLjQ2MDkzNzUsIC0zNy41KSI+PGcgY2xhc3M9ImxhYmVsIiBzdHlsZT0iIiB0cmFuc2Zvcm09InRyYW5zbGF0ZSgwLC0xMC41KSI+PGZvcmVpZ25PYmplY3Qgd2lkdGg9Ijk3LjYyNSIgaGVpZ2h0PSIyMSI+PGRpdiB4bWxucz0iaHR0cDovL3d3dy53My5vcmcvMTk5OS94aHRtbCIgc3R5bGU9ImRpc3BsYXk6IHRhYmxlLWNlbGw7IHdoaXRlLXNwYWNlOiBub3JtYWw7IGxpbmUtaGVpZ2h0OiAxLjU7IG1heC13aWR0aDogMTkxcHg7IHRleHQtYWxpZ246IGNlbnRlcjsiPjxzcGFuIGNsYXNzPSJub2RlTGFiZWwgbWFya2Rvd24tbm9kZS1sYWJlbCIgc3R5bGU9IiI+PHA+K1dpc2hMaXN0SXRlbSgpPC9wPjwvc3Bhbj48L2Rpdj48L2ZvcmVpZ25PYmplY3Q+PC9nPjxnIGNsYXNzPSJsYWJlbCIgc3R5bGU9IiIgdHJhbnNmb3JtPSJ0cmFuc2xhdGUoMCwxMC41KSI+PGZvcmVpZ25PYmplY3Qgd2lkdGg9IjUwNi44NTkzNzUiIGhlaWdodD0iMjEiPjxkaXYgeG1sbnM9Imh0dHA6Ly93d3cudzMub3JnLzE5OTkveGh0bWwiIHN0eWxlPSJkaXNwbGF5OiB0YWJsZS1jZWxsOyB3aGl0ZS1zcGFjZTogbm9ybWFsOyBsaW5lLWhlaWdodDogMS41OyBtYXgtd2lkdGg6IDczM3B4OyB0ZXh0LWFsaWduOiBjZW50ZXI7Ij48c3BhbiBjbGFzcz0ibm9kZUxhYmVsIG1hcmtkb3duLW5vZGUtbGFiZWwiIHN0eWxlPSIiPjxwPitXaXNoTGlzdEl0ZW0oaXRlbUlkLCBpdGVtTmFtZSwgaXRlbURlc2NyaXB0aW9uLCBpdGVtUHJpY2UsIGl0ZW1MaW5rLCB3aXNoTGlzdElkKTwvcD48L3NwYW4+PC9kaXY+PC9mb3JlaWduT2JqZWN0PjwvZz48ZyBjbGFzcz0ibGFiZWwiIHN0eWxlPSIiIHRyYW5zZm9ybT0idHJhbnNsYXRlKDAsMzEuNSkiPjxmb3JlaWduT2JqZWN0IHdpZHRoPSI3NS44NjcxODc1IiBoZWlnaHQ9IjIxIj48ZGl2IHhtbG5zPSJodHRwOi8vd3d3LnczLm9yZy8xOTk5L3hodG1sIiBzdHlsZT0iZGlzcGxheTogdGFibGUtY2VsbDsgd2hpdGUtc3BhY2U6IG5vcm1hbDsgbGluZS1oZWlnaHQ6IDEuNTsgbWF4LXdpZHRoOiAxNjVweDsgdGV4dC1hbGlnbjogY2VudGVyOyI+PHNwYW4gY2xhc3M9Im5vZGVMYWJlbCBtYXJrZG93bi1ub2RlLWxhYmVsIiBzdHlsZT0iIj48cD4rZ2V0SXRlbUlkKCk8L3A+PC9zcGFuPjwvZGl2PjwvZm9yZWlnbk9iamVjdD48L2c+PGcgY2xhc3M9ImxhYmVsIiBzdHlsZT0iIiB0cmFuc2Zvcm09InRyYW5zbGF0ZSgwLDUyLjUpIj48Zm9yZWlnbk9iamVjdCB3aWR0aD0iMTAxLjUzOTA2MjUiIGhlaWdodD0iMjEiPjxkaXYgeG1sbnM9Imh0dHA6Ly93d3cudzMub3JnLzE5OTkveGh0bWwiIHN0eWxlPSJkaXNwbGF5OiB0YWJsZS1jZWxsOyB3aGl0ZS1zcGFjZTogbm9ybWFsOyBsaW5lLWhlaWdodDogMS41OyBtYXgtd2lkdGg6IDE5MXB4OyB0ZXh0LWFsaWduOiBjZW50ZXI7Ij48c3BhbiBjbGFzcz0ibm9kZUxhYmVsIG1hcmtkb3duLW5vZGUtbGFiZWwiIHN0eWxlPSIiPjxwPitnZXRJdGVtTmFtZSgpPC9wPjwvc3Bhbj48L2Rpdj48L2ZvcmVpZ25PYmplY3Q+PC9nPjxnIGNsYXNzPSJsYWJlbCIgc3R5bGU9IiIgdHJhbnNmb3JtPSJ0cmFuc2xhdGUoMCw3My41KSI+PGZvcmVpZ25PYmplY3Qgd2lkdGg9IjEzNC4yMTg3NSIgaGVpZ2h0PSIyMSI+PGRpdiB4bWxucz0iaHR0cDovL3d3dy53My5vcmcvMTk5OS94aHRtbCIgc3R5bGU9ImRpc3BsYXk6IHRhYmxlLWNlbGw7IHdoaXRlLXNwYWNlOiBub3JtYWw7IGxpbmUtaGVpZ2h0OiAxLjU7IG1heC13aWR0aDogMjM5cHg7IHRleHQtYWxpZ246IGNlbnRlcjsiPjxzcGFuIGNsYXNzPSJub2RlTGFiZWwgbWFya2Rvd24tbm9kZS1sYWJlbCIgc3R5bGU9IiI+PHA+K2dldEl0ZW1EZXNjcmlwdGlvbigpPC9wPjwvc3Bhbj48L2Rpdj48L2ZvcmVpZ25PYmplY3Q+PC9nPjxnIGNsYXNzPSJsYWJlbCIgc3R5bGU9IiIgdHJhbnNmb3JtPSJ0cmFuc2xhdGUoMCw5NC41KSI+PGZvcmVpZ25PYmplY3Qgd2lkdGg9Ijk2LjA4NTkzNzUiIGhlaWdodD0iMjEiPjxkaXYgeG1sbnM9Imh0dHA6Ly93d3cudzMub3JnLzE5OTkveGh0bWwiIHN0eWxlPSJkaXNwbGF5OiB0YWJsZS1jZWxsOyB3aGl0ZS1zcGFjZTogbm9ybWFsOyBsaW5lLWhlaWdodDogMS41OyBtYXgtd2lkdGg6IDE4OHB4OyB0ZXh0LWFsaWduOiBjZW50ZXI7Ij48c3BhbiBjbGFzcz0ibm9kZUxhYmVsIG1hcmtkb3duLW5vZGUtbGFiZWwiIHN0eWxlPSIiPjxwPitnZXRJdGVtUHJpY2UoKTwvcD48L3NwYW4+PC9kaXY+PC9mb3JlaWduT2JqZWN0PjwvZz48ZyBjbGFzcz0ibGFiZWwiIHN0eWxlPSIiIHRyYW5zZm9ybT0idHJhbnNsYXRlKDAsMTE1LjUpIj48Zm9yZWlnbk9iamVjdCB3aWR0aD0iODkuODc1IiBoZWlnaHQ9IjIxIj48ZGl2IHhtbG5zPSJodHRwOi8vd3d3LnczLm9yZy8xOTk5L3hodG1sIiBzdHlsZT0iZGlzcGxheTogdGFibGUtY2VsbDsgd2hpdGUtc3BhY2U6IG5vcm1hbDsgbGluZS1oZWlnaHQ6IDEuNTsgbWF4LXdpZHRoOiAxODFweDsgdGV4dC1hbGlnbjogY2VudGVyOyI+PHNwYW4gY2xhc3M9Im5vZGVMYWJlbCBtYXJrZG93bi1ub2RlLWxhYmVsIiBzdHlsZT0iIj48cD4rZ2V0SXRlbUxpbmsoKTwvcD48L3NwYW4+PC9kaXY+PC9mb3JlaWduT2JqZWN0PjwvZz48ZyBjbGFzcz0ibGFiZWwiIHN0eWxlPSIiIHRyYW5zZm9ybT0idHJhbnNsYXRlKDAsMTM2LjUpIj48Zm9yZWlnbk9iamVjdCB3aWR0aD0iMTAxLjUzOTA2MjUiIGhlaWdodD0iMjEiPjxkaXYgeG1sbnM9Imh0dHA6Ly93d3cudzMub3JnLzE5OTkveGh0bWwiIHN0eWxlPSJkaXNwbGF5OiB0YWJsZS1jZWxsOyB3aGl0ZS1zcGFjZTogbm9ybWFsOyBsaW5lLWhlaWdodDogMS41OyBtYXgtd2lkdGg6IDE5NnB4OyB0ZXh0LWFsaWduOiBjZW50ZXI7Ij48c3BhbiBjbGFzcz0ibm9kZUxhYmVsIG1hcmtkb3duLW5vZGUtbGFiZWwiIHN0eWxlPSIiPjxwPitnZXRXaXNoTGlzdElkKCk8L3A+PC9zcGFuPjwvZGl2PjwvZm9yZWlnbk9iamVjdD48L2c+PGcgY2xhc3M9ImxhYmVsIiBzdHlsZT0iIiB0cmFuc2Zvcm09InRyYW5zbGF0ZSgwLDE1Ny41KSI+PGZvcmVpZ25PYmplY3Qgd2lkdGg9Ijc1LjA4NTkzNzUiIGhlaWdodD0iMjEiPjxkaXYgeG1sbnM9Imh0dHA6Ly93d3cudzMub3JnLzE5OTkveGh0bWwiIHN0eWxlPSJkaXNwbGF5OiB0YWJsZS1jZWxsOyB3aGl0ZS1zcGFjZTogbm9ybWFsOyBsaW5lLWhlaWdodDogMS41OyBtYXgtd2lkdGg6IDE2NXB4OyB0ZXh0LWFsaWduOiBjZW50ZXI7Ij48c3BhbiBjbGFzcz0ibm9kZUxhYmVsIG1hcmtkb3duLW5vZGUtbGFiZWwiIHN0eWxlPSIiPjxwPitzZXRJdGVtSWQoKTwvcD48L3NwYW4+PC9kaXY+PC9mb3JlaWduT2JqZWN0PjwvZz48ZyBjbGFzcz0ibGFiZWwiIHN0eWxlPSIiIHRyYW5zZm9ybT0idHJhbnNsYXRlKDAsMTc4LjUpIj48Zm9yZWlnbk9iamVjdCB3aWR0aD0iMTAwLjc1IiBoZWlnaHQ9IjIxIj48ZGl2IHhtbG5zPSJodHRwOi8vd3d3LnczLm9yZy8xOTk5L3hodG1sIiBzdHlsZT0iZGlzcGxheTogdGFibGUtY2VsbDsgd2hpdGUtc3BhY2U6IG5vcm1hbDsgbGluZS1oZWlnaHQ6IDEuNTsgbWF4LXdpZHRoOiAxOTFweDsgdGV4dC1hbGlnbjogY2VudGVyOyI+PHNwYW4gY2xhc3M9Im5vZGVMYWJlbCBtYXJrZG93bi1ub2RlLWxhYmVsIiBzdHlsZT0iIj48cD4rc2V0SXRlbU5hbWUoKTwvcD48L3NwYW4+PC9kaXY+PC9mb3JlaWduT2JqZWN0PjwvZz48ZyBjbGFzcz0ibGFiZWwiIHN0eWxlPSIiIHRyYW5zZm9ybT0idHJhbnNsYXRlKDAsMTk5LjUpIj48Zm9yZWlnbk9iamVjdCB3aWR0aD0iMTMzLjQzNzUiIGhlaWdodD0iMjEiPjxkaXYgeG1sbnM9Imh0dHA6Ly93d3cudzMub3JnLzE5OTkveGh0bWwiIHN0eWxlPSJkaXNwbGF5OiB0YWJsZS1jZWxsOyB3aGl0ZS1zcGFjZTogbm9ybWFsOyBsaW5lLWhlaWdodDogMS41OyBtYXgtd2lkdGg6IDIzOXB4OyB0ZXh0LWFsaWduOiBjZW50ZXI7Ij48c3BhbiBjbGFzcz0ibm9kZUxhYmVsIG1hcmtkb3duLW5vZGUtbGFiZWwiIHN0eWxlPSIiPjxwPitzZXRJdGVtRGVzY3JpcHRpb24oKTwvcD48L3NwYW4+PC9kaXY+PC9mb3JlaWduT2JqZWN0PjwvZz48ZyBjbGFzcz0ibGFiZWwiIHN0eWxlPSIiIHRyYW5zZm9ybT0idHJhbnNsYXRlKDAsMjIwLjUpIj48Zm9yZWlnbk9iamVjdCB3aWR0aD0iOTUuMzA0Njg3NSIgaGVpZ2h0PSIyMSI+PGRpdiB4bWxucz0iaHR0cDovL3d3dy53My5vcmcvMTk5OS94aHRtbCIgc3R5bGU9ImRpc3BsYXk6IHRhYmxlLWNlbGw7IHdoaXRlLXNwYWNlOiBub3JtYWw7IGxpbmUtaGVpZ2h0OiAxLjU7IG1heC13aWR0aDogMTg3cHg7IHRleHQtYWxpZ246IGNlbnRlcjsiPjxzcGFuIGNsYXNzPSJub2RlTGFiZWwgbWFya2Rvd24tbm9kZS1sYWJlbCIgc3R5bGU9IiI+PHA+K3NldEl0ZW1QcmljZSgpPC9wPjwvc3Bhbj48L2Rpdj48L2ZvcmVpZ25PYmplY3Q+PC9nPjxnIGNsYXNzPSJsYWJlbCIgc3R5bGU9IiIgdHJhbnNmb3JtPSJ0cmFuc2xhdGUoMCwyNDEuNSkiPjxmb3JlaWduT2JqZWN0IHdpZHRoPSI4OS4wODU5Mzc1IiBoZWlnaHQ9IjIxIj48ZGl2IHhtbG5zPSJodHRwOi8vd3d3LnczLm9yZy8xOTk5L3hodG1sIiBzdHlsZT0iZGlzcGxheTogdGFibGUtY2VsbDsgd2hpdGUtc3BhY2U6IG5vcm1hbDsgbGluZS1oZWlnaHQ6IDEuNTsgbWF4LXdpZHRoOiAxODFweDsgdGV4dC1hbGlnbjogY2VudGVyOyI+PHNwYW4gY2xhc3M9Im5vZGVMYWJlbCBtYXJrZG93bi1ub2RlLWxhYmVsIiBzdHlsZT0iIj48cD4rc2V0SXRlbUxpbmsoKTwvcD48L3NwYW4+PC9kaXY+PC9mb3JlaWduT2JqZWN0PjwvZz48ZyBjbGFzcz0ibGFiZWwiIHN0eWxlPSIiIHRyYW5zZm9ybT0idHJhbnNsYXRlKDAsMjYyLjUpIj48Zm9yZWlnbk9iamVjdCB3aWR0aD0iMTAwLjc1IiBoZWlnaHQ9IjIxIj48ZGl2IHhtbG5zPSJodHRwOi8vd3d3LnczLm9yZy8xOTk5L3hodG1sIiBzdHlsZT0iZGlzcGxheTogdGFibGUtY2VsbDsgd2hpdGUtc3BhY2U6IG5vcm1hbDsgbGluZS1oZWlnaHQ6IDEuNTsgbWF4LXdpZHRoOiAxOTVweDsgdGV4dC1hbGlnbjogY2VudGVyOyI+PHNwYW4gY2xhc3M9Im5vZGVMYWJlbCBtYXJrZG93bi1ub2RlLWxhYmVsIiBzdHlsZT0iIj48cD4rc2V0V2lzaExpc3RJZCgpPC9wPjwvc3Bhbj48L2Rpdj48L2ZvcmVpZ25PYmplY3Q+PC9nPjwvZz48ZyBjbGFzcz0iZGl2aWRlciIgc3R5bGU9IiI+PHBhdGggZD0iTS0yODUuNDYwOTM3NSAtMjExLjUgQy02MS4zODE5OTA3NjI0MzQzMyAtMjExLjQ5OTYwNzUxMzgxODM1LCAxNjIuNjk2OTU1OTc1MTMxMzUgLTIxMS40OTkyMTUwMjc2MzY3LCAyODUuNDYwOTM3NSAtMjExLjQ5OSBNLTI4NS40NjA5Mzc1IC0yMTEuNSBDLTExNS4xMDkwNzQxNTkzNzU1IC0yMTEuNDk5NzAxNjE5NjU5NywgNTUuMjQyNzg5MTgxMjQ5MDEgLTIxMS40OTk0MDMyMzkzMTk0LCAyODUuNDYwOTM3NSAtMjExLjQ5OSIgc3Ryb2tlPSIjMDAwMDAwIiBzdHJva2Utd2lkdGg9IjEuMyIgZmlsbD0ibm9uZSIgc3R5bGU9IiIvPjwvZz48ZyBjbGFzcz0iZGl2aWRlciIgc3R5bGU9IiI+PHBhdGggZD0iTS0yODUuNDYwOTM3NSAtNjEuNSBDLTk5LjkwMjI1OTYyNzQ5NjY4IC02MS40OTk2NzQ5ODQxMTYwNSwgODUuNjU2NDE4MjQ1MDA2NjUgLTYxLjQ5OTM0OTk2ODIzMjA5LCAyODUuNDYwOTM3NSAtNjEuNDk5IE0tMjg1LjQ2MDkzNzUgLTYxLjUgQy0xMTcuNTU1NjI1NzY2NjkwMjcgLTYxLjQ5OTcwNTkwNDkyNDg1LCA1MC4zNDk2ODU5NjY2MTk0NiAtNjEuNDk5NDExODA5ODQ5NywgMjg1LjQ2MDkzNzUgLTYxLjQ5OSIgc3Ryb2tlPSIjMDAwMDAwIiBzdHJva2Utd2lkdGg9IjEuMyIgZmlsbD0ibm9uZSIgc3R5bGU9IiIvPjwvZz48L2c+PGcgY2xhc3M9Im5vZGUgZGVmYXVsdCIgaWQ9ImNsYXNzSWQtV2lzaExpc3RSZXBvc2l0b3J5LTIxIiBkYXRhLWlkPSJXaXNoTGlzdFJlcG9zaXRvcnkiIGRhdGEtbm9kZT0idHJ1ZSIgZGF0YS1ldD0ibm9kZSIgZGF0YS1sb29rPSJuZW8iIHRyYW5zZm9ybT0idHJhbnNsYXRlKDg4Ny4wODM5ODQzNzUsIDczMykiPjxnIGNsYXNzPSJiYXNpYyBsYWJlbC1jb250YWluZXIgb3V0ZXItcGF0aCI+PHBhdGggZD0iTS0xNTEuODU3NDIxODc1IC0yMTQuNSBMMTUxLjg1NzQyMTg3NSAtMjE0LjUgTDE1MS44NTc0MjE4NzUgMjE0LjUgTC0xNTEuODU3NDIxODc1IDIxNC41IiBzdHJva2U9Im5vbmUiIHN0cm9rZS13aWR0aD0iMCIgZmlsbD0iI2ZmZmZmZiIgc3R5bGU9IiIvPjxwYXRoIGQ9Ik0tMTUxLjg1NzQyMTg3NSAtMjE0LjUgQy02My41NjUxMDM0MTMyNzQ4NTUgLTIxNC41LCAyNC43MjcyMTUwNDg0NTAyOSAtMjE0LjUsIDE1MS44NTc0MjE4NzUgLTIxNC41IE0tMTUxLjg1NzQyMTg3NSAtMjE0LjUgQy04MS40Njg0OTE2ODUzNjg2IC0yMTQuNSwgLTExLjA3OTU2MTQ5NTczNzIxIC0yMTQuNSwgMTUxLjg1NzQyMTg3NSAtMjE0LjUgTTE1MS44NTc0MjE4NzUgLTIxNC41IEMxNTEuODU3NDIxODc1IC0xMjcuMDg2ODk0MDAzNDkwMzMsIDE1MS44NTc0MjE4NzUgLTM5LjY3Mzc4ODAwNjk4MDY2LCAxNTEuODU3NDIxODc1IDIxNC41IE0xNTEuODU3NDIxODc1IC0yMTQuNSBDMTUxLjg1NzQyMTg3NSAtMTAxLjcwMDk5NDQ0MDA1NDA5LCAxNTEuODU3NDIxODc1IDExLjA5ODAxMTExOTg5MTgyMiwgMTUxLjg1NzQyMTg3NSAyMTQuNSBNMTUxLjg1NzQyMTg3NSAyMTQuNSBDNzkuNzI5NjA5OTg4MDY4MzUgMjE0LjUsIDcuNjAxNzk4MTAxMTM2Njk0IDIxNC41LCAtMTUxLjg1NzQyMTg3NSAyMTQuNSBNMTUxLjg1NzQyMTg3NSAyMTQuNSBDNjguOTkxMjk5Mzg2MDA1NzkgMjE0LjUsIC0xMy44NzQ4MjMxMDI5ODg0MTUgMjE0LjUsIC0xNTEuODU3NDIxODc1IDIxNC41IE0tMTUxLjg1NzQyMTg3NSAyMTQuNSBDLTE1MS44NTc0MjE4NzUgMTE2LjA4ODU1OTg5NTM3MjA2LCAtMTUxLjg1NzQyMTg3NSAxNy42NzcxMTk3OTA3NDQxMTUsIC0xNTEuODU3NDIxODc1IC0yMTQuNSBNLTE1MS44NTc0MjE4NzUgMjE0LjUgQy0xNTEuODU3NDIxODc1IDEyMC4xOTU3MjQ2OTg4ODk1NSwgLTE1MS44NTc0MjE4NzUgMjUuODkxNDQ5Mzk3Nzc5MSwgLTE1MS44NTc0MjE4NzUgLTIxNC41IiBzdHJva2U9IiMwMDAwMDAiIHN0cm9rZS13aWR0aD0iMS4zIiBmaWxsPSJub25lIiBzdHlsZT0iIi8+PC9nPjxnIGNsYXNzPSJhbm5vdGF0aW9uLWdyb3VwIHRleHQiIHRyYW5zZm9ybT0idHJhbnNsYXRlKDAsIC0xOTAuNSkiLz48ZyBjbGFzcz0ibGFiZWwtZ3JvdXAgdGV4dCIgdHJhbnNmb3JtPSJ0cmFuc2xhdGUoLTU5LjkxMDE1NjI1LCAtMTkwLjUpIj48ZyBjbGFzcz0ibGFiZWwiIHN0eWxlPSJmb250LXdlaWdodDogYm9sZGVyIiB0cmFuc2Zvcm09InRyYW5zbGF0ZSgwLC0xMC41KSI+PGZvcmVpZ25PYmplY3Qgd2lkdGg9IjExOS44MjAzMTI1IiBoZWlnaHQ9IjIxIj48ZGl2IHhtbG5zPSJodHRwOi8vd3d3LnczLm9yZy8xOTk5L3hodG1sIiBzdHlsZT0iZGlzcGxheTogdGFibGUtY2VsbDsgd2hpdGUtc3BhY2U6IG5vcm1hbDsgbGluZS1oZWlnaHQ6IDEuNTsgbWF4LXdpZHRoOiAyMDdweDsgdGV4dC1hbGlnbjogY2VudGVyOyI+PHNwYW4gY2xhc3M9Im5vZGVMYWJlbCBtYXJrZG93bi1ub2RlLWxhYmVsIiBzdHlsZT0iIj48cD5XaXNoTGlzdFJlcG9zaXRvcnk8L3A+PC9zcGFuPjwvZGl2PjwvZm9yZWlnbk9iamVjdD48L2c+PC9nPjxnIGNsYXNzPSJtZW1iZXJzLWdyb3VwIHRleHQiIHRyYW5zZm9ybT0idHJhbnNsYXRlKC0xMzkuODU3NDIxODc1LCAtMTQ1LjUpIj48ZyBjbGFzcz0ibGFiZWwiIHN0eWxlPSIiIHRyYW5zZm9ybT0idHJhbnNsYXRlKDAsLTEwLjUpIj48Zm9yZWlnbk9iamVjdCB3aWR0aD0iMTc3LjQyMTg3NSIgaGVpZ2h0PSIyMSI+PGRpdiB4bWxucz0iaHR0cDovL3d3dy53My5vcmcvMTk5OS94aHRtbCIgc3R5bGU9ImRpc3BsYXk6IHRhYmxlLWNlbGw7IHdoaXRlLXNwYWNlOiBub3JtYWw7IGxpbmUtaGVpZ2h0OiAxLjU7IG1heC13aWR0aDogMjg1cHg7IHRleHQtYWxpZ246IGNlbnRlcjsiPjxzcGFuIGNsYXNzPSJub2RlTGFiZWwgbWFya2Rvd24tbm9kZS1sYWJlbCIgc3R5bGU9IiI+PHA+LUpkYmNUZW1wbGF0ZSBqZGJjVGVtcGxhdGU8L3A+PC9zcGFuPjwvZGl2PjwvZm9yZWlnbk9iamVjdD48L2c+PC9nPjxnIGNsYXNzPSJtZXRob2RzLWdyb3VwIHRleHQiIHRyYW5zZm9ybT0idHJhbnNsYXRlKC0xMzkuODU3NDIxODc1LCAtMTAwLjUpIj48ZyBjbGFzcz0ibGFiZWwiIHN0eWxlPSIiIHRyYW5zZm9ybT0idHJhbnNsYXRlKDAsLTEwLjUpIj48Zm9yZWlnbk9iamVjdCB3aWR0aD0iMjE5LjgwNDY4NzUiIGhlaWdodD0iMjEiPjxkaXYgeG1sbnM9Imh0dHA6Ly93d3cudzMub3JnLzE5OTkveGh0bWwiIHN0eWxlPSJkaXNwbGF5OiB0YWJsZS1jZWxsOyB3aGl0ZS1zcGFjZTogbm9ybWFsOyBsaW5lLWhlaWdodDogMS41OyBtYXgtd2lkdGg6IDM0NHB4OyB0ZXh0LWFsaWduOiBjZW50ZXI7Ij48c3BhbiBjbGFzcz0ibm9kZUxhYmVsIG1hcmtkb3duLW5vZGUtbGFiZWwiIHN0eWxlPSIiPjxwPitXaXNoTGlzdFJlcG9zaXRvcnkoamRiY1RlbXBsYXRlKTwvcD48L3NwYW4+PC9kaXY+PC9mb3JlaWduT2JqZWN0PjwvZz48ZyBjbGFzcz0ibGFiZWwiIHN0eWxlPSIiIHRyYW5zZm9ybT0idHJhbnNsYXRlKDAsMTAuNSkiPjxmb3JlaWduT2JqZWN0IHdpZHRoPSI4OS4wODU5Mzc1IiBoZWlnaHQ9IjIxIj48ZGl2IHhtbG5zPSJodHRwOi8vd3d3LnczLm9yZy8xOTk5L3hodG1sIiBzdHlsZT0iZGlzcGxheTogdGFibGUtY2VsbDsgd2hpdGUtc3BhY2U6IG5vcm1hbDsgbGluZS1oZWlnaHQ6IDEuNTsgbWF4LXdpZHRoOiAxNzVweDsgdGV4dC1hbGlnbjogY2VudGVyOyI+PHNwYW4gY2xhc3M9Im5vZGVMYWJlbCBtYXJrZG93bi1ub2RlLWxhYmVsIiBzdHlsZT0iIj48cD4rZ2V0QWxsVXNlcnMoKTwvcD48L3NwYW4+PC9kaXY+PC9mb3JlaWduT2JqZWN0PjwvZz48ZyBjbGFzcz0ibGFiZWwiIHN0eWxlPSIiIHRyYW5zZm9ybT0idHJhbnNsYXRlKDAsMzEuNSkiPjxmb3JlaWduT2JqZWN0IHdpZHRoPSIxNDcuNDM3NSIgaGVpZ2h0PSIyMSI+PGRpdiB4bWxucz0iaHR0cDovL3d3dy53My5vcmcvMTk5OS94aHRtbCIgc3R5bGU9ImRpc3BsYXk6IHRhYmxlLWNlbGw7IHdoaXRlLXNwYWNlOiBub3JtYWw7IGxpbmUtaGVpZ2h0OiAxLjU7IG1heC13aWR0aDogMjQycHg7IHRleHQtYWxpZ246IGNlbnRlcjsiPjxzcGFuIGNsYXNzPSJub2RlTGFiZWwgbWFya2Rvd24tbm9kZS1sYWJlbCIgc3R5bGU9IiI+PHA+K2dldFVzZXJCeVVzZXJuYW1lKCk8L3A+PC9zcGFuPjwvZGl2PjwvZm9yZWlnbk9iamVjdD48L2c+PGcgY2xhc3M9ImxhYmVsIiBzdHlsZT0iIiB0cmFuc2Zvcm09InRyYW5zbGF0ZSgwLDUyLjUpIj48Zm9yZWlnbk9iamVjdCB3aWR0aD0iOTQuNTM5MDYyNSIgaGVpZ2h0PSIyMSI+PGRpdiB4bWxucz0iaHR0cDovL3d3dy53My5vcmcvMTk5OS94aHRtbCIgc3R5bGU9ImRpc3BsYXk6IHRhYmxlLWNlbGw7IHdoaXRlLXNwYWNlOiBub3JtYWw7IGxpbmUtaGVpZ2h0OiAxLjU7IG1heC13aWR0aDogMTgxcHg7IHRleHQtYWxpZ246IGNlbnRlcjsiPjxzcGFuIGNsYXNzPSJub2RlTGFiZWwgbWFya2Rvd24tbm9kZS1sYWJlbCIgc3R5bGU9IiI+PHA+K2dldFVzZXJCeUlkKCk8L3A+PC9zcGFuPjwvZGl2PjwvZm9yZWlnbk9iamVjdD48L2c+PGcgY2xhc3M9ImxhYmVsIiBzdHlsZT0iIiB0cmFuc2Zvcm09InRyYW5zbGF0ZSgwLDczLjUpIj48Zm9yZWlnbk9iamVjdCB3aWR0aD0iMTc3Ljc4MTI1IiBoZWlnaHQ9IjIxIj48ZGl2IHhtbG5zPSJodHRwOi8vd3d3LnczLm9yZy8xOTk5L3hodG1sIiBzdHlsZT0iZGlzcGxheTogdGFibGUtY2VsbDsgd2hpdGUtc3BhY2U6IG5vcm1hbDsgbGluZS1oZWlnaHQ6IDEuNTsgbWF4LXdpZHRoOiAyODRweDsgdGV4dC1hbGlnbjogY2VudGVyOyI+PHNwYW4gY2xhc3M9Im5vZGVMYWJlbCBtYXJrZG93bi1ub2RlLWxhYmVsIiBzdHlsZT0iIj48cD4rZ2V0V2lzaExpc3RzQnlVc2VybmFtZSgpPC9wPjwvc3Bhbj48L2Rpdj48L2ZvcmVpZ25PYmplY3Q+PC9nPjxnIGNsYXNzPSJsYWJlbCIgc3R5bGU9IiIgdHJhbnNmb3JtPSJ0cmFuc2xhdGUoMCw5NC41KSI+PGZvcmVpZ25PYmplY3Qgd2lkdGg9IjExNy44NzUiIGhlaWdodD0iMjEiPjxkaXYgeG1sbnM9Imh0dHA6Ly93d3cudzMub3JnLzE5OTkveGh0bWwiIHN0eWxlPSJkaXNwbGF5OiB0YWJsZS1jZWxsOyB3aGl0ZS1zcGFjZTogbm9ybWFsOyBsaW5lLWhlaWdodDogMS41OyBtYXgtd2lkdGg6IDIxNHB4OyB0ZXh0LWFsaWduOiBjZW50ZXI7Ij48c3BhbiBjbGFzcz0ibm9kZUxhYmVsIG1hcmtkb3duLW5vZGUtbGFiZWwiIHN0eWxlPSIiPjxwPitnZXRXaXNoTGlzdEJ5SWQoKTwvcD48L3NwYW4+PC9kaXY+PC9mb3JlaWduT2JqZWN0PjwvZz48ZyBjbGFzcz0ibGFiZWwiIHN0eWxlPSIiIHRyYW5zZm9ybT0idHJhbnNsYXRlKDAsMTE1LjUpIj48Zm9yZWlnbk9iamVjdCB3aWR0aD0iMTUyLjEwMTU2MjUiIGhlaWdodD0iMjEiPjxkaXYgeG1sbnM9Imh0dHA6Ly93d3cudzMub3JnLzE5OTkveGh0bWwiIHN0eWxlPSJkaXNwbGF5OiB0YWJsZS1jZWxsOyB3aGl0ZS1zcGFjZTogbm9ybWFsOyBsaW5lLWhlaWdodDogMS41OyBtYXgtd2lkdGg6IDI2MnB4OyB0ZXh0LWFsaWduOiBjZW50ZXI7Ij48c3BhbiBjbGFzcz0ibm9kZUxhYmVsIG1hcmtkb3duLW5vZGUtbGFiZWwiIHN0eWxlPSIiPjxwPitnZXRJdGVtc0J5V2lzaExpc3RJZCgpPC9wPjwvc3Bhbj48L2Rpdj48L2ZvcmVpZ25PYmplY3Q+PC9nPjxnIGNsYXNzPSJsYWJlbCIgc3R5bGU9IiIgdHJhbnNmb3JtPSJ0cmFuc2xhdGUoMCwxMzYuNSkiPjxmb3JlaWduT2JqZWN0IHdpZHRoPSI5Mi4yMDMxMjUiIGhlaWdodD0iMjEiPjxkaXYgeG1sbnM9Imh0dHA6Ly93d3cudzMub3JnLzE5OTkveGh0bWwiIHN0eWxlPSJkaXNwbGF5OiB0YWJsZS1jZWxsOyB3aGl0ZS1zcGFjZTogbm9ybWFsOyBsaW5lLWhlaWdodDogMS41OyBtYXgtd2lkdGg6IDE4NHB4OyB0ZXh0LWFsaWduOiBjZW50ZXI7Ij48c3BhbiBjbGFzcz0ibm9kZUxhYmVsIG1hcmtkb3duLW5vZGUtbGFiZWwiIHN0eWxlPSIiPjxwPitnZXRJdGVtQnlJZCgpPC9wPjwvc3Bhbj48L2Rpdj48L2ZvcmVpZ25PYmplY3Q+PC9nPjxnIGNsYXNzPSJsYWJlbCIgc3R5bGU9IiIgdHJhbnNmb3JtPSJ0cmFuc2xhdGUoMCwxNTcuNSkiPjxmb3JlaWduT2JqZWN0IHdpZHRoPSIxMDQuNjQ4NDM3NSIgaGVpZ2h0PSIyMSI+PGRpdiB4bWxucz0iaHR0cDovL3d3dy53My5vcmcvMTk5OS94aHRtbCIgc3R5bGU9ImRpc3BsYXk6IHRhYmxlLWNlbGw7IHdoaXRlLXNwYWNlOiBub3JtYWw7IGxpbmUtaGVpZ2h0OiAxLjU7IG1heC13aWR0aDogMTk0cHg7IHRleHQtYWxpZ246IGNlbnRlcjsiPjxzcGFuIGNsYXNzPSJub2RlTGFiZWwgbWFya2Rvd24tbm9kZS1sYWJlbCIgc3R5bGU9IiI+PHA+K2dldE1heFVzZXJJZCgpPC9wPjwvc3Bhbj48L2Rpdj48L2ZvcmVpZ25PYmplY3Q+PC9nPjxnIGNsYXNzPSJsYWJlbCIgc3R5bGU9IiIgdHJhbnNmb3JtPSJ0cmFuc2xhdGUoMCwxNzguNSkiPjxmb3JlaWduT2JqZWN0IHdpZHRoPSI3MC40MjE4NzUiIGhlaWdodD0iMjEiPjxkaXYgeG1sbnM9Imh0dHA6Ly93d3cudzMub3JnLzE5OTkveGh0bWwiIHN0eWxlPSJkaXNwbGF5OiB0YWJsZS1jZWxsOyB3aGl0ZS1zcGFjZTogbm9ybWFsOyBsaW5lLWhlaWdodDogMS41OyBtYXgtd2lkdGg6IDE0N3B4OyB0ZXh0LWFsaWduOiBjZW50ZXI7Ij48c3BhbiBjbGFzcz0ibm9kZUxhYmVsIG1hcmtkb3duLW5vZGUtbGFiZWwiIHN0eWxlPSIiPjxwPithZGRVc2VyKCk8L3A+PC9zcGFuPjwvZGl2PjwvZm9yZWlnbk9iamVjdD48L2c+PGcgY2xhc3M9ImxhYmVsIiBzdHlsZT0iIiB0cmFuc2Zvcm09InRyYW5zbGF0ZSgwLDE5OS41KSI+PGZvcmVpZ25PYmplY3Qgd2lkdGg9IjkzLjc1NzgxMjUiIGhlaWdodD0iMjEiPjxkaXYgeG1sbnM9Imh0dHA6Ly93d3cudzMub3JnLzE5OTkveGh0bWwiIHN0eWxlPSJkaXNwbGF5OiB0YWJsZS1jZWxsOyB3aGl0ZS1zcGFjZTogbm9ybWFsOyBsaW5lLWhlaWdodDogMS41OyBtYXgtd2lkdGg6IDE4MXB4OyB0ZXh0LWFsaWduOiBjZW50ZXI7Ij48c3BhbiBjbGFzcz0ibm9kZUxhYmVsIG1hcmtkb3duLW5vZGUtbGFiZWwiIHN0eWxlPSIiPjxwPithZGRXaXNoTGlzdCgpPC9wPjwvc3Bhbj48L2Rpdj48L2ZvcmVpZ25PYmplY3Q+PC9nPjxnIGNsYXNzPSJsYWJlbCIgc3R5bGU9IiIgdHJhbnNmb3JtPSJ0cmFuc2xhdGUoMCwyMjAuNSkiPjxmb3JlaWduT2JqZWN0IHdpZHRoPSIxMzUuNzczNDM3NSIgaGVpZ2h0PSIyMSI+PGRpdiB4bWxucz0iaHR0cDovL3d3dy53My5vcmcvMTk5OS94aHRtbCIgc3R5bGU9ImRpc3BsYXk6IHRhYmxlLWNlbGw7IHdoaXRlLXNwYWNlOiBub3JtYWw7IGxpbmUtaGVpZ2h0OiAxLjU7IG1heC13aWR0aDogMjM3cHg7IHRleHQtYWxpZ246IGNlbnRlcjsiPjxzcGFuIGNsYXNzPSJub2RlTGFiZWwgbWFya2Rvd24tbm9kZS1sYWJlbCIgc3R5bGU9IiI+PHA+K2FkZEl0ZW1Ub1dpc2hMaXN0KCk8L3A+PC9zcGFuPjwvZGl2PjwvZm9yZWlnbk9iamVjdD48L2c+PGcgY2xhc3M9ImxhYmVsIiBzdHlsZT0iIiB0cmFuc2Zvcm09InRyYW5zbGF0ZSgwLDI0MS41KSI+PGZvcmVpZ25PYmplY3Qgd2lkdGg9Ijg3LjU1NDY4NzUiIGhlaWdodD0iMjEiPjxkaXYgeG1sbnM9Imh0dHA6Ly93d3cudzMub3JnLzE5OTkveGh0bWwiIHN0eWxlPSJkaXNwbGF5OiB0YWJsZS1jZWxsOyB3aGl0ZS1zcGFjZTogbm9ybWFsOyBsaW5lLWhlaWdodDogMS41OyBtYXgtd2lkdGg6IDE3N3B4OyB0ZXh0LWFsaWduOiBjZW50ZXI7Ij48c3BhbiBjbGFzcz0ibm9kZUxhYmVsIG1hcmtkb3duLW5vZGUtbGFiZWwiIHN0eWxlPSIiPjxwPit1cGRhdGVJdGVtKCk8L3A+PC9zcGFuPjwvZGl2PjwvZm9yZWlnbk9iamVjdD48L2c+PGcgY2xhc3M9ImxhYmVsIiBzdHlsZT0iIiB0cmFuc2Zvcm09InRyYW5zbGF0ZSgwLDI2Mi41KSI+PGZvcmVpZ25PYmplY3Qgd2lkdGg9IjgyLjg3NSIgaGVpZ2h0PSIyMSI+PGRpdiB4bWxucz0iaHR0cDovL3d3dy53My5vcmcvMTk5OS94aHRtbCIgc3R5bGU9ImRpc3BsYXk6IHRhYmxlLWNlbGw7IHdoaXRlLXNwYWNlOiBub3JtYWw7IGxpbmUtaGVpZ2h0OiAxLjU7IG1heC13aWR0aDogMTczcHg7IHRleHQtYWxpZ246IGNlbnRlcjsiPjxzcGFuIGNsYXNzPSJub2RlTGFiZWwgbWFya2Rvd24tbm9kZS1sYWJlbCIgc3R5bGU9IiI+PHA+K2RlbGV0ZUl0ZW0oKTwvcD48L3NwYW4+PC9kaXY+PC9mb3JlaWduT2JqZWN0PjwvZz48ZyBjbGFzcz0ibGFiZWwiIHN0eWxlPSIiIHRyYW5zZm9ybT0idHJhbnNsYXRlKDAsMjgzLjUpIj48Zm9yZWlnbk9iamVjdCB3aWR0aD0iMTA4LjU0Njg3NSIgaGVpZ2h0PSIyMSI+PGRpdiB4bWxucz0iaHR0cDovL3d3dy53My5vcmcvMTk5OS94aHRtbCIgc3R5bGU9ImRpc3BsYXk6IHRhYmxlLWNlbGw7IHdoaXRlLXNwYWNlOiBub3JtYWw7IGxpbmUtaGVpZ2h0OiAxLjU7IG1heC13aWR0aDogMjAzcHg7IHRleHQtYWxpZ246IGNlbnRlcjsiPjxzcGFuIGNsYXNzPSJub2RlTGFiZWwgbWFya2Rvd24tbm9kZS1sYWJlbCIgc3R5bGU9IiI+PHA+K2RlbGV0ZVdpc2hMaXN0KCk8L3A+PC9zcGFuPjwvZGl2PjwvZm9yZWlnbk9iamVjdD48L2c+PC9nPjxnIGNsYXNzPSJkaXZpZGVyIiBzdHlsZT0iIj48cGF0aCBkPSJNLTE1MS44NTc0MjE4NzUgLTE2OS41IEMtNjYuNTYwODYzNDQ4Njc0MjEgLTE2OS40OTk3MTkxNTU3Nzk5LCAxOC43MzU2OTQ5Nzc2NTE1NzYgLTE2OS40OTk0MzgzMTE1NTk4LCAxNTEuODU3NDIxODc1IC0xNjkuNDk5IE0tMTUxLjg1NzQyMTg3NSAtMTY5LjUgQy02MS42ODM4ODkzMzQyMjM4NSAtMTY5LjQ5OTcwMzA5ODAzOTUsIDI4LjQ4OTY0MzIwNjU1MjMgLTE2OS40OTk0MDYxOTYwNzksIDE1MS44NTc0MjE4NzUgLTE2OS40OTkiIHN0cm9rZT0iIzAwMDAwMCIgc3Ryb2tlLXdpZHRoPSIxLjMiIGZpbGw9Im5vbmUiIHN0eWxlPSIiLz48L2c+PGcgY2xhc3M9ImRpdmlkZXIiIHN0eWxlPSIiPjxwYXRoIGQ9Ik0tMTUxLjg1NzQyMTg3NSAtMTI0LjUgQy03Ni4xMTk0NTc2MTMwNzQzMyAtMTI0LjQ5OTc1MDYyODA0NTI4LCAtMC4zODE0OTMzNTExNDg2NjI5IC0xMjQuNDk5NTAxMjU2MDkwNTcsIDE1MS44NTc0MjE4NzUgLTEyNC40OTkgTS0xNTEuODU3NDIxODc1IC0xMjQuNSBDLTQ1LjM1MjI4NTE0NzEwOTUgLTEyNC40OTk2NDkzMjUyMTc2NSwgNjEuMTUyODUxNTgwNzgxMDA0IC0xMjQuNDk5Mjk4NjUwNDM1MywgMTUxLjg1NzQyMTg3NSAtMTI0LjQ5OSIgc3Ryb2tlPSIjMDAwMDAwIiBzdHJva2Utd2lkdGg9IjEuMyIgZmlsbD0ibm9uZSIgc3R5bGU9IiIvPjwvZz48L2c+PGcgY2xhc3M9Im5vZGUgZGVmYXVsdCIgaWQ9ImNsYXNzSWQtV2lzaExpc3RTZXJ2aWNlLTIyIiBkYXRhLWlkPSJXaXNoTGlzdFNlcnZpY2UiIGRhdGEtbm9kZT0idHJ1ZSIgZGF0YS1ldD0ibm9kZSIgZGF0YS1sb29rPSJuZW8iIHRyYW5zZm9ybT0idHJhbnNsYXRlKDUyNS43OTEwMTU2MjUsIDczMykiPjxnIGNsYXNzPSJiYXNpYyBsYWJlbC1jb250YWluZXIgb3V0ZXItcGF0aCI+PHBhdGggZD0iTS0xNTkuNDM1NTQ2ODc1IC0yMTQuNSBMMTU5LjQzNTU0Njg3NSAtMjE0LjUgTDE1OS40MzU1NDY4NzUgMjE0LjUgTC0xNTkuNDM1NTQ2ODc1IDIxNC41IiBzdHJva2U9Im5vbmUiIHN0cm9rZS13aWR0aD0iMCIgZmlsbD0iI2ZmZmZmZiIgc3R5bGU9IiIvPjxwYXRoIGQ9Ik0tMTU5LjQzNTU0Njg3NSAtMjE0LjUgQy0zNC40NjU3MTcwMDQxNzAxMTYgLTIxNC41LCA5MC41MDQxMTI4NjY2NTk3NyAtMjE0LjUsIDE1OS40MzU1NDY4NzUgLTIxNC41IE0tMTU5LjQzNTU0Njg3NSAtMjE0LjUgQy02My40NDI5Mzk5NDUzODMyMTYgLTIxNC41LCAzMi41NDk2NjY5ODQyMzM1NyAtMjE0LjUsIDE1OS40MzU1NDY4NzUgLTIxNC41IE0xNTkuNDM1NTQ2ODc1IC0yMTQuNSBDMTU5LjQzNTU0Njg3NSAtMTAxLjI3NjI2NTg0ODIwMTk3LCAxNTkuNDM1NTQ2ODc1IDExLjk0NzQ2ODMwMzU5NjA1NCwgMTU5LjQzNTU0Njg3NSAyMTQuNSBNMTU5LjQzNTU0Njg3NSAtMjE0LjUgQzE1OS40MzU1NDY4NzUgLTEwNy43ODIyMTE5NDI5Mjg5NSwgMTU5LjQzNTU0Njg3NSAtMS4wNjQ0MjM4ODU4NTc5MDU4LCAxNTkuNDM1NTQ2ODc1IDIxNC41IE0xNTkuNDM1NTQ2ODc1IDIxNC41IEM5MC41NzM3NjYxODY5OTA5NSAyMTQuNSwgMjEuNzExOTg1NDk4OTgxOTAzIDIxNC41LCAtMTU5LjQzNTU0Njg3NSAyMTQuNSBNMTU5LjQzNTU0Njg3NSAyMTQuNSBDMzQuNzUxOTExMTUzNzU0OTYgMjE0LjUsIC04OS45MzE3MjQ1Njc0OTAwOCAyMTQuNSwgLTE1OS40MzU1NDY4NzUgMjE0LjUgTS0xNTkuNDM1NTQ2ODc1IDIxNC41IEMtMTU5LjQzNTU0Njg3NSAxMjEuMDA3ODA4MjcxMzg4NDYsIC0xNTkuNDM1NTQ2ODc1IDI3LjUxNTYxNjU0Mjc3NjkxLCAtMTU5LjQzNTU0Njg3NSAtMjE0LjUgTS0xNTkuNDM1NTQ2ODc1IDIxNC41IEMtMTU5LjQzNTU0Njg3NSA2MS42MDczODI1NTM3Njc5MzQsIC0xNTkuNDM1NTQ2ODc1IC05MS4yODUyMzQ4OTI0NjQxMywgLTE1OS40MzU1NDY4NzUgLTIxNC41IiBzdHJva2U9IiMwMDAwMDAiIHN0cm9rZS13aWR0aD0iMS4zIiBmaWxsPSJub25lIiBzdHlsZT0iIi8+PC9nPjxnIGNsYXNzPSJhbm5vdGF0aW9uLWdyb3VwIHRleHQiIHRyYW5zZm9ybT0idHJhbnNsYXRlKDAsIC0xOTAuNSkiLz48ZyBjbGFzcz0ibGFiZWwtZ3JvdXAgdGV4dCIgdHJhbnNmb3JtPSJ0cmFuc2xhdGUoLTQ5Ljc5Mjk2ODc1LCAtMTkwLjUpIj48ZyBjbGFzcz0ibGFiZWwiIHN0eWxlPSJmb250LXdlaWdodDogYm9sZGVyIiB0cmFuc2Zvcm09InRyYW5zbGF0ZSgwLC0xMC41KSI+PGZvcmVpZ25PYmplY3Qgd2lkdGg9Ijk5LjU4NTkzNzUiIGhlaWdodD0iMjEiPjxkaXYgeG1sbnM9Imh0dHA6Ly93d3cudzMub3JnLzE5OTkveGh0bWwiIHN0eWxlPSJkaXNwbGF5OiB0YWJsZS1jZWxsOyB3aGl0ZS1zcGFjZTogbm9ybWFsOyBsaW5lLWhlaWdodDogMS41OyBtYXgtd2lkdGg6IDE3OXB4OyB0ZXh0LWFsaWduOiBjZW50ZXI7Ij48c3BhbiBjbGFzcz0ibm9kZUxhYmVsIG1hcmtkb3duLW5vZGUtbGFiZWwiIHN0eWxlPSIiPjxwPldpc2hMaXN0U2VydmljZTwvcD48L3NwYW4+PC9kaXY+PC9mb3JlaWduT2JqZWN0PjwvZz48L2c+PGcgY2xhc3M9Im1lbWJlcnMtZ3JvdXAgdGV4dCIgdHJhbnNmb3JtPSJ0cmFuc2xhdGUoLTE0Ny40MzU1NDY4NzUsIC0xNDUuNSkiPjxnIGNsYXNzPSJsYWJlbCIgc3R5bGU9IiIgdHJhbnNmb3JtPSJ0cmFuc2xhdGUoMCwtMTAuNSkiPjxmb3JlaWduT2JqZWN0IHdpZHRoPSIyNDUuMDc4MTI1IiBoZWlnaHQ9IjIxIj48ZGl2IHhtbG5zPSJodHRwOi8vd3d3LnczLm9yZy8xOTk5L3hodG1sIiBzdHlsZT0iZGlzcGxheTogdGFibGUtY2VsbDsgd2hpdGUtc3BhY2U6IG5vcm1hbDsgbGluZS1oZWlnaHQ6IDEuNTsgbWF4LXdpZHRoOiAzODJweDsgdGV4dC1hbGlnbjogY2VudGVyOyI+PHNwYW4gY2xhc3M9Im5vZGVMYWJlbCBtYXJrZG93bi1ub2RlLWxhYmVsIiBzdHlsZT0iIj48cD4tV2lzaExpc3RSZXBvc2l0b3J5IHdpc2hMaXN0UmVwb3NpdG9yeTwvcD48L3NwYW4+PC9kaXY+PC9mb3JlaWduT2JqZWN0PjwvZz48L2c+PGcgY2xhc3M9Im1ldGhvZHMtZ3JvdXAgdGV4dCIgdHJhbnNmb3JtPSJ0cmFuc2xhdGUoLTE0Ny40MzU1NDY4NzUsIC0xMDAuNSkiPjxnIGNsYXNzPSJsYWJlbCIgc3R5bGU9IiIgdHJhbnNmb3JtPSJ0cmFuc2xhdGUoMCwtMTAuNSkiPjxmb3JlaWduT2JqZWN0IHdpZHRoPSIyMzMuNzg5MDYyNSIgaGVpZ2h0PSIyMSI+PGRpdiB4bWxucz0iaHR0cDovL3d3dy53My5vcmcvMTk5OS94aHRtbCIgc3R5bGU9ImRpc3BsYXk6IHRhYmxlLWNlbGw7IHdoaXRlLXNwYWNlOiBub3JtYWw7IGxpbmUtaGVpZ2h0OiAxLjU7IG1heC13aWR0aDogMzY0cHg7IHRleHQtYWxpZ246IGNlbnRlcjsiPjxzcGFuIGNsYXNzPSJub2RlTGFiZWwgbWFya2Rvd24tbm9kZS1sYWJlbCIgc3R5bGU9IiI+PHA+K1dpc2hMaXN0U2VydmljZSh3aXNoTGlzdFJlcG9zaXRvcnkpPC9wPjwvc3Bhbj48L2Rpdj48L2ZvcmVpZ25PYmplY3Q+PC9nPjxnIGNsYXNzPSJsYWJlbCIgc3R5bGU9IiIgdHJhbnNmb3JtPSJ0cmFuc2xhdGUoMCwxMC41KSI+PGZvcmVpZ25PYmplY3Qgd2lkdGg9IjcwLjQyMTg3NSIgaGVpZ2h0PSIyMSI+PGRpdiB4bWxucz0iaHR0cDovL3d3dy53My5vcmcvMTk5OS94aHRtbCIgc3R5bGU9ImRpc3BsYXk6IHRhYmxlLWNlbGw7IHdoaXRlLXNwYWNlOiBub3JtYWw7IGxpbmUtaGVpZ2h0OiAxLjU7IG1heC13aWR0aDogMTQ3cHg7IHRleHQtYWxpZ246IGNlbnRlcjsiPjxzcGFuIGNsYXNzPSJub2RlTGFiZWwgbWFya2Rvd24tbm9kZS1sYWJlbCIgc3R5bGU9IiI+PHA+K2FkZFVzZXIoKTwvcD48L3NwYW4+PC9kaXY+PC9mb3JlaWduT2JqZWN0PjwvZz48ZyBjbGFzcz0ibGFiZWwiIHN0eWxlPSIiIHRyYW5zZm9ybT0idHJhbnNsYXRlKDAsMzEuNSkiPjxmb3JlaWduT2JqZWN0IHdpZHRoPSIxMDQuNjQ4NDM3NSIgaGVpZ2h0PSIyMSI+PGRpdiB4bWxucz0iaHR0cDovL3d3dy53My5vcmcvMTk5OS94aHRtbCIgc3R5bGU9ImRpc3BsYXk6IHRhYmxlLWNlbGw7IHdoaXRlLXNwYWNlOiBub3JtYWw7IGxpbmUtaGVpZ2h0OiAxLjU7IG1heC13aWR0aDogMTk0cHg7IHRleHQtYWxpZ246IGNlbnRlcjsiPjxzcGFuIGNsYXNzPSJub2RlTGFiZWwgbWFya2Rvd24tbm9kZS1sYWJlbCIgc3R5bGU9IiI+PHA+K2dldE1heFVzZXJJZCgpPC9wPjwvc3Bhbj48L2Rpdj48L2ZvcmVpZ25PYmplY3Q+PC9nPjxnIGNsYXNzPSJsYWJlbCIgc3R5bGU9IiIgdHJhbnNmb3JtPSJ0cmFuc2xhdGUoMCw1Mi41KSI+PGZvcmVpZ25PYmplY3Qgd2lkdGg9IjkzLjc1NzgxMjUiIGhlaWdodD0iMjEiPjxkaXYgeG1sbnM9Imh0dHA6Ly93d3cudzMub3JnLzE5OTkveGh0bWwiIHN0eWxlPSJkaXNwbGF5OiB0YWJsZS1jZWxsOyB3aGl0ZS1zcGFjZTogbm9ybWFsOyBsaW5lLWhlaWdodDogMS41OyBtYXgtd2lkdGg6IDE4MXB4OyB0ZXh0LWFsaWduOiBjZW50ZXI7Ij48c3BhbiBjbGFzcz0ibm9kZUxhYmVsIG1hcmtkb3duLW5vZGUtbGFiZWwiIHN0eWxlPSIiPjxwPithZGRXaXNoTGlzdCgpPC9wPjwvc3Bhbj48L2Rpdj48L2ZvcmVpZ25PYmplY3Q+PC9nPjxnIGNsYXNzPSJsYWJlbCIgc3R5bGU9IiIgdHJhbnNmb3JtPSJ0cmFuc2xhdGUoMCw3My41KSI+PGZvcmVpZ25PYmplY3Qgd2lkdGg9IjEzNS43NzM0Mzc1IiBoZWlnaHQ9IjIxIj48ZGl2IHhtbG5zPSJodHRwOi8vd3d3LnczLm9yZy8xOTk5L3hodG1sIiBzdHlsZT0iZGlzcGxheTogdGFibGUtY2VsbDsgd2hpdGUtc3BhY2U6IG5vcm1hbDsgbGluZS1oZWlnaHQ6IDEuNTsgbWF4LXdpZHRoOiAyMzdweDsgdGV4dC1hbGlnbjogY2VudGVyOyI+PHNwYW4gY2xhc3M9Im5vZGVMYWJlbCBtYXJrZG93bi1ub2RlLWxhYmVsIiBzdHlsZT0iIj48cD4rYWRkSXRlbVRvV2lzaExpc3QoKTwvcD48L3NwYW4+PC9kaXY+PC9mb3JlaWduT2JqZWN0PjwvZz48ZyBjbGFzcz0ibGFiZWwiIHN0eWxlPSIiIHRyYW5zZm9ybT0idHJhbnNsYXRlKDAsOTQuNSkiPjxmb3JlaWduT2JqZWN0IHdpZHRoPSIxMTIuNDIxODc1IiBoZWlnaHQ9IjIxIj48ZGl2IHhtbG5zPSJodHRwOi8vd3d3LnczLm9yZy8xOTk5L3hodG1sIiBzdHlsZT0iZGlzcGxheTogdGFibGUtY2VsbDsgd2hpdGUtc3BhY2U6IG5vcm1hbDsgbGluZS1oZWlnaHQ6IDEuNTsgbWF4LXdpZHRoOiAyMDlweDsgdGV4dC1hbGlnbjogY2VudGVyOyI+PHNwYW4gY2xhc3M9Im5vZGVMYWJlbCBtYXJrZG93bi1ub2RlLWxhYmVsIiBzdHlsZT0iIj48cD4rZ2V0QWxsV2lzaExpc3RzKCk8L3A+PC9zcGFuPjwvZGl2PjwvZm9yZWlnbk9iamVjdD48L2c+PGcgY2xhc3M9ImxhYmVsIiBzdHlsZT0iIiB0cmFuc2Zvcm09InRyYW5zbGF0ZSgwLDExNS41KSI+PGZvcmVpZ25PYmplY3Qgd2lkdGg9IjkyLjIwMzEyNSIgaGVpZ2h0PSIyMSI+PGRpdiB4bWxucz0iaHR0cDovL3d3dy53My5vcmcvMTk5OS94aHRtbCIgc3R5bGU9ImRpc3BsYXk6IHRhYmxlLWNlbGw7IHdoaXRlLXNwYWNlOiBub3JtYWw7IGxpbmUtaGVpZ2h0OiAxLjU7IG1heC13aWR0aDogMTg0cHg7IHRleHQtYWxpZ246IGNlbnRlcjsiPjxzcGFuIGNsYXNzPSJub2RlTGFiZWwgbWFya2Rvd24tbm9kZS1sYWJlbCIgc3R5bGU9IiI+PHA+K2dldEl0ZW1CeUlkKCk8L3A+PC9zcGFuPjwvZGl2PjwvZm9yZWlnbk9iamVjdD48L2c+PGcgY2xhc3M9ImxhYmVsIiBzdHlsZT0iIiB0cmFuc2Zvcm09InRyYW5zbGF0ZSgwLDEzNi41KSI+PGZvcmVpZ25PYmplY3Qgd2lkdGg9Ijg5LjA4NTkzNzUiIGhlaWdodD0iMjEiPjxkaXYgeG1sbnM9Imh0dHA6Ly93d3cudzMub3JnLzE5OTkveGh0bWwiIHN0eWxlPSJkaXNwbGF5OiB0YWJsZS1jZWxsOyB3aGl0ZS1zcGFjZTogbm9ybWFsOyBsaW5lLWhlaWdodDogMS41OyBtYXgtd2lkdGg6IDE3NXB4OyB0ZXh0LWFsaWduOiBjZW50ZXI7Ij48c3BhbiBjbGFzcz0ibm9kZUxhYmVsIG1hcmtkb3duLW5vZGUtbGFiZWwiIHN0eWxlPSIiPjxwPitnZXRBbGxVc2VycygpPC9wPjwvc3Bhbj48L2Rpdj48L2ZvcmVpZ25PYmplY3Q+PC9nPjxnIGNsYXNzPSJsYWJlbCIgc3R5bGU9IiIgdHJhbnNmb3JtPSJ0cmFuc2xhdGUoMCwxNTcuNSkiPjxmb3JlaWduT2JqZWN0IHdpZHRoPSIxNDcuNDM3NSIgaGVpZ2h0PSIyMSI+PGRpdiB4bWxucz0iaHR0cDovL3d3dy53My5vcmcvMTk5OS94aHRtbCIgc3R5bGU9ImRpc3BsYXk6IHRhYmxlLWNlbGw7IHdoaXRlLXNwYWNlOiBub3JtYWw7IGxpbmUtaGVpZ2h0OiAxLjU7IG1heC13aWR0aDogMjQycHg7IHRleHQtYWxpZ246IGNlbnRlcjsiPjxzcGFuIGNsYXNzPSJub2RlTGFiZWwgbWFya2Rvd24tbm9kZS1sYWJlbCIgc3R5bGU9IiI+PHA+K2dldFVzZXJCeVVzZXJuYW1lKCk8L3A+PC9zcGFuPjwvZGl2PjwvZm9yZWlnbk9iamVjdD48L2c+PGcgY2xhc3M9ImxhYmVsIiBzdHlsZT0iIiB0cmFuc2Zvcm09InRyYW5zbGF0ZSgwLDE3OC41KSI+PGZvcmVpZ25PYmplY3Qgd2lkdGg9Ijk0LjUzOTA2MjUiIGhlaWdodD0iMjEiPjxkaXYgeG1sbnM9Imh0dHA6Ly93d3cudzMub3JnLzE5OTkveGh0bWwiIHN0eWxlPSJkaXNwbGF5OiB0YWJsZS1jZWxsOyB3aGl0ZS1zcGFjZTogbm9ybWFsOyBsaW5lLWhlaWdodDogMS41OyBtYXgtd2lkdGg6IDE4MXB4OyB0ZXh0LWFsaWduOiBjZW50ZXI7Ij48c3BhbiBjbGFzcz0ibm9kZUxhYmVsIG1hcmtkb3duLW5vZGUtbGFiZWwiIHN0eWxlPSIiPjxwPitnZXRVc2VyQnlJZCgpPC9wPjwvc3Bhbj48L2Rpdj48L2ZvcmVpZ25PYmplY3Q+PC9nPjxnIGNsYXNzPSJsYWJlbCIgc3R5bGU9IiIgdHJhbnNmb3JtPSJ0cmFuc2xhdGUoMCwxOTkuNSkiPjxmb3JlaWduT2JqZWN0IHdpZHRoPSIxNzAuNzY1NjI1IiBoZWlnaHQ9IjIxIj48ZGl2IHhtbG5zPSJodHRwOi8vd3d3LnczLm9yZy8xOTk5L3hodG1sIiBzdHlsZT0iZGlzcGxheTogdGFibGUtY2VsbDsgd2hpdGUtc3BhY2U6IG5vcm1hbDsgbGluZS1oZWlnaHQ6IDEuNTsgbWF4LXdpZHRoOiAyNzhweDsgdGV4dC1hbGlnbjogY2VudGVyOyI+PHNwYW4gY2xhc3M9Im5vZGVMYWJlbCBtYXJrZG93bi1ub2RlLWxhYmVsIiBzdHlsZT0iIj48cD4rZ2V0VXNlcm5hbWVGb3JXaXNobGlzdCgpPC9wPjwvc3Bhbj48L2Rpdj48L2ZvcmVpZ25PYmplY3Q+PC9nPjxnIGNsYXNzPSJsYWJlbCIgc3R5bGU9IiIgdHJhbnNmb3JtPSJ0cmFuc2xhdGUoMCwyMjAuNSkiPjxmb3JlaWduT2JqZWN0IHdpZHRoPSIxMDguNTQ2ODc1IiBoZWlnaHQ9IjIxIj48ZGl2IHhtbG5zPSJodHRwOi8vd3d3LnczLm9yZy8xOTk5L3hodG1sIiBzdHlsZT0iZGlzcGxheTogdGFibGUtY2VsbDsgd2hpdGUtc3BhY2U6IG5vcm1hbDsgbGluZS1oZWlnaHQ6IDEuNTsgbWF4LXdpZHRoOiAyMDNweDsgdGV4dC1hbGlnbjogY2VudGVyOyI+PHNwYW4gY2xhc3M9Im5vZGVMYWJlbCBtYXJrZG93bi1ub2RlLWxhYmVsIiBzdHlsZT0iIj48cD4rZGVsZXRlV2lzaExpc3QoKTwvcD48L3NwYW4+PC9kaXY+PC9mb3JlaWduT2JqZWN0PjwvZz48ZyBjbGFzcz0ibGFiZWwiIHN0eWxlPSIiIHRyYW5zZm9ybT0idHJhbnNsYXRlKDAsMjQxLjUpIj48Zm9yZWlnbk9iamVjdCB3aWR0aD0iODIuODc1IiBoZWlnaHQ9IjIxIj48ZGl2IHhtbG5zPSJodHRwOi8vd3d3LnczLm9yZy8xOTk5L3hodG1sIiBzdHlsZT0iZGlzcGxheTogdGFibGUtY2VsbDsgd2hpdGUtc3BhY2U6IG5vcm1hbDsgbGluZS1oZWlnaHQ6IDEuNTsgbWF4LXdpZHRoOiAxNzNweDsgdGV4dC1hbGlnbjogY2VudGVyOyI+PHNwYW4gY2xhc3M9Im5vZGVMYWJlbCBtYXJrZG93bi1ub2RlLWxhYmVsIiBzdHlsZT0iIj48cD4rZGVsZXRlSXRlbSgpPC9wPjwvc3Bhbj48L2Rpdj48L2ZvcmVpZ25PYmplY3Q+PC9nPjxnIGNsYXNzPSJsYWJlbCIgc3R5bGU9IiIgdHJhbnNmb3JtPSJ0cmFuc2xhdGUoMCwyNjIuNSkiPjxmb3JlaWduT2JqZWN0IHdpZHRoPSI4Ny41NTQ2ODc1IiBoZWlnaHQ9IjIxIj48ZGl2IHhtbG5zPSJodHRwOi8vd3d3LnczLm9yZy8xOTk5L3hodG1sIiBzdHlsZT0iZGlzcGxheTogdGFibGUtY2VsbDsgd2hpdGUtc3BhY2U6IG5vcm1hbDsgbGluZS1oZWlnaHQ6IDEuNTsgbWF4LXdpZHRoOiAxNzdweDsgdGV4dC1hbGlnbjogY2VudGVyOyI+PHNwYW4gY2xhc3M9Im5vZGVMYWJlbCBtYXJrZG93bi1ub2RlLWxhYmVsIiBzdHlsZT0iIj48cD4rdXBkYXRlSXRlbSgpPC9wPjwvc3Bhbj48L2Rpdj48L2ZvcmVpZ25PYmplY3Q+PC9nPjxnIGNsYXNzPSJsYWJlbCIgc3R5bGU9IiIgdHJhbnNmb3JtPSJ0cmFuc2xhdGUoMCwyODMuNSkiPjxmb3JlaWduT2JqZWN0IHdpZHRoPSIxNTIuMTAxNTYyNSIgaGVpZ2h0PSIyMSI+PGRpdiB4bWxucz0iaHR0cDovL3d3dy53My5vcmcvMTk5OS94aHRtbCIgc3R5bGU9ImRpc3BsYXk6IHRhYmxlLWNlbGw7IHdoaXRlLXNwYWNlOiBub3JtYWw7IGxpbmUtaGVpZ2h0OiAxLjU7IG1heC13aWR0aDogMjYycHg7IHRleHQtYWxpZ246IGNlbnRlcjsiPjxzcGFuIGNsYXNzPSJub2RlTGFiZWwgbWFya2Rvd24tbm9kZS1sYWJlbCIgc3R5bGU9IiI+PHA+K2dldEl0ZW1zQnlXaXNoTGlzdElkKCk8L3A+PC9zcGFuPjwvZGl2PjwvZm9yZWlnbk9iamVjdD48L2c+PC9nPjxnIGNsYXNzPSJkaXZpZGVyIiBzdHlsZT0iIj48cGF0aCBkPSJNLTE1OS40MzU1NDY4NzUgLTE2OS41IEMtNTcuOTQ5MTk2ODk1NzA2NzYgLTE2OS40OTk2ODE3MzIzNjE1NSwgNDMuNTM3MTUzMDgzNTg2NDc1IC0xNjkuNDk5MzYzNDY0NzIzMDcsIDE1OS40MzU1NDY4NzUgLTE2OS40OTkgTS0xNTkuNDM1NTQ2ODc1IC0xNjkuNSBDLTMzLjgyNDI4NTYwNDc2ODU1IC0xNjkuNDk5NjA2MDc1MTA3NjYsIDkxLjc4Njk3NTY2NTQ2MjkgLTE2OS40OTkyMTIxNTAyMTUzNiwgMTU5LjQzNTU0Njg3NSAtMTY5LjQ5OSIgc3Ryb2tlPSIjMDAwMDAwIiBzdHJva2Utd2lkdGg9IjEuMyIgZmlsbD0ibm9uZSIgc3R5bGU9IiIvPjwvZz48ZyBjbGFzcz0iZGl2aWRlciIgc3R5bGU9IiI+PHBhdGggZD0iTS0xNTkuNDM1NTQ2ODc1IC0xMjQuNSBDLTU1LjM2MDAyMzA2MjY3NTU5NCAtMTI0LjQ5OTY3MzYxMjU0Nzk4LCA0OC43MTU1MDA3NDk2NDg4MSAtMTI0LjQ5OTM0NzIyNTA5NTk2LCAxNTkuNDM1NTQ2ODc1IC0xMjQuNDk5IE0tMTU5LjQzNTU0Njg3NSAtMTI0LjUgQy03Ny4yMjk0MzEyNDIwNjkyMyAtMTI0LjQ5OTc0MjE5NjQwMDg1LCA0Ljk3NjY4NDM5MDg2MTU1IC0xMjQuNDk5NDg0MzkyODAxNywgMTU5LjQzNTU0Njg3NSAtMTI0LjQ5OSIgc3Ryb2tlPSIjMDAwMDAwIiBzdHJva2Utd2lkdGg9IjEuMyIgZmlsbD0ibm9uZSIgc3R5bGU9IiIvPjwvZz48L2c+PGcgY2xhc3M9Im5vZGUgZGVmYXVsdCIgaWQ9ImNsYXNzSWQtV2lzaExpc3RDb250cm9sbGVyLTIzIiBkYXRhLWlkPSJXaXNoTGlzdENvbnRyb2xsZXIiIGRhdGEtbm9kZT0idHJ1ZSIgZGF0YS1ldD0ibm9kZSIgZGF0YS1sb29rPSJuZW8iIHRyYW5zZm9ybT0idHJhbnNsYXRlKDE2Mi4xNzc3MzQzNzUsIDczMykiPjxnIGNsYXNzPSJiYXNpYyBsYWJlbC1jb250YWluZXIgb3V0ZXItcGF0aCI+PHBhdGggZD0iTS0xNTQuMTc3NzM0Mzc1IC0yNDYgTDE1NC4xNzc3MzQzNzUgLTI0NiBMMTU0LjE3NzczNDM3NSAyNDYgTC0xNTQuMTc3NzM0Mzc1IDI0NiIgc3Ryb2tlPSJub25lIiBzdHJva2Utd2lkdGg9IjAiIGZpbGw9IiNmZmZmZmYiIHN0eWxlPSIiLz48cGF0aCBkPSJNLTE1NC4xNzc3MzQzNzUgLTI0NiBDLTM0LjIwMjcyODc3NTczMzMwNiAtMjQ2LCA4NS43NzIyNzY4MjM1MzMzOSAtMjQ2LCAxNTQuMTc3NzM0Mzc1IC0yNDYgTS0xNTQuMTc3NzM0Mzc1IC0yNDYgQy0zMS41OTEyNzIyMTAwNjAyNjggLTI0NiwgOTAuOTk1MTg5OTU0ODc5NDYgLTI0NiwgMTU0LjE3NzczNDM3NSAtMjQ2IE0xNTQuMTc3NzM0Mzc1IC0yNDYgQzE1NC4xNzc3MzQzNzUgLTExOS4xNDk2ODE1MTcyNjIzNywgMTU0LjE3NzczNDM3NSA3LjcwMDYzNjk2NTQ3NTI2OSwgMTU0LjE3NzczNDM3NSAyNDYgTTE1NC4xNzc3MzQzNzUgLTI0NiBDMTU0LjE3NzczNDM3NSAtMTAwLjU1ODU2ODMwOTcyOTcxLCAxNTQuMTc3NzM0Mzc1IDQ0Ljg4Mjg2MzM4MDU0MDU4NCwgMTU0LjE3NzczNDM3NSAyNDYgTTE1NC4xNzc3MzQzNzUgMjQ2IEM4MS4wOTU0ODYxMjgyNDAyNCAyNDYsIDguMDEzMjM3ODgxNDgwNDc4IDI0NiwgLTE1NC4xNzc3MzQzNzUgMjQ2IE0xNTQuMTc3NzM0Mzc1IDI0NiBDNjEuMDM0ODg1MTM3NDExOTMgMjQ2LCAtMzIuMTA3OTY0MTAwMTc2MTMgMjQ2LCAtMTU0LjE3NzczNDM3NSAyNDYgTS0xNTQuMTc3NzM0Mzc1IDI0NiBDLTE1NC4xNzc3MzQzNzUgMTEyLjI2MTU1Mzc0MjM3MDk1LCAtMTU0LjE3NzczNDM3NSAtMjEuNDc2ODkyNTE1MjU4MSwgLTE1NC4xNzc3MzQzNzUgLTI0NiBNLTE1NC4xNzc3MzQzNzUgMjQ2IEMtMTU0LjE3NzczNDM3NSA3Ni40NDk0MzMwOTI5MjU3MiwgLTE1NC4xNzc3MzQzNzUgLTkzLjEwMTEzMzgxNDE0ODU3LCAtMTU0LjE3NzczNDM3NSAtMjQ2IiBzdHJva2U9IiMwMDAwMDAiIHN0cm9rZS13aWR0aD0iMS4zIiBmaWxsPSJub25lIiBzdHlsZT0iIi8+PC9nPjxnIGNsYXNzPSJhbm5vdGF0aW9uLWdyb3VwIHRleHQiIHRyYW5zZm9ybT0idHJhbnNsYXRlKDAsIC0yMjIpIi8+PGcgY2xhc3M9ImxhYmVsLWdyb3VwIHRleHQiIHRyYW5zZm9ybT0idHJhbnNsYXRlKC01Ni43OTI5Njg3NSwgLTIyMikiPjxnIGNsYXNzPSJsYWJlbCIgc3R5bGU9ImZvbnQtd2VpZ2h0OiBib2xkZXIiIHRyYW5zZm9ybT0idHJhbnNsYXRlKDAsLTEwLjUpIj48Zm9yZWlnbk9iamVjdCB3aWR0aD0iMTEzLjU4NTkzNzUiIGhlaWdodD0iMjEiPjxkaXYgeG1sbnM9Imh0dHA6Ly93d3cudzMub3JnLzE5OTkveGh0bWwiIHN0eWxlPSJkaXNwbGF5OiB0YWJsZS1jZWxsOyB3aGl0ZS1zcGFjZTogbm9ybWFsOyBsaW5lLWhlaWdodDogMS41OyBtYXgtd2lkdGg6IDIwMXB4OyB0ZXh0LWFsaWduOiBjZW50ZXI7Ij48c3BhbiBjbGFzcz0ibm9kZUxhYmVsIG1hcmtkb3duLW5vZGUtbGFiZWwiIHN0eWxlPSIiPjxwPldpc2hMaXN0Q29udHJvbGxlcjwvcD48L3NwYW4+PC9kaXY+PC9mb3JlaWduT2JqZWN0PjwvZz48L2c+PGcgY2xhc3M9Im1lbWJlcnMtZ3JvdXAgdGV4dCIgdHJhbnNmb3JtPSJ0cmFuc2xhdGUoLTE0Mi4xNzc3MzQzNzUsIC0xNzcpIj48ZyBjbGFzcz0ibGFiZWwiIHN0eWxlPSIiIHRyYW5zZm9ybT0idHJhbnNsYXRlKDAsLTEwLjUpIj48Zm9yZWlnbk9iamVjdCB3aWR0aD0iMjA0LjYwOTM3NSIgaGVpZ2h0PSIyMSI+PGRpdiB4bWxucz0iaHR0cDovL3d3dy53My5vcmcvMTk5OS94aHRtbCIgc3R5bGU9ImRpc3BsYXk6IHRhYmxlLWNlbGw7IHdoaXRlLXNwYWNlOiBub3JtYWw7IGxpbmUtaGVpZ2h0OiAxLjU7IG1heC13aWR0aDogMzI3cHg7IHRleHQtYWxpZ246IGNlbnRlcjsiPjxzcGFuIGNsYXNzPSJub2RlTGFiZWwgbWFya2Rvd24tbm9kZS1sYWJlbCIgc3R5bGU9IiI+PHA+LVdpc2hMaXN0U2VydmljZSB3aXNoTGlzdFNlcnZpY2U8L3A+PC9zcGFuPjwvZGl2PjwvZm9yZWlnbk9iamVjdD48L2c+PC9nPjxnIGNsYXNzPSJtZXRob2RzLWdyb3VwIHRleHQiIHRyYW5zZm9ybT0idHJhbnNsYXRlKC0xNDIuMTc3NzM0Mzc1LCAtMTMyKSI+PGcgY2xhc3M9ImxhYmVsIiBzdHlsZT0iIiB0cmFuc2Zvcm09InRyYW5zbGF0ZSgwLC0xMC41KSI+PGZvcmVpZ25PYmplY3Qgd2lkdGg9IjIyNy41NjI1IiBoZWlnaHQ9IjIxIj48ZGl2IHhtbG5zPSJodHRwOi8vd3d3LnczLm9yZy8xOTk5L3hodG1sIiBzdHlsZT0iZGlzcGxheTogdGFibGUtY2VsbDsgd2hpdGUtc3BhY2U6IG5vcm1hbDsgbGluZS1oZWlnaHQ6IDEuNTsgbWF4LXdpZHRoOiAzNThweDsgdGV4dC1hbGlnbjogY2VudGVyOyI+PHNwYW4gY2xhc3M9Im5vZGVMYWJlbCBtYXJrZG93bi1ub2RlLWxhYmVsIiBzdHlsZT0iIj48cD4rV2lzaExpc3RDb250cm9sbGVyKHdpc2hMaXN0U2VydmljZSk8L3A+PC9zcGFuPjwvZGl2PjwvZm9yZWlnbk9iamVjdD48L2c+PGcgY2xhc3M9ImxhYmVsIiBzdHlsZT0iIiB0cmFuc2Zvcm09InRyYW5zbGF0ZSgwLDEwLjUpIj48Zm9yZWlnbk9iamVjdCB3aWR0aD0iODIuNDkyMTg3NSIgaGVpZ2h0PSIyMSI+PGRpdiB4bWxucz0iaHR0cDovL3d3dy53My5vcmcvMTk5OS94aHRtbCIgc3R5bGU9ImRpc3BsYXk6IHRhYmxlLWNlbGw7IHdoaXRlLXNwYWNlOiBub3JtYWw7IGxpbmUtaGVpZ2h0OiAxLjU7IG1heC13aWR0aDogMTY4cHg7IHRleHQtYWxpZ246IGNlbnRlcjsiPjxzcGFuIGNsYXNzPSJub2RlTGFiZWwgbWFya2Rvd24tbm9kZS1sYWJlbCIgc3R5bGU9IiI+PHA+LWlzTG9nZ2VkSW4oKTwvcD48L3NwYW4+PC9kaXY+PC9mb3JlaWduT2JqZWN0PjwvZz48ZyBjbGFzcz0ibGFiZWwiIHN0eWxlPSIiIHRyYW5zZm9ybT0idHJhbnNsYXRlKDAsMzEuNSkiPjxmb3JlaWduT2JqZWN0IHdpZHRoPSI4NS4yMTg3NSIgaGVpZ2h0PSIyMSI+PGRpdiB4bWxucz0iaHR0cDovL3d3dy53My5vcmcvMTk5OS94aHRtbCIgc3R5bGU9ImRpc3BsYXk6IHRhYmxlLWNlbGw7IHdoaXRlLXNwYWNlOiBub3JtYWw7IGxpbmUtaGVpZ2h0OiAxLjU7IG1heC13aWR0aDogMTYycHg7IHRleHQtYWxpZ246IGNlbnRlcjsiPjxzcGFuIGNsYXNzPSJub2RlTGFiZWwgbWFya2Rvd24tbm9kZS1sYWJlbCIgc3R5bGU9IiI+PHA+K2hvbWVQYWdlKCk8L3A+PC9zcGFuPjwvZGl2PjwvZm9yZWlnbk9iamVjdD48L2c+PGcgY2xhc3M9ImxhYmVsIiBzdHlsZT0iIiB0cmFuc2Zvcm09InRyYW5zbGF0ZSgwLDUyLjUpIj48Zm9yZWlnbk9iamVjdCB3aWR0aD0iMTE3LjEwMTU2MjUiIGhlaWdodD0iMjEiPjxkaXYgeG1sbnM9Imh0dHA6Ly93d3cudzMub3JnLzE5OTkveGh0bWwiIHN0eWxlPSJkaXNwbGF5OiB0YWJsZS1jZWxsOyB3aGl0ZS1zcGFjZTogbm9ybWFsOyBsaW5lLWhlaWdodDogMS41OyBtYXgtd2lkdGg6IDIwNXB4OyB0ZXh0LWFsaWduOiBjZW50ZXI7Ij48c3BhbiBjbGFzcz0ibm9kZUxhYmVsIG1hcmtkb3duLW5vZGUtbGFiZWwiIHN0eWxlPSIiPjxwPitzaG93TG9naW5Gb3JtKCk8L3A+PC9zcGFuPjwvZGl2PjwvZm9yZWlnbk9iamVjdD48L2c+PGcgY2xhc3M9ImxhYmVsIiBzdHlsZT0iIiB0cmFuc2Zvcm09InRyYW5zbGF0ZSgwLDczLjUpIj48Zm9yZWlnbk9iamVjdCB3aWR0aD0iNzYuNjQwNjI1IiBoZWlnaHQ9IjIxIj48ZGl2IHhtbG5zPSJodHRwOi8vd3d3LnczLm9yZy8xOTk5L3hodG1sIiBzdHlsZT0iZGlzcGxheTogdGFibGUtY2VsbDsgd2hpdGUtc3BhY2U6IG5vcm1hbDsgbGluZS1oZWlnaHQ6IDEuNTsgbWF4LXdpZHRoOiAxNThweDsgdGV4dC1hbGlnbjogY2VudGVyOyI+PHNwYW4gY2xhc3M9Im5vZGVMYWJlbCBtYXJrZG93bi1ub2RlLWxhYmVsIiBzdHlsZT0iIj48cD4rbG9naW5Vc2VyKCk8L3A+PC9zcGFuPjwvZGl2PjwvZm9yZWlnbk9iamVjdD48L2c+PGcgY2xhc3M9ImxhYmVsIiBzdHlsZT0iIiB0cmFuc2Zvcm09InRyYW5zbGF0ZSgwLDk0LjUpIj48Zm9yZWlnbk9iamVjdCB3aWR0aD0iMTI2LjQzNzUiIGhlaWdodD0iMjEiPjxkaXYgeG1sbnM9Imh0dHA6Ly93d3cudzMub3JnLzE5OTkveGh0bWwiIHN0eWxlPSJkaXNwbGF5OiB0YWJsZS1jZWxsOyB3aGl0ZS1zcGFjZTogbm9ybWFsOyBsaW5lLWhlaWdodDogMS41OyBtYXgtd2lkdGg6IDIxNXB4OyB0ZXh0LWFsaWduOiBjZW50ZXI7Ij48c3BhbiBjbGFzcz0ibm9kZUxhYmVsIG1hcmtkb3duLW5vZGUtbGFiZWwiIHN0eWxlPSIiPjxwPitzaG93U2lnbnVwRm9ybSgpPC9wPjwvc3Bhbj48L2Rpdj48L2ZvcmVpZ25PYmplY3Q+PC9nPjxnIGNsYXNzPSJsYWJlbCIgc3R5bGU9IiIgdHJhbnNmb3JtPSJ0cmFuc2xhdGUoMCwxMTUuNSkiPjxmb3JlaWduT2JqZWN0IHdpZHRoPSIxMDMuMTQwNjI1IiBoZWlnaHQ9IjIxIj48ZGl2IHhtbG5zPSJodHRwOi8vd3d3LnczLm9yZy8xOTk5L3hodG1sIiBzdHlsZT0iZGlzcGxheTogdGFibGUtY2VsbDsgd2hpdGUtc3BhY2U6IG5vcm1hbDsgbGluZS1oZWlnaHQ6IDEuNTsgbWF4LXdpZHRoOiAxODlweDsgdGV4dC1hbGlnbjogY2VudGVyOyI+PHNwYW4gY2xhc3M9Im5vZGVMYWJlbCBtYXJrZG93bi1ub2RlLWxhYmVsIiBzdHlsZT0iIj48cD4raGFuZGxlU2lnbnVwKCk8L3A+PC9zcGFuPjwvZGl2PjwvZm9yZWlnbk9iamVjdD48L2c+PGcgY2xhc3M9ImxhYmVsIiBzdHlsZT0iIiB0cmFuc2Zvcm09InRyYW5zbGF0ZSgwLDEzNi41KSI+PGZvcmVpZ25PYmplY3Qgd2lkdGg9IjE1NS45NzY1NjI1IiBoZWlnaHQ9IjIxIj48ZGl2IHhtbG5zPSJodHRwOi8vd3d3LnczLm9yZy8xOTk5L3hodG1sIiBzdHlsZT0iZGlzcGxheTogdGFibGUtY2VsbDsgd2hpdGUtc3BhY2U6IG5vcm1hbDsgbGluZS1oZWlnaHQ6IDEuNTsgbWF4LXdpZHRoOiAyNThweDsgdGV4dC1hbGlnbjogY2VudGVyOyI+PHNwYW4gY2xhc3M9Im5vZGVMYWJlbCBtYXJrZG93bi1ub2RlLWxhYmVsIiBzdHlsZT0iIj48cD4rc2hvd0FkZFdpc2hsaXN0Rm9ybSgpPC9wPjwvc3Bhbj48L2Rpdj48L2ZvcmVpZ25PYmplY3Q+PC9nPjxnIGNsYXNzPSJsYWJlbCIgc3R5bGU9IiIgdHJhbnNmb3JtPSJ0cmFuc2xhdGUoMCwxNTcuNSkiPjxmb3JlaWduT2JqZWN0IHdpZHRoPSI4OS4wODU5Mzc1IiBoZWlnaHQ9IjIxIj48ZGl2IHhtbG5zPSJodHRwOi8vd3d3LnczLm9yZy8xOTk5L3hodG1sIiBzdHlsZT0iZGlzcGxheTogdGFibGUtY2VsbDsgd2hpdGUtc3BhY2U6IG5vcm1hbDsgbGluZS1oZWlnaHQ6IDEuNTsgbWF4LXdpZHRoOiAxNzdweDsgdGV4dC1hbGlnbjogY2VudGVyOyI+PHNwYW4gY2xhc3M9Im5vZGVMYWJlbCBtYXJrZG93bi1ub2RlLWxhYmVsIiBzdHlsZT0iIj48cD4rYWRkV2lzaGxpc3QoKTwvcD48L3NwYW4+PC9kaXY+PC9mb3JlaWduT2JqZWN0PjwvZz48ZyBjbGFzcz0ibGFiZWwiIHN0eWxlPSIiIHRyYW5zZm9ybT0idHJhbnNsYXRlKDAsMTc4LjUpIj48Zm9yZWlnbk9iamVjdCB3aWR0aD0iMTAzLjg2NzE4NzUiIGhlaWdodD0iMjEiPjxkaXYgeG1sbnM9Imh0dHA6Ly93d3cudzMub3JnLzE5OTkveGh0bWwiIHN0eWxlPSJkaXNwbGF5OiB0YWJsZS1jZWxsOyB3aGl0ZS1zcGFjZTogbm9ybWFsOyBsaW5lLWhlaWdodDogMS41OyBtYXgtd2lkdGg6IDIwMHB4OyB0ZXh0LWFsaWduOiBjZW50ZXI7Ij48c3BhbiBjbGFzcz0ibm9kZUxhYmVsIG1hcmtkb3duLW5vZGUtbGFiZWwiIHN0eWxlPSIiPjxwPitkZWxldGVXaXNobGlzdCgpPC9wPjwvc3Bhbj48L2Rpdj48L2ZvcmVpZ25PYmplY3Q+PC9nPjxnIGNsYXNzPSJsYWJlbCIgc3R5bGU9IiIgdHJhbnNmb3JtPSJ0cmFuc2xhdGUoMCwxOTkuNSkiPjxmb3JlaWduT2JqZWN0IHdpZHRoPSIxMzguODY3MTg3NSIgaGVpZ2h0PSIyMSI+PGRpdiB4bWxucz0iaHR0cDovL3d3dy53My5vcmcvMTk5OS94aHRtbCIgc3R5bGU9ImRpc3BsYXk6IHRhYmxlLWNlbGw7IHdoaXRlLXNwYWNlOiBub3JtYWw7IGxpbmUtaGVpZ2h0OiAxLjU7IG1heC13aWR0aDogMjMwcHg7IHRleHQtYWxpZ246IGNlbnRlcjsiPjxzcGFuIGNsYXNzPSJub2RlTGFiZWwgbWFya2Rvd24tbm9kZS1sYWJlbCIgc3R5bGU9IiI+PHA+K3Nob3dBZGRXaXNoRm9ybSgpPC9wPjwvc3Bhbj48L2Rpdj48L2ZvcmVpZ25PYmplY3Q+PC9nPjxnIGNsYXNzPSJsYWJlbCIgc3R5bGU9IiIgdHJhbnNmb3JtPSJ0cmFuc2xhdGUoMCwyMjAuNSkiPjxmb3JlaWduT2JqZWN0IHdpZHRoPSIxMDguNTQ2ODc1IiBoZWlnaHQ9IjIxIj48ZGl2IHhtbG5zPSJodHRwOi8vd3d3LnczLm9yZy8xOTk5L3hodG1sIiBzdHlsZT0iZGlzcGxheTogdGFibGUtY2VsbDsgd2hpdGUtc3BhY2U6IG5vcm1hbDsgbGluZS1oZWlnaHQ6IDEuNTsgbWF4LXdpZHRoOiAxOThweDsgdGV4dC1hbGlnbjogY2VudGVyOyI+PHNwYW4gY2xhc3M9Im5vZGVMYWJlbCBtYXJrZG93bi1ub2RlLWxhYmVsIiBzdHlsZT0iIj48cD4rYWRkV2lzaFRvTGlzdCgpPC9wPjwvc3Bhbj48L2Rpdj48L2ZvcmVpZ25PYmplY3Q+PC9nPjxnIGNsYXNzPSJsYWJlbCIgc3R5bGU9IiIgdHJhbnNmb3JtPSJ0cmFuc2xhdGUoMCwyNDEuNSkiPjxmb3JlaWduT2JqZWN0IHdpZHRoPSIxMzAuMjg5MDYyNSIgaGVpZ2h0PSIyMSI+PGRpdiB4bWxucz0iaHR0cDovL3d3dy53My5vcmcvMTk5OS94aHRtbCIgc3R5bGU9ImRpc3BsYXk6IHRhYmxlLWNlbGw7IHdoaXRlLXNwYWNlOiBub3JtYWw7IGxpbmUtaGVpZ2h0OiAxLjU7IG1heC13aWR0aDogMjMxcHg7IHRleHQtYWxpZ246IGNlbnRlcjsiPjxzcGFuIGNsYXNzPSJub2RlTGFiZWwgbWFya2Rvd24tbm9kZS1sYWJlbCIgc3R5bGU9IiI+PHA+K3ZpZXdVc2VyV2lzaGxpc3RzKCk8L3A+PC9zcGFuPjwvZGl2PjwvZm9yZWlnbk9iamVjdD48L2c+PGcgY2xhc3M9ImxhYmVsIiBzdHlsZT0iIiB0cmFuc2Zvcm09InRyYW5zbGF0ZSgwLDI2Mi41KSI+PGZvcmVpZ25PYmplY3Qgd2lkdGg9IjkzLjczNDM3NSIgaGVpZ2h0PSIyMSI+PGRpdiB4bWxucz0iaHR0cDovL3d3dy53My5vcmcvMTk5OS94aHRtbCIgc3R5bGU9ImRpc3BsYXk6IHRhYmxlLWNlbGw7IHdoaXRlLXNwYWNlOiBub3JtYWw7IGxpbmUtaGVpZ2h0OiAxLjU7IG1heC13aWR0aDogMTg2cHg7IHRleHQtYWxpZ246IGNlbnRlcjsiPjxzcGFuIGNsYXNzPSJub2RlTGFiZWwgbWFya2Rvd24tbm9kZS1sYWJlbCIgc3R5bGU9IiI+PHA+K3ZpZXdXaXNobGlzdCgpPC9wPjwvc3Bhbj48L2Rpdj48L2ZvcmVpZ25PYmplY3Q+PC9nPjxnIGNsYXNzPSJsYWJlbCIgc3R5bGU9IiIgdHJhbnNmb3JtPSJ0cmFuc2xhdGUoMCwyODMuNSkiPjxmb3JlaWduT2JqZWN0IHdpZHRoPSIxMzguMDg1OTM3NSIgaGVpZ2h0PSIyMSI+PGRpdiB4bWxucz0iaHR0cDovL3d3dy53My5vcmcvMTk5OS94aHRtbCIgc3R5bGU9ImRpc3BsYXk6IHRhYmxlLWNlbGw7IHdoaXRlLXNwYWNlOiBub3JtYWw7IGxpbmUtaGVpZ2h0OiAxLjU7IG1heC13aWR0aDogMjMycHg7IHRleHQtYWxpZ246IGNlbnRlcjsiPjxzcGFuIGNsYXNzPSJub2RlTGFiZWwgbWFya2Rvd24tbm9kZS1sYWJlbCIgc3R5bGU9IiI+PHA+K3Nob3dFZGl0V2lzaEZvcm0oKTwvcD48L3NwYW4+PC9kaXY+PC9mb3JlaWduT2JqZWN0PjwvZz48ZyBjbGFzcz0ibGFiZWwiIHN0eWxlPSIiIHRyYW5zZm9ybT0idHJhbnNsYXRlKDAsMzA0LjUpIj48Zm9yZWlnbk9iamVjdCB3aWR0aD0iNzEuMTg3NSIgaGVpZ2h0PSIyMSI+PGRpdiB4bWxucz0iaHR0cDovL3d3dy53My5vcmcvMTk5OS94aHRtbCIgc3R5bGU9ImRpc3BsYXk6IHRhYmxlLWNlbGw7IHdoaXRlLXNwYWNlOiBub3JtYWw7IGxpbmUtaGVpZ2h0OiAxLjU7IG1heC13aWR0aDogMTU0cHg7IHRleHQtYWxpZ246IGNlbnRlcjsiPjxzcGFuIGNsYXNzPSJub2RlTGFiZWwgbWFya2Rvd24tbm9kZS1sYWJlbCIgc3R5bGU9IiI+PHA+K2VkaXRXaXNoKCk8L3A+PC9zcGFuPjwvZGl2PjwvZm9yZWlnbk9iamVjdD48L2c+PGcgY2xhc3M9ImxhYmVsIiBzdHlsZT0iIiB0cmFuc2Zvcm09InRyYW5zbGF0ZSgwLDMyNS41KSI+PGZvcmVpZ25PYmplY3Qgd2lkdGg9Ijg2Ljc1NzgxMjUiIGhlaWdodD0iMjEiPjxkaXYgeG1sbnM9Imh0dHA6Ly93d3cudzMub3JnLzE5OTkveGh0bWwiIHN0eWxlPSJkaXNwbGF5OiB0YWJsZS1jZWxsOyB3aGl0ZS1zcGFjZTogbm9ybWFsOyBsaW5lLWhlaWdodDogMS41OyBtYXgtd2lkdGg6IDE3M3B4OyB0ZXh0LWFsaWduOiBjZW50ZXI7Ij48c3BhbiBjbGFzcz0ibm9kZUxhYmVsIG1hcmtkb3duLW5vZGUtbGFiZWwiIHN0eWxlPSIiPjxwPitkZWxldGVXaXNoKCk8L3A+PC9zcGFuPjwvZGl2PjwvZm9yZWlnbk9iamVjdD48L2c+PGcgY2xhc3M9ImxhYmVsIiBzdHlsZT0iIiB0cmFuc2Zvcm09InRyYW5zbGF0ZSgwLDM0Ni41KSI+PGZvcmVpZ25PYmplY3Qgd2lkdGg9IjU1LjY0ODQzNzUiIGhlaWdodD0iMjEiPjxkaXYgeG1sbnM9Imh0dHA6Ly93d3cudzMub3JnLzE5OTkveGh0bWwiIHN0eWxlPSJkaXNwbGF5OiB0YWJsZS1jZWxsOyB3aGl0ZS1zcGFjZTogbm9ybWFsOyBsaW5lLWhlaWdodDogMS41OyBtYXgtd2lkdGg6IDEzNHB4OyB0ZXh0LWFsaWduOiBjZW50ZXI7Ij48c3BhbiBjbGFzcz0ibm9kZUxhYmVsIG1hcmtkb3duLW5vZGUtbGFiZWwiIHN0eWxlPSIiPjxwPitsb2dvdXQoKTwvcD48L3NwYW4+PC9kaXY+PC9mb3JlaWduT2JqZWN0PjwvZz48L2c+PGcgY2xhc3M9ImRpdmlkZXIiIHN0eWxlPSIiPjxwYXRoIGQ9Ik0tMTU0LjE3NzczNDM3NSAtMjAxIEMtNTMuMTQ0MjQ0ODg2MTY1NTY2IC0yMDAuOTk5NjcyMzQ3MzQwMjQsIDQ3Ljg4OTI0NDYwMjY2ODg3IC0yMDAuOTk5MzQ0Njk0NjgwNDcsIDE1NC4xNzc3MzQzNzUgLTIwMC45OTkgTS0xNTQuMTc3NzM0Mzc1IC0yMDEgQy01Ni43Nzg2Mjc2NTU0OTYwMSAtMjAwLjk5OTY4NDEzMzY4MTQ2LCA0MC42MjA0NzkwNjQwMDc5OCAtMjAwLjk5OTM2ODI2NzM2Mjg4LCAxNTQuMTc3NzM0Mzc1IC0yMDAuOTk5IiBzdHJva2U9IiMwMDAwMDAiIHN0cm9rZS13aWR0aD0iMS4zIiBmaWxsPSJub25lIiBzdHlsZT0iIi8+PC9nPjxnIGNsYXNzPSJkaXZpZGVyIiBzdHlsZT0iIj48cGF0aCBkPSJNLTE1NC4xNzc3MzQzNzUgLTE1NiBDLTg3LjgyODMxNzYwMzIzMTQ3IC0xNTUuOTk5Nzg0ODI4MTQ5NjcsIC0yMS40Nzg5MDA4MzE0NjI5MzcgLTE1NS45OTk1Njk2NTYyOTkzMSwgMTU0LjE3NzczNDM3NSAtMTU1Ljk5OSBNLTE1NC4xNzc3MzQzNzUgLTE1NiBDLTcxLjIzMzg1NDMyNTY5NDEzIC0xNTUuOTk5NzMxMDEyMTMyMjYsIDExLjcxMDAyNTcyMzYxMTc1IC0xNTUuOTk5NDYyMDI0MjY0NSwgMTU0LjE3NzczNDM3NSAtMTU1Ljk5OSIgc3Ryb2tlPSIjMDAwMDAwIiBzdHJva2Utd2lkdGg9IjEuMyIgZmlsbD0ibm9uZSIgc3R5bGU9IiIvPjwvZz48L2c+PC9nPjwvZz48L2c+PGRlZnM+PGZpbHRlciBpZD0iZHJvcC1zaGFkb3ciIGhlaWdodD0iMTMwJSIgd2lkdGg9IjEzMCUiPjxmZURyb3BTaGFkb3cgZHg9IjQiIGR5PSI0IiBzdGREZXZpYXRpb249IjAiIGZsb29kLW9wYWNpdHk9IjAuMDYiIGZsb29kLWNvbG9yPSIjRkZGRkZGIi8+PC9maWx0ZXI+PC9kZWZzPjxkZWZzPjxmaWx0ZXIgaWQ9ImRyb3Atc2hhZG93LXNtYWxsIiBoZWlnaHQ9IjE1MCUiIHdpZHRoPSIxNTAlIj48ZmVEcm9wU2hhZG93IGR4PSIyIiBkeT0iMiIgc3RkRGV2aWF0aW9uPSIwIiBmbG9vZC1vcGFjaXR5PSIwLjA2IiBmbG9vZC1jb2xvcj0iI0ZGRkZGRiIvPjwvZmlsdGVyPjwvZGVmcz48bGluZWFyR3JhZGllbnQgaWQ9ImV4cG9ydC1zdmctZ3JhZGllbnQiIGdyYWRpZW50VW5pdHM9Im9iamVjdEJvdW5kaW5nQm94IiB4MT0iMCUiIHkxPSIwJSIgeDI9IjEwMCUiIHkyPSIwJSI+PHN0b3Agb2Zmc2V0PSIwJSIgc3RvcC1jb2xvcj0iIzAwNDJlYiIgc3RvcC1vcGFjaXR5PSIxIi8+PHN0b3Agb2Zmc2V0PSIxMDAlIiBzdG9wLWNvbG9yPSIjZWIwMDQyIiBzdG9wLW9wYWNpdHk9IjEiLz48L2xpbmVhckdyYWRpZW50Pjwvc3ZnPg==;" vertex="1" parent="1">
          <mxGeometry x="-290" y="-70" width="1566.43" height="1434.59" as="geometry" />
        </mxCell>
      </root>
    </mxGraphModel>
  </diagram>
</mxfile>
